<svg width="64" height="74" viewBox="0 0 64 74" fill="none" xmlns="http://www.w3.org/2000/svg">
<g clip-path="url(#clip0_126_3573)">
<path d="M59.7999 1.42484C51.0262 22.1998 37.7699 41.0659 21.2323 56.3971C16.5678 60.7198 11.6308 64.7091 6.55235 68.5268C5.94657 68.9813 6.07783 69.6377 6.74418 69.8801C7.53168 70.173 8.73313 69.9104 9.39949 69.4459C28.2088 56.2153 43.9892 38.2683 55.3575 18.3215C58.5681 12.696 61.4254 6.86854 63.9393 0.899659C64.3129 0.0209911 62.5864 -0.0396066 62.1523 0.0108915C61.2537 0.121987 60.1734 0.525973 59.7999 1.41474V1.42484Z" fill="black"/>
<path d="M5.21973 57.7297C3.33174 62.5371 1.59518 67.4153 0.0201728 72.3338C-0.0807895 72.6671 0.181712 72.9499 0.444214 73.0912C2.85721 74.3133 5.5731 74.1315 8.14764 73.5861C11.0755 72.96 13.9429 71.9399 16.8001 71.0814C22.8276 69.2635 28.956 67.6273 34.9026 65.5367C35.4579 65.3448 36.3464 64.7389 36.0334 64.0622C35.7204 63.3855 34.3675 63.5875 33.8425 63.7188C28.4814 65.0721 23.2112 66.8497 17.9107 68.4454C15.3362 69.2231 12.7717 70.0008 10.1972 70.7683C8.07697 71.4046 5.87599 72.1015 3.77597 71.0511L4.20001 71.8086C5.75483 66.8901 7.47119 62.022 9.34909 57.2045C9.69236 56.3158 8.00629 56.2552 7.55196 56.3158C6.67359 56.4269 5.54281 56.8308 5.18944 57.7297H5.21973Z" fill="black"/>
</g>
<defs>
<clipPath id="clip0_126_3573">
<rect width="64" height="74" fill="white"/>
</clipPath>
</defs>
</svg>
