<svg width="164" height="59" viewBox="0 0 164 59" fill="none" xmlns="http://www.w3.org/2000/svg">
<g clip-path="url(#clip0_433_2119)">
<rect x="0.5" y="0.5" width="163" height="58" rx="6.5" fill="black" stroke="white"/>
<path d="M111.746 27.7325V30.8621H109.785V32.9145H111.746V39.8882C111.746 42.2694 112.823 43.2219 115.534 43.2219C116.01 43.2219 116.463 43.1652 116.86 43.0972V41.0675C116.52 41.1015 116.305 41.1242 115.93 41.1242C114.717 41.1242 114.184 40.5572 114.184 39.2645V32.9145H116.86V30.8621H114.184V27.7325H111.746Z" fill="white"/>
<path d="M123.764 43.392C127.37 43.392 129.581 40.9768 129.581 36.974C129.581 32.9939 127.359 30.5673 123.764 30.5673C120.158 30.5673 117.936 32.9939 117.936 36.974C117.936 40.9768 120.147 43.392 123.764 43.392ZM123.764 41.2262C121.644 41.2262 120.453 39.6727 120.453 36.974C120.453 34.2979 121.644 32.7331 123.764 32.7331C125.873 32.7331 127.075 34.2979 127.075 36.974C127.075 39.6614 125.873 41.2262 123.764 41.2262Z" fill="white"/>
<path d="M131.473 43.1539H133.911V35.8627C133.911 34.1278 135.215 32.9599 137.063 32.9599C137.494 32.9599 138.22 33.0393 138.424 33.1073V30.7034C138.163 30.6353 137.698 30.6013 137.335 30.6013C135.725 30.6013 134.353 31.4858 134.002 32.6991H133.82V30.8054H131.473V43.1539Z" fill="white"/>
<path d="M144.477 32.6424C146.28 32.6424 147.46 33.901 147.516 35.8401H141.28C141.416 33.9124 142.674 32.6424 144.477 32.6424ZM147.505 39.8201C147.051 40.784 146.042 41.3169 144.568 41.3169C142.618 41.3169 141.359 39.9449 141.28 37.7791V37.643H150V36.7926C150 32.9145 147.924 30.5673 144.489 30.5673C141.007 30.5673 138.796 33.0733 138.796 37.0193C138.796 40.9654 140.962 43.392 144.5 43.392C147.323 43.392 149.296 42.0313 149.852 39.8201H147.505Z" fill="white"/>
<path d="M95.7585 38.5938C95.9466 41.626 98.4734 43.5652 102.234 43.5652C106.254 43.5652 108.769 41.532 108.769 38.2882C108.769 35.7379 107.335 34.3275 103.856 33.5166L101.988 33.0582C99.778 32.5411 98.8848 31.8477 98.8848 30.6371C98.8848 29.1093 100.272 28.1103 102.352 28.1103C104.326 28.1103 105.69 29.0857 105.936 30.6489H108.499C108.346 27.7929 105.831 25.7832 102.387 25.7832C98.685 25.7832 96.2169 27.7929 96.2169 30.8134C96.2169 33.305 97.6155 34.7859 100.683 35.5028L102.869 36.0317C105.114 36.5606 106.101 37.3362 106.101 38.6291C106.101 40.1334 104.55 41.2264 102.434 41.2264C100.166 41.2264 98.591 40.2039 98.3677 38.5938H95.7585Z" fill="white"/>
<path d="M70.5039 30.6013C68.8257 30.6013 67.3743 31.4404 66.6259 32.8465H66.4444V30.8054H64.0972V47.2587H66.5352V41.2829H66.7279C67.3743 42.5869 68.769 43.358 70.5266 43.358C73.6449 43.358 75.6293 40.8974 75.6293 36.974C75.6293 33.0506 73.6449 30.6013 70.5039 30.6013ZM69.8122 41.1695C67.7711 41.1695 66.4898 39.5593 66.4898 36.9853C66.4898 34.4 67.7711 32.7898 69.8236 32.7898C71.8873 32.7898 73.1233 34.3659 73.1233 36.974C73.1233 39.5934 71.8873 41.1695 69.8122 41.1695Z" fill="white"/>
<path d="M84.16 30.6013C82.4818 30.6013 81.0304 31.4404 80.282 32.8465H80.1006V30.8054H77.7533V47.2587H80.1913V41.2829H80.3841C81.0304 42.5869 82.4251 43.358 84.1827 43.358C87.301 43.358 89.2854 40.8974 89.2854 36.974C89.2854 33.0506 87.301 30.6013 84.16 30.6013ZM83.4683 41.1695C81.4273 41.1695 80.1459 39.5593 80.1459 36.9853C80.1459 34.4 81.4273 32.7898 83.4797 32.7898C85.5434 32.7898 86.7794 34.3659 86.7794 36.974C86.7794 39.5934 85.5434 41.1695 83.4683 41.1695Z" fill="white"/>
<path d="M59.7231 43.1539H62.5203L56.3971 26.1946H53.5646L47.4414 43.1539H50.1446L51.7077 38.6526H58.1717L59.7231 43.1539ZM54.8457 29.2738H55.0455L57.5018 36.443H52.3776L54.8457 29.2738Z" fill="white"/>
<path d="M49.0801 13.4025V21.5838H52.034C54.4719 21.5838 55.8836 20.0814 55.8836 17.4677C55.8836 14.8937 54.4606 13.4025 52.034 13.4025H49.0801ZM50.3501 14.5592H51.8922C53.5874 14.5592 54.591 15.6364 54.591 17.4847C54.591 19.3613 53.6045 20.4272 51.8922 20.4272H50.3501V14.5592Z" fill="white"/>
<path d="M60.2073 21.7029C62.0103 21.7029 63.1158 20.4953 63.1158 18.4939C63.1158 16.5038 62.0046 15.2905 60.2073 15.2905C58.4044 15.2905 57.2931 16.5038 57.2931 18.4939C57.2931 20.4953 58.3987 21.7029 60.2073 21.7029ZM60.2073 20.62C59.1471 20.62 58.5518 19.8433 58.5518 18.4939C58.5518 17.1558 59.1471 16.3734 60.2073 16.3734C61.2619 16.3734 61.8629 17.1558 61.8629 18.4939C61.8629 19.8376 61.2619 20.62 60.2073 20.62Z" fill="white"/>
<path d="M72.5309 15.4096H71.3119L70.212 20.1211H70.1156L68.8456 15.4096H67.6776L66.4076 20.1211H66.3169L65.2113 15.4096H63.9754L65.6763 21.5838H66.9292L68.1992 17.0368H68.2956L69.5713 21.5838H70.8356L72.5309 15.4096Z" fill="white"/>
<path d="M73.9347 21.5838H75.1536V17.9723C75.1536 17.0084 75.7263 16.4075 76.6277 16.4075C77.5292 16.4075 77.9601 16.9007 77.9601 17.8929V21.5838H79.1791V17.5867C79.1791 16.1183 78.4193 15.2905 77.0416 15.2905C76.1118 15.2905 75.4995 15.7044 75.199 16.3904H75.1083V15.4096H73.9347V21.5838Z" fill="white"/>
<path d="M81.0988 21.5838H82.3178V13H81.0988V21.5838Z" fill="white"/>
<path d="M86.9023 21.7029C88.7052 21.7029 89.8108 20.4953 89.8108 18.4939C89.8108 16.5038 88.6995 15.2905 86.9023 15.2905C85.0993 15.2905 83.9881 16.5038 83.9881 18.4939C83.9881 20.4953 85.0936 21.7029 86.9023 21.7029ZM86.9023 20.62C85.842 20.62 85.2467 19.8433 85.2467 18.4939C85.2467 17.1558 85.842 16.3734 86.9023 16.3734C87.9568 16.3734 88.5578 17.1558 88.5578 18.4939C88.5578 19.8376 87.9568 20.62 86.9023 20.62Z" fill="white"/>
<path d="M93.4428 20.6597C92.7794 20.6597 92.2975 20.3365 92.2975 19.7809C92.2975 19.2366 92.683 18.9475 93.5335 18.8908L95.0416 18.7944V19.3103C95.0416 20.0757 94.3612 20.6597 93.4428 20.6597ZM93.1309 21.6859C93.9417 21.6859 94.6164 21.3344 94.9849 20.7164H95.0813V21.5838H96.2549V17.3656C96.2549 16.0616 95.3818 15.2905 93.834 15.2905C92.4336 15.2905 91.4357 15.9709 91.311 17.0311H92.4903C92.6263 16.5946 93.0969 16.3451 93.7773 16.3451C94.6107 16.3451 95.0416 16.7136 95.0416 17.3656V17.8986L93.369 17.995C91.9006 18.0857 91.0728 18.7263 91.0728 19.8376C91.0728 20.9658 91.9403 21.6859 93.1309 21.6859Z" fill="white"/>
<path d="M100.391 21.6859C101.242 21.6859 101.962 21.2833 102.33 20.6087H102.427V21.5838H103.595V13H102.376V16.3904H102.285C101.951 15.7101 101.236 15.3075 100.391 15.3075C98.8323 15.3075 97.8288 16.5435 97.8288 18.4939C97.8288 20.4499 98.821 21.6859 100.391 21.6859ZM100.737 16.4018C101.758 16.4018 102.399 17.2125 102.399 18.4996C102.399 19.7922 101.764 20.5917 100.737 20.5917C99.7054 20.5917 99.0875 19.8036 99.0875 18.4939C99.0875 17.1955 99.7111 16.4018 100.737 16.4018Z" fill="white"/>
<path d="M111.499 21.7029C113.302 21.7029 114.408 20.4953 114.408 18.4939C114.408 16.5038 113.297 15.2905 111.499 15.2905C109.696 15.2905 108.585 16.5038 108.585 18.4939C108.585 20.4953 109.691 21.7029 111.499 21.7029ZM111.499 20.62C110.439 20.62 109.844 19.8433 109.844 18.4939C109.844 17.1558 110.439 16.3734 111.499 16.3734C112.554 16.3734 113.155 17.1558 113.155 18.4939C113.155 19.8376 112.554 20.62 111.499 20.62Z" fill="white"/>
<path d="M116.022 21.5838H117.241V17.9723C117.241 17.0084 117.813 16.4075 118.715 16.4075C119.616 16.4075 120.047 16.9007 120.047 17.8929V21.5838H121.266V17.5867C121.266 16.1183 120.506 15.2905 119.129 15.2905C118.199 15.2905 117.586 15.7044 117.286 16.3904H117.195V15.4096H116.022V21.5838Z" fill="white"/>
<path d="M126.88 13.8731V15.4379H125.899V16.4642H126.88V19.951C126.88 21.1416 127.419 21.6179 128.774 21.6179C129.012 21.6179 129.239 21.5895 129.437 21.5555V20.5406C129.267 20.5576 129.159 20.569 128.972 20.569C128.365 20.569 128.099 20.2855 128.099 19.6392V16.4642H129.437V15.4379H128.099V13.8731H126.88Z" fill="white"/>
<path d="M131.073 21.5838H132.292V17.9779C132.292 17.0425 132.848 16.4131 133.846 16.4131C134.708 16.4131 135.167 16.9121 135.167 17.8986V21.5838H136.386V17.5981C136.386 16.1296 135.575 15.2962 134.26 15.2962C133.33 15.2962 132.678 15.7101 132.377 16.4018H132.281V13H131.073V21.5838Z" fill="white"/>
<path d="M140.783 16.3281C141.685 16.3281 142.274 16.9574 142.303 17.9269H139.184C139.252 16.9631 139.882 16.3281 140.783 16.3281ZM142.297 19.917C142.07 20.3989 141.566 20.6654 140.828 20.6654C139.853 20.6654 139.224 19.9793 139.184 18.8964V18.8284H143.544V18.4032C143.544 16.4642 142.507 15.2905 140.789 15.2905C139.048 15.2905 137.943 16.5435 137.943 18.5166C137.943 20.4896 139.026 21.7029 140.794 21.7029C142.206 21.7029 143.193 21.0225 143.471 19.917H142.297Z" fill="white"/>
<path d="M34.2139 29.2354C34.2435 26.939 35.4767 24.7662 37.4331 23.5634C36.1989 21.8008 34.1316 20.6832 31.9809 20.6159C29.687 20.3752 27.4631 21.9886 26.2942 21.9886C25.1026 21.9886 23.3029 20.6399 21.3648 20.6797C18.8386 20.7613 16.4836 22.1976 15.2546 24.4061C12.6126 28.9802 14.5833 35.7026 17.114 39.4C18.3802 41.2105 19.86 43.2329 21.7964 43.1612C23.6911 43.0826 24.3988 41.9529 26.686 41.9529C28.9519 41.9529 29.6159 43.1612 31.5915 43.1156C33.6247 43.0826 34.9057 41.297 36.1275 39.4694C37.0372 38.1793 37.7373 36.7536 38.2017 35.2449C35.8123 34.2343 34.2167 31.8297 34.2139 29.2354Z" fill="white"/>
<path d="M30.4823 18.1844C31.5909 16.8536 32.137 15.143 32.0048 13.416C30.3111 13.5939 28.7466 14.4034 27.6231 15.6831C26.5244 16.9335 25.9526 18.614 26.0607 20.275C27.755 20.2924 29.4206 19.5049 30.4823 18.1844Z" fill="white"/>
</g>
<defs>
<clipPath id="clip0_433_2119">
<rect width="164" height="59" fill="white"/>
</clipPath>
</defs>
</svg>
