<svg width="660" height="240" viewBox="0 0 660 240" fill="none" xmlns="http://www.w3.org/2000/svg">
<path d="M2 41.3912C2 41.3912 92.9002 82.7142 154.026 79.5225C215.313 76.3223 244 47.5 301.599 25.5032C359.197 3.50647 469.044 -20.5244 537.588 41.3912C586.706 85.7589 599.925 159 599.925 159" stroke="#7150FF" stroke-width="3" stroke-linecap="round" stroke-dasharray="10 10"/>
<g clip-path="url(#clip0_442_3843)">
<path d="M629.987 189.057C623.224 201.653 616.46 214.25 609.696 226.847C607.78 230.421 605.842 233.99 603.972 237.591C603.711 238.083 603.685 238.782 604.391 238.776C605.098 238.77 605.805 237.903 606.115 237.343C613.043 224.829 619.688 212.149 626.452 199.552L632.223 188.806C632.499 188.295 632.511 187.558 631.78 187.571C631.049 187.583 630.296 188.479 629.978 189.072L629.987 189.057Z" fill="#7150FF"/>
<path d="M606.124 236.645C597.483 222.545 588.975 208.36 580.613 194.093C578.221 190.02 575.85 185.934 573.478 181.847C572.852 180.765 570.592 182.92 571.099 183.797C579.381 198.115 587.804 212.343 596.364 226.495C598.809 230.534 601.272 234.572 603.737 238.599C604.395 239.671 606.646 237.503 606.117 236.65L606.124 236.645Z" fill="#7150FF"/>
<path d="M632.093 187.784C616.421 187.281 600.914 184.813 585.412 182.651C581.065 182.045 576.707 181.466 572.345 180.954C571.647 180.87 570.985 181.466 570.615 182.007C570.429 182.275 569.883 183.395 570.58 183.479C586.275 185.323 601.862 188.096 617.607 189.516C622.007 189.91 626.414 190.197 630.832 190.337C631.823 190.367 633.566 187.837 632.097 187.791L632.093 187.784Z" fill="#7150FF"/>
<path d="M606.538 236.916C608.814 223.757 610.879 210.561 612.744 197.342C613.276 193.575 613.786 189.803 614.285 186.029C614.383 185.294 613.476 185.501 613.102 185.709C612.466 186.064 611.934 186.764 611.839 187.487C610.091 200.726 608.148 213.939 605.988 227.119C605.373 230.873 604.74 234.629 604.096 238.382C603.968 239.127 604.926 238.896 605.28 238.701C605.936 238.334 606.412 237.65 606.543 236.923L606.538 236.916Z" fill="#7150FF"/>
<path d="M608.453 233.325C606.582 220.545 604.448 207.792 602.036 195.102C601.355 191.501 600.649 187.907 599.926 184.315C599.79 183.624 598.73 184.256 598.459 184.464C597.955 184.866 597.404 185.578 597.54 186.269C600.095 198.934 602.393 211.65 604.411 224.411C604.984 228.033 605.535 231.65 606.066 235.279C606.171 235.979 607.29 235.321 607.534 235.13C608.06 234.704 608.551 234.03 608.453 233.325Z" fill="#7150FF"/>
<path d="M600.604 184.737C600.722 180.877 601.041 177.038 601.283 173.183C601.329 172.499 600.548 172.655 600.165 172.878C599.571 173.225 599.052 173.87 598.968 174.568C598.518 178.405 598.36 182.291 598.243 186.152C598.223 186.847 598.979 186.697 599.382 186.462C599.939 186.129 600.584 185.432 600.604 184.737Z" fill="#7150FF"/>
<path d="M612.829 185.573C608.79 180.519 604.876 175.321 600.643 170.418C599.984 169.655 597.969 171.767 598.601 172.622C602.463 177.825 606.677 182.787 610.727 187.844C611.348 188.621 613.535 186.455 612.829 185.573Z" fill="#7150FF"/>
<path d="M597.157 174.112C596.68 175.862 596.134 177.59 595.518 179.297C594.902 181.004 594.16 182.585 593.482 184.312C593.285 184.829 593.628 185.211 594.138 185.085C594.787 184.928 595.336 184.33 595.631 183.761C596.509 182.084 597.181 180.258 597.829 178.484C598.478 176.71 599.008 175.001 599.49 173.23C599.55 173.014 599.585 172.684 599.394 172.514C599.203 172.345 598.881 172.398 598.668 172.476C598.006 172.716 597.341 173.426 597.15 174.116L597.157 174.112Z" fill="#7150FF"/>
<path d="M597.278 179.449C596.963 180.714 596.637 181.976 596.326 183.247C596.279 183.455 596.237 183.743 596.417 183.91C596.597 184.077 596.89 184.023 597.085 183.947C597.413 183.815 597.715 183.596 597.941 183.332C598.167 183.068 598.401 182.771 598.484 182.429C598.817 181.162 599.139 179.894 599.461 178.625C599.514 178.413 599.552 178.118 599.372 177.951C599.192 177.784 598.888 177.836 598.693 177.912C598.365 178.044 598.057 178.267 597.824 178.535C597.591 178.803 597.362 179.107 597.278 179.449Z" fill="#7150FF"/>
<path d="M599.52 176.287L599.684 176.015C599.868 175.713 599.565 176.212 599.712 175.97L597.846 176.184C597.428 178.486 596.922 180.768 596.377 183.047C596.33 183.254 596.288 183.543 596.468 183.71C596.648 183.877 596.941 183.823 597.136 183.746C597.741 183.505 598.376 182.88 598.542 182.224C599.124 179.959 599.603 177.665 600.01 175.361C600.042 175.173 600.116 174.846 599.92 174.698C599.758 174.575 599.574 174.58 599.38 174.627C598.752 174.789 598.256 175.336 597.959 175.888C597.841 176.102 597.716 176.303 597.601 176.507C597.383 176.887 597.341 177.652 597.98 177.567C598.673 177.466 599.187 176.843 599.526 176.283L599.52 176.287Z" fill="#7150FF"/>
<path d="M596.472 181.21C596.478 182.376 596.483 183.541 596.517 184.707C596.529 184.933 596.599 185.132 596.834 185.208C597.069 185.285 597.424 185.136 597.624 185.009C597.945 184.806 598.246 184.542 598.456 184.223C598.629 183.964 598.802 183.659 598.806 183.338C598.824 182.167 598.804 180.993 598.794 179.821C598.789 179.59 598.708 179.389 598.473 179.313C598.238 179.236 597.877 179.39 597.676 179.516C597.348 179.723 597.041 179.992 596.835 180.318C596.662 180.577 596.476 180.89 596.476 181.217L596.472 181.21Z" fill="#7150FF"/>
<path d="M597.827 182.572C597.187 182.358 596.547 182.145 595.899 181.946C595.779 181.919 595.651 181.925 595.531 181.972C595.382 182.001 595.242 182.061 595.108 182.146C594.947 182.247 594.802 182.357 594.669 182.488C594.519 182.62 594.388 182.768 594.276 182.932L594.091 183.246C593.998 183.425 593.939 183.613 593.927 183.816L593.956 184.041C594.005 184.178 594.1 184.268 594.246 184.307C594.876 184.536 595.516 184.749 596.145 184.961C596.276 184.99 596.392 184.982 596.512 184.935C596.662 184.906 596.808 184.841 596.942 184.757C597.103 184.656 597.255 184.541 597.387 184.411C597.538 184.278 597.669 184.13 597.787 183.962L597.973 183.649C598.065 183.469 598.121 183.275 598.143 183.074L598.116 182.838C598.063 182.694 597.969 182.604 597.823 182.565L597.827 182.572Z" fill="#7150FF"/>
<path d="M635.187 172.855L636.334 167.794C636.381 167.586 636.427 167.305 636.247 167.138C636.076 166.984 635.774 167.025 635.59 167.104C635.269 167.231 634.974 167.446 634.747 167.71C634.521 167.974 634.284 168.264 634.214 168.598L633.061 173.664C633.014 173.871 632.967 174.153 633.147 174.32C633.319 174.473 633.62 174.433 633.804 174.354C634.126 174.226 634.421 174.012 634.647 173.748C634.873 173.483 635.111 173.193 635.181 172.859L635.187 172.855Z" fill="#7150FF"/>
<path d="M621.872 173.595L623.958 164.36C624.005 164.153 624.051 163.871 623.867 163.698C623.695 163.544 623.394 163.585 623.199 163.661C622.607 163.894 621.948 164.525 621.802 165.168L619.71 174.408C619.663 174.615 619.62 174.903 619.8 175.07C619.976 175.23 620.274 175.183 620.469 175.107C621.06 174.874 621.726 174.239 621.867 173.589L621.872 173.595Z" fill="#7150FF"/>
<path d="M592.974 171.898C593.512 168.838 594.046 165.771 594.578 162.715C594.62 162.501 594.678 162.221 594.487 162.052C594.311 161.892 594.007 161.943 593.819 162.015C593.251 162.242 592.53 162.893 592.413 163.538C591.868 166.602 591.334 169.669 590.796 172.73C590.757 172.95 590.695 173.223 590.884 173.403C591.06 173.564 591.368 173.519 591.563 173.442C592.137 173.211 592.865 172.556 592.982 171.912L592.974 171.898Z" fill="#7150FF"/>
<path d="M572.199 176.586C572.889 173.767 573.572 170.951 574.263 168.132C574.309 167.925 574.359 167.632 574.178 167.465C573.998 167.298 573.694 167.35 573.504 167.433C572.898 167.674 572.257 168.303 572.091 168.959C571.394 171.783 570.704 174.602 570.014 177.422C569.96 177.633 569.922 177.929 570.102 178.096C570.282 178.262 570.586 178.211 570.781 178.135C571.393 177.889 572.041 177.256 572.203 176.593L572.199 176.586Z" fill="#7150FF"/>
</g>
<defs>
<clipPath id="clip0_442_3843">
<rect width="65.6281" height="77.2717" fill="white" transform="translate(659.732 204.357) rotate(147.759)"/>
</clipPath>
</defs>
</svg>
