<svg width="450" height="177" viewBox="0 0 450 177" fill="none" xmlns="http://www.w3.org/2000/svg">
<path d="M448 29.3963C448 29.3963 385.061 58.0686 342.738 55.8539C300.303 53.6334 280.441 33.6349 240.56 18.3723C200.679 3.10964 124.622 -13.5643 77.1617 29.3963C43.1527 60.1811 34 111 34 111" stroke="#7150FF" stroke-width="4" stroke-linecap="round" stroke-dasharray="10 10"/>
<g clip-path="url(#clip0_442_3844)">
<path d="M41.6854 150.293C32.4179 156.722 23.1504 163.151 13.8828 169.579C11.2554 171.405 8.61437 173.218 6.00897 175.079C5.64984 175.331 5.38063 175.813 5.87952 176.062C6.37842 176.311 7.18545 175.955 7.60445 175.672C16.9579 169.361 26.1723 162.83 35.4398 156.402L43.3464 150.918C43.7236 150.658 43.9962 150.144 43.4781 149.891C42.96 149.637 42.1095 149.997 41.6735 150.3L41.6854 150.293Z" fill="#7150FF"/>
<path d="M7.86081 175.185C6.84116 162.179 5.94578 149.161 5.18145 136.138C4.96049 132.418 4.75817 128.697 4.55585 124.975C4.5034 123.99 2.14316 124.694 2.18478 125.493C2.87455 138.523 3.6948 151.541 4.63989 164.554C4.91056 168.269 5.19421 171.99 5.48352 175.703C5.56139 176.692 7.9205 175.975 7.85459 175.186L7.86081 175.185Z" fill="#7150FF"/>
<path d="M43.6212 150.153C32.7881 144.183 22.774 136.891 12.6544 129.816C9.81663 127.833 6.9614 125.864 4.07908 123.941C3.61856 123.632 2.93968 123.813 2.48621 124.061C2.25918 124.182 1.47374 124.774 1.93426 125.083C12.3029 132.003 22.2641 139.538 32.8201 146.178C35.7713 148.032 38.766 149.813 41.8205 151.495C42.5064 151.871 44.6377 150.718 43.6218 150.159L43.6212 150.153Z" fill="#7150FF"/>
<path d="M8.05454 175.524C14.3697 167.091 20.5503 158.558 26.5976 149.936C28.3215 147.479 30.0318 145.011 31.7354 142.538C32.0673 142.056 31.3555 141.877 31.0183 141.889C30.4438 141.91 29.8198 142.212 29.4935 142.686C23.5203 151.364 17.4199 159.953 11.1788 168.442C9.40119 170.859 7.61059 173.272 5.81321 175.679C5.45588 176.157 6.21176 176.338 6.53034 176.328C7.12344 176.305 7.70285 175.995 8.0551 175.531L8.05454 175.524Z" fill="#7150FF"/>
<path d="M10.6869 173.687C13.9523 164.035 17.0227 154.307 19.8751 144.524C20.6866 141.75 21.4789 138.971 22.2582 136.187C22.4099 135.653 21.4384 135.717 21.1735 135.767C20.6753 135.868 20.0326 136.171 19.8809 136.705C17.1381 146.522 14.1959 156.282 11.0407 165.974C10.1456 168.724 9.23693 171.464 8.30961 174.205C8.1325 174.735 9.15431 174.672 9.39436 174.625C9.91681 174.515 10.5036 174.217 10.6869 173.687Z" fill="#7150FF"/>
<path d="M22.5836 136.727C24.0498 134.056 25.6494 131.473 27.2015 128.85C27.4786 128.386 26.8742 128.216 26.5251 128.235C25.9828 128.266 25.387 128.533 25.0783 128.994C23.3866 131.529 21.883 134.204 20.4168 136.875C20.1538 137.356 20.7391 137.522 21.1068 137.501C21.6174 137.467 22.3206 137.208 22.5836 136.727Z" fill="#7150FF"/>
<path d="M30.8752 141.695C29.8481 136.696 28.96 131.64 27.742 126.677C27.5524 125.905 25.3791 126.667 25.5174 127.494C26.3665 132.535 27.5501 137.532 28.5839 142.537C28.7419 143.306 31.0552 142.568 30.8752 141.695Z" fill="#7150FF"/>
<path d="M23.9685 128.024C23.0065 129.083 22.0032 130.102 20.9586 131.081C19.9141 132.06 18.826 132.905 17.7306 133.875C17.4066 134.168 17.5112 134.56 17.9146 134.654C18.427 134.777 19.0268 134.553 19.4384 134.258C20.6564 133.395 21.7828 132.352 22.8742 131.338C23.9656 130.324 24.9509 129.313 25.9242 128.24C26.0439 128.11 26.1867 127.89 26.1131 127.703C26.0396 127.515 25.7944 127.438 25.617 127.416C25.0657 127.348 24.3439 127.608 23.9623 128.025L23.9685 128.024Z" fill="#7150FF"/>
<path d="M22.1411 131.819C21.4664 132.595 20.785 133.365 20.1109 134.147C20.0037 134.276 19.8705 134.463 19.9372 134.645C20.0039 134.827 20.2294 134.894 20.3937 134.91C20.6717 134.935 20.962 134.89 21.2156 134.785C21.4691 134.681 21.7397 134.556 21.9209 134.345C22.6085 133.574 23.2894 132.798 23.9702 132.021C24.0837 131.892 24.2164 131.698 24.1496 131.516C24.0829 131.334 23.8507 131.262 23.6863 131.245C23.4084 131.221 23.1118 131.267 22.852 131.372C22.5923 131.477 22.3223 131.608 22.1411 131.819Z" fill="#7150FF"/>
<path d="M24.8497 130.4L25.0632 130.267C25.3004 130.121 24.909 130.363 25.0988 130.245L23.7106 129.727C22.5918 131.195 21.4187 132.618 20.219 134.024C20.1117 134.153 19.9785 134.341 20.0453 134.523C20.112 134.704 20.3374 134.771 20.5018 134.788C21.0136 134.835 21.6834 134.623 22.0351 134.222C23.2557 132.838 24.4147 131.398 25.5268 129.924C25.616 129.804 25.7853 129.6 25.7005 129.426C25.631 129.282 25.4999 129.219 25.3462 129.183C24.8474 129.072 24.3024 129.278 23.8958 129.56C23.7366 129.668 23.5762 129.764 23.4226 129.866C23.1329 130.056 22.8299 130.578 23.3089 130.747C23.8327 130.925 24.4172 130.671 24.8559 130.399L24.8497 130.4Z" fill="#7150FF"/>
<path d="M20.9435 132.768C20.5299 133.589 20.1162 134.41 19.7224 135.241C19.6496 135.405 19.6271 135.57 19.765 135.707C19.9028 135.845 20.2056 135.868 20.392 135.85C20.6903 135.823 20.9964 135.745 21.2584 135.596C21.473 135.476 21.7034 135.323 21.8208 135.1C22.2536 134.283 22.6599 133.451 23.073 132.623C23.152 132.46 23.1678 132.289 23.0299 132.151C22.892 132.014 22.583 131.992 22.3966 132.009C22.0921 132.037 21.7798 132.115 21.5183 132.271C21.3037 132.39 21.0609 132.544 20.9441 132.774L20.9435 132.768Z" fill="#7150FF"/>
<path d="M21.4074 134.21C21.0344 133.831 20.6614 133.452 20.2765 133.08C20.2019 133.018 20.1104 132.976 20.0093 132.966C19.8935 132.933 19.7737 132.925 19.6495 132.936C19.5003 132.95 19.3586 132.976 19.2185 133.02C19.0655 133.059 18.9203 133.116 18.7831 133.191L18.5403 133.345C18.411 133.438 18.302 133.548 18.2207 133.687L18.1609 133.856C18.1463 133.97 18.1802 134.067 18.2689 134.146C18.6301 134.533 19.0031 134.913 19.3693 135.286C19.4507 135.354 19.5354 135.39 19.6365 135.4C19.7523 135.433 19.8783 135.44 20.0026 135.429C20.1517 135.415 20.2997 135.389 20.4397 135.345C20.5928 135.306 20.738 135.249 20.8814 135.173L21.1242 135.019C21.2535 134.926 21.3619 134.81 21.45 134.676L21.5154 134.501C21.5295 134.381 21.4955 134.284 21.4068 134.204L21.4074 134.21Z" fill="#7150FF"/>
<path d="M51.1461 140.769L53.7655 137.623C53.8728 137.494 54.0066 137.313 53.9398 137.131C53.8742 136.962 53.6477 136.882 53.4901 136.871C53.2184 136.846 52.9343 136.891 52.6807 136.996C52.4271 137.1 52.156 137.219 51.9872 137.429L49.3616 140.575C49.2543 140.704 49.1205 140.886 49.1873 141.067C49.2529 141.237 49.4794 141.316 49.637 141.327C49.9087 141.352 50.1928 141.308 50.4464 141.203C50.7 141.098 50.9711 140.98 51.1399 140.77L51.1461 140.769Z" fill="#7150FF"/>
<path d="M41.5231 136.518L46.2985 130.776C46.4058 130.647 46.5396 130.465 46.4723 130.277C46.4067 130.108 46.1801 130.028 46.0157 130.012C45.5164 129.964 44.8273 130.171 44.4942 130.571L39.7126 136.314C39.6053 136.443 39.4721 136.631 39.5388 136.812C39.605 136.988 39.831 137.061 39.9954 137.078C40.4947 137.126 41.19 136.918 41.5225 136.512L41.5231 136.518Z" fill="#7150FF"/>
<path d="M21.8218 124.969C23.2968 123.012 24.7713 121.047 26.2402 119.09C26.3469 118.955 26.4874 118.779 26.4139 118.592C26.3477 118.416 26.1155 118.344 25.9574 118.327C25.4772 118.283 24.7373 118.482 24.424 118.893C22.9427 120.851 21.4683 122.815 19.9932 124.773C19.8871 124.914 19.7459 125.084 19.8138 125.278C19.88 125.454 20.1128 125.533 20.2771 125.549C20.7635 125.592 21.5096 125.393 21.8229 124.982L21.8218 124.969Z" fill="#7150FF"/>
<path d="M5.54181 120.819C7.03731 119.085 8.5266 117.351 10.0221 115.617C10.1294 115.488 10.2688 115.3 10.202 115.118C10.1353 114.937 9.90311 114.864 9.7393 114.854C9.2275 114.806 8.55146 115.019 8.19974 115.42C6.69803 117.155 5.20253 118.889 3.70703 120.624C3.59355 120.753 3.4609 120.947 3.52764 121.129C3.59438 121.31 3.82658 121.383 3.99096 121.399C4.50897 121.446 5.19123 121.233 5.54238 120.825L5.54181 120.819Z" fill="#7150FF"/>
</g>
<defs>
<clipPath id="clip0_442_3844">
<rect width="51.7727" height="60.9582" fill="white" transform="translate(57.1064 171.705) rotate(174.778)"/>
</clipPath>
</defs>
</svg>
