<svg width="49" height="49" viewBox="0 0 49 49" fill="none" xmlns="http://www.w3.org/2000/svg">
<g filter="url(#filter0_b_75_3735)">
<circle cx="24.5" cy="24.5" r="24.5" fill="white" fill-opacity="0.63"/>
<circle cx="24.5" cy="24.5" r="24" stroke="#4F5155" stroke-opacity="0.35"/>
</g>
<path d="M33.7136 26.8169L32.4424 24.7019C32.1611 24.2407 31.9136 23.3519 31.9136 22.8119V20.7082C31.9136 16.6244 28.5949 13.3057 24.5224 13.3057C20.4386 13.3169 17.1199 16.6244 17.1199 20.7082V22.8007C17.1199 23.3407 16.8724 24.2294 16.6024 24.6907L15.3311 26.8057C14.8474 27.6269 14.7349 28.5607 15.0386 29.3707C15.3424 30.1919 16.0286 30.8444 16.9286 31.1369C18.1436 31.5419 19.3699 31.8344 20.6186 32.0482C20.7424 32.0707 20.8661 32.0819 20.9899 32.1044C21.1474 32.1269 21.3161 32.1494 21.4849 32.1719C21.7774 32.2169 22.0699 32.2507 22.3736 32.2732C23.0824 32.3407 23.8024 32.3744 24.5224 32.3744C25.2311 32.3744 25.9399 32.3407 26.6374 32.2732C26.8961 32.2507 27.1549 32.2282 27.4024 32.1944C27.6049 32.1719 27.8074 32.1494 28.0099 32.1157C28.1336 32.1044 28.2574 32.0819 28.3811 32.0594C29.6411 31.8569 30.8899 31.5419 32.1049 31.1369C32.9711 30.8444 33.6349 30.1919 33.9499 29.3594C34.2649 28.5157 34.1749 27.5932 33.7136 26.8169ZM25.3436 22.2494C25.3436 22.7219 24.9611 23.1044 24.4886 23.1044C24.0161 23.1044 23.6336 22.7219 23.6336 22.2494V18.7619C23.6336 18.2894 24.0161 17.9069 24.4886 17.9069C24.9611 17.9069 25.3436 18.2894 25.3436 18.7619V22.2494Z" fill="#7150FF"/>
<path d="M27.6844 33.5113C27.2119 34.8163 25.9631 35.75 24.5006 35.75C23.6119 35.75 22.7344 35.39 22.1156 34.7488C21.7556 34.4113 21.4856 33.9613 21.3281 33.5C21.4744 33.5225 21.6206 33.5337 21.7781 33.5562C22.0369 33.59 22.3069 33.6237 22.5769 33.6462C23.2181 33.7025 23.8706 33.7362 24.5231 33.7362C25.1644 33.7362 25.8056 33.7025 26.4356 33.6462C26.6719 33.6237 26.9081 33.6125 27.1331 33.5787C27.3131 33.5562 27.4931 33.5338 27.6844 33.5113Z" fill="#7150FF"/>
<defs>
<filter id="filter0_b_75_3735" x="-100" y="-100" width="249" height="249" filterUnits="userSpaceOnUse" color-interpolation-filters="sRGB">
<feFlood flood-opacity="0" result="BackgroundImageFix"/>
<feGaussianBlur in="BackgroundImageFix" stdDeviation="50"/>
<feComposite in2="SourceAlpha" operator="in" result="effect1_backgroundBlur_75_3735"/>
<feBlend mode="normal" in="SourceGraphic" in2="effect1_backgroundBlur_75_3735" result="shape"/>
</filter>
</defs>
</svg>
