<svg width="474" height="458" viewBox="0 0 474 458" fill="none" xmlns="http://www.w3.org/2000/svg">
<path d="M188.207 457.349C253.399 457.349 306.248 447.15 306.248 434.569C306.248 421.988 253.399 411.789 188.207 411.789C123.015 411.789 70.1665 421.988 70.1665 434.569C70.1665 447.15 123.015 457.349 188.207 457.349Z" fill="#7150FF"/>
<path opacity="0.5" d="M188.207 457.349C253.399 457.349 306.248 447.15 306.248 434.569C306.248 421.988 253.399 411.789 188.207 411.789C123.015 411.789 70.1665 421.988 70.1665 434.569C70.1665 447.15 123.015 457.349 188.207 457.349Z" fill="white"/>
<path d="M362.079 245.742C362.079 245.742 361.333 241.739 361.25 241.49C360.325 238.632 356.86 233.648 353.491 233.662C352.932 233.678 352.382 233.812 351.877 234.055C351.373 234.297 350.925 234.644 350.563 235.071C350.201 235.498 349.933 235.996 349.776 236.534C349.619 237.071 349.578 237.636 349.653 238.19C349.902 240.551 352.028 242.567 353.947 243.713C356.197 245.093 362.079 245.742 362.079 245.742Z" fill="#7150FF"/>
<path d="M368.595 218.78C365.434 219.926 363.846 225.779 363.956 228.789C363.956 229.051 364.564 233.083 364.619 233.055C364.371 233.98 364.108 234.974 363.832 236.065C363.363 238.081 362.838 240.372 362.452 242.885C361.987 245.603 361.687 248.346 361.554 251.099C361.377 254.176 361.478 257.263 361.858 260.322C361.858 260.322 361.858 260.405 361.858 260.432C361.444 259.535 360.201 257.077 360.077 256.898C358.434 254.385 353.768 250.506 350.523 251.376C350.001 251.553 349.521 251.837 349.114 252.21C348.707 252.582 348.382 253.036 348.16 253.541C347.938 254.046 347.824 254.592 347.824 255.144C347.825 255.696 347.94 256.241 348.162 256.746C349.018 258.955 351.6 260.336 353.768 260.957C356.198 261.647 361.623 260.833 362.051 260.764C362.518 263.869 363.187 266.94 364.053 269.958C364.55 271.712 365.102 273.479 365.682 275.232C365.309 274.473 364.95 273.852 364.895 273.7C363.252 271.187 358.586 267.294 355.342 268.177C354.808 268.343 354.314 268.619 353.893 268.988C353.472 269.356 353.133 269.808 352.898 270.315C352.663 270.823 352.536 271.374 352.526 271.933C352.517 272.492 352.625 273.047 352.843 273.562C353.699 275.771 356.28 277.151 358.448 277.773C360.615 278.394 365.268 277.773 366.497 277.607C366.731 278.283 366.952 278.987 367.187 279.622C368.292 282.839 369.41 286.042 370.418 289.287C370.777 290.405 371.08 291.523 371.398 292.642C371.053 291.965 370.763 291.399 370.708 291.261C369.065 288.748 364.398 284.855 361.154 285.739C360.619 285.901 360.124 286.174 359.702 286.541C359.28 286.907 358.941 287.359 358.705 287.866C358.469 288.372 358.343 288.923 358.334 289.482C358.325 290.041 358.435 290.595 358.655 291.109C359.511 293.332 362.093 294.712 364.26 295.251C366.428 295.789 370.638 295.334 372.088 295.127C372.378 296.272 372.668 297.432 372.889 298.564C373.027 299.337 373.206 300.069 373.303 300.856L373.634 303.162C373.786 304.625 373.952 306.144 374.062 307.579C374.145 308.587 374.2 309.54 374.269 310.493C373.938 309.374 373.22 307.207 373.137 307.027C371.948 304.669 370.175 302.654 367.988 301.174C367.87 300.903 367.727 300.644 367.56 300.4C367.255 299.932 366.855 299.532 366.386 299.228C365.917 298.924 365.389 298.723 364.837 298.637C364.284 298.551 363.72 298.582 363.18 298.729C362.641 298.876 362.139 299.135 361.706 299.489C359.152 301.684 359.787 307.773 360.961 310.534C360.961 310.7 361.982 312.384 362.59 313.433C362.134 312.867 361.706 312.315 361.209 311.735C360.27 310.603 359.304 309.485 358.268 308.284C357.758 307.718 357.233 307.138 356.695 306.572C356.156 306.006 355.562 305.44 354.996 304.86C353.616 303.562 352.235 302.306 350.758 301.077C351.752 300.262 355.273 297.294 356.28 295.278C357.288 293.263 358.006 290.433 356.957 288.306C356.726 287.798 356.391 287.344 355.973 286.973C355.556 286.602 355.065 286.323 354.533 286.154C354 285.984 353.438 285.929 352.883 285.991C352.328 286.052 351.792 286.23 351.31 286.512C348.452 288.306 348.163 294.367 348.908 297.28C348.908 297.46 349.723 299.489 350.164 300.594C349.267 299.862 348.383 299.13 347.472 298.412C344.808 296.355 342.046 294.353 339.313 292.352L336.8 290.502C337.159 290.212 341.411 286.774 342.543 284.51C343.551 282.508 344.283 279.678 343.22 277.607C342.991 277.097 342.657 276.64 342.239 276.269C341.821 275.897 341.33 275.617 340.796 275.449C340.263 275.281 339.7 275.228 339.145 275.292C338.589 275.357 338.054 275.539 337.573 275.826C334.716 277.607 334.439 283.668 335.171 286.581C335.171 286.802 336.331 289.728 336.648 290.46C334.826 289.08 333.004 287.699 331.278 286.318C328.92 284.403 326.692 282.332 324.61 280.12C324.775 279.995 329.235 276.42 330.394 274.114C331.402 272.112 332.12 269.268 331.071 267.142C330.84 266.633 330.505 266.179 330.087 265.808C329.67 265.437 329.179 265.158 328.646 264.989C328.114 264.82 327.552 264.764 326.997 264.826C326.442 264.888 325.906 265.065 325.424 265.347C322.566 267.142 322.276 273.203 323.022 276.116C323.022 276.309 323.905 278.532 324.333 279.581L324.168 279.678C322.109 277.406 320.261 274.952 318.645 272.347C317.748 270.966 316.975 269.517 316.243 268.122C317.141 267.542 321.213 264.85 322.483 262.89C323.754 260.929 324.734 258.265 323.864 255.987C323.692 255.455 323.41 254.966 323.036 254.551C322.662 254.136 322.205 253.804 321.694 253.577C321.184 253.351 320.631 253.234 320.073 253.235C319.514 253.237 318.962 253.356 318.452 253.585C315.415 255.048 314.476 261.054 314.89 264.022C314.89 264.187 315.318 265.803 315.636 266.976C315.318 266.355 314.973 265.706 314.683 265.099C313.579 262.807 312.709 260.639 311.922 258.707C311.494 257.616 311.135 256.608 310.804 255.669C311.397 254.648 313.689 250.464 313.91 248.186C314.131 245.908 313.786 243.037 312.032 241.435C311.633 241.045 311.156 240.742 310.632 240.547C310.108 240.352 309.549 240.268 308.992 240.302C308.434 240.336 307.889 240.486 307.393 240.743C306.896 241 306.459 241.358 306.11 241.794C304.108 244.555 306.027 250.257 307.766 252.701C307.904 252.922 310.638 255.959 310.679 255.904C310.983 256.815 311.301 257.782 311.687 258.845C312.405 260.791 313.234 262.986 314.297 265.306C315.411 267.82 316.669 270.268 318.066 272.637C319.625 275.299 321.417 277.817 323.422 280.161L323.505 280.244C322.663 279.733 320.261 278.366 320.067 278.283C317.306 277.096 311.273 276.42 309.023 278.96C308.665 279.391 308.402 279.893 308.252 280.432C308.102 280.972 308.067 281.537 308.15 282.091C308.234 282.645 308.433 283.176 308.736 283.647C309.039 284.119 309.437 284.521 309.906 284.827C311.839 286.208 314.752 285.918 316.892 285.242C319.308 284.482 323.381 280.81 323.712 280.506C325.806 282.847 328.057 285.043 330.45 287.078C331.83 288.265 333.211 289.425 334.716 290.571L333.211 289.728C330.45 288.541 324.416 287.878 322.166 290.419C321.808 290.849 321.546 291.349 321.396 291.888C321.245 292.427 321.211 292.991 321.294 293.544C321.378 294.097 321.577 294.626 321.88 295.096C322.182 295.566 322.581 295.967 323.05 296.272C324.982 297.653 327.895 297.377 330.035 296.7C332.175 296.024 335.751 292.945 336.676 292.117L338.347 293.428C341.108 295.485 343.758 297.57 346.354 299.641C347.265 300.373 348.135 301.132 349.005 301.891C348.356 301.519 347.79 301.201 347.707 301.174C344.946 299.986 338.913 299.31 336.662 301.85C336.306 302.28 336.044 302.78 335.894 303.318C335.744 303.855 335.709 304.419 335.791 304.971C335.873 305.523 336.071 306.052 336.371 306.523C336.67 306.994 337.066 307.396 337.532 307.704C339.479 309.084 342.392 308.808 344.532 308.132C346.671 307.455 349.888 304.68 350.993 303.7C351.876 304.501 352.746 305.315 353.561 306.13C354.099 306.696 354.651 307.207 355.162 307.814L356.708 309.554C357.647 310.7 358.627 311.873 359.47 313.005C360.091 313.792 360.671 314.551 361.251 315.325C360.353 314.579 358.558 313.157 358.393 313.047C355.852 311.459 349.985 309.885 347.417 312.053C347.002 312.428 346.671 312.886 346.444 313.397C346.217 313.908 346.1 314.462 346.1 315.021C346.1 315.58 346.217 316.133 346.444 316.645C346.671 317.156 347.002 317.614 347.417 317.989C349.115 319.632 352.042 319.812 354.32 319.466C356.764 319.08 361.223 316.208 361.72 315.835C362.686 317.106 363.611 318.362 364.481 319.549C367.463 323.691 369.783 327.198 371.384 329.683L371.55 329.945L373.607 328.937C373.496 328.785 373.4 328.62 373.275 328.454C371.619 325.969 369.203 322.448 366.11 318.362C365.13 317.064 364.067 315.697 362.949 314.317C364.094 313.061 365.164 311.738 366.152 310.354C368.736 311.038 371.403 311.363 374.076 311.321C374.173 312.909 374.269 314.455 374.325 315.918C374.532 320.999 374.518 325.223 374.463 328.178V328.523L376.727 327.432C376.727 324.492 376.616 320.529 376.313 315.822C376.216 314.206 376.078 312.481 375.912 310.713C376.547 310.548 381.669 309.236 383.602 307.69C385.535 306.144 387.192 304.018 387.137 301.643C387.139 301.084 387.025 300.53 386.799 300.018C386.574 299.505 386.244 299.046 385.83 298.67C385.416 298.294 384.928 298.009 384.396 297.834C383.865 297.658 383.303 297.597 382.746 297.653C379.419 298.081 376.616 303.465 376.064 306.42C376.064 306.599 375.899 308.518 375.83 309.747C375.761 309.015 375.691 308.366 375.622 307.579C375.471 306.102 375.277 304.639 375.084 303.065L374.711 300.773C374.601 300 374.38 299.199 374.228 298.412C373.828 296.59 373.317 294.754 372.847 292.89C374.131 292.752 378.701 292.213 380.662 291.095C382.622 289.977 384.803 288.003 385.066 285.656C385.156 285.103 385.128 284.538 384.985 283.997C384.841 283.456 384.585 282.951 384.234 282.516C383.882 282.081 383.442 281.725 382.943 281.471C382.444 281.218 381.897 281.072 381.338 281.045C377.969 280.962 374.435 285.863 373.4 288.693C373.4 288.872 372.861 290.985 372.613 292.158C372.281 291.054 371.95 289.949 371.577 288.845C370.487 285.67 369.299 282.48 368.112 279.291C367.753 278.325 367.408 277.345 367.049 276.364C367.505 276.364 372.958 275.798 375.139 274.542C377.086 273.424 379.281 271.463 379.557 269.102C379.645 268.55 379.616 267.986 379.472 267.446C379.327 266.906 379.071 266.402 378.72 265.967C378.368 265.532 377.929 265.176 377.431 264.922C376.934 264.668 376.388 264.521 375.83 264.491C372.461 264.408 368.927 269.309 367.891 272.14C367.808 272.361 367.118 275.412 366.98 276.185C366.207 274.045 365.461 271.891 364.799 269.737C363.897 266.841 363.182 263.89 362.659 260.902C362.88 260.902 368.554 260.363 370.804 259.066C372.751 257.947 374.946 255.987 375.208 253.626C375.298 253.074 375.271 252.508 375.127 251.967C374.984 251.426 374.728 250.922 374.376 250.486C374.024 250.051 373.584 249.695 373.086 249.441C372.587 249.188 372.04 249.042 371.481 249.015C368.126 248.932 364.578 253.833 363.542 256.677C363.542 256.857 362.962 259.176 362.728 260.28H362.534C362.102 257.254 361.931 254.196 362.024 251.141C362.024 249.47 362.189 247.855 362.355 246.295C363.418 246.295 368.305 246.295 370.445 245.37C372.585 244.445 374.877 242.761 375.429 240.455C375.576 239.915 375.608 239.351 375.523 238.798C375.438 238.246 375.238 237.717 374.936 237.246C374.634 236.775 374.237 236.373 373.771 236.065C373.304 235.757 372.778 235.55 372.226 235.457C368.899 235.002 364.799 239.489 363.501 242.195C363.432 242.347 362.88 243.92 362.493 245.08C362.576 244.376 362.645 243.7 362.742 242.982C363.087 240.455 363.556 238.163 363.984 236.148C364.233 234.988 364.495 233.953 364.73 233C365.793 232.462 370.003 230.239 371.453 228.458C372.903 226.677 374.214 224.095 373.607 221.79C373.494 221.253 373.271 220.745 372.953 220.298C372.634 219.851 372.227 219.475 371.757 219.192C371.287 218.91 370.763 218.728 370.219 218.657C369.675 218.586 369.122 218.628 368.595 218.78Z" fill="#7150FF"/>
<path d="M307.752 270.662C310.389 270.552 315.649 267.901 315.649 267.901C315.649 267.901 312.819 264.988 312.612 264.822C310.265 262.945 304.618 260.681 301.816 262.572C301.359 262.894 300.975 263.308 300.69 263.789C300.404 264.269 300.223 264.804 300.157 265.359C300.092 265.914 300.145 266.476 300.312 267.009C300.479 267.542 300.756 268.035 301.126 268.453C302.603 270.234 305.516 270.745 307.752 270.662Z" fill="#7150FF"/>
<g opacity="0.5">
<path d="M362.079 245.742C362.079 245.742 361.333 241.739 361.25 241.49C360.325 238.632 356.86 233.648 353.491 233.662C352.932 233.678 352.382 233.812 351.877 234.055C351.373 234.297 350.925 234.644 350.563 235.071C350.201 235.498 349.933 235.996 349.776 236.534C349.619 237.071 349.578 237.636 349.653 238.19C349.902 240.551 352.028 242.567 353.947 243.713C356.197 245.093 362.079 245.742 362.079 245.742Z" fill="white"/>
<path d="M368.595 218.78C365.433 219.926 363.846 225.779 363.956 228.789C363.956 229.051 364.563 233.083 364.619 233.055C364.37 233.98 364.108 234.974 363.832 236.065C363.362 238.081 362.838 240.372 362.451 242.885C361.986 245.603 361.687 248.346 361.554 251.099C361.376 254.176 361.478 257.263 361.857 260.322C361.857 260.322 361.857 260.405 361.857 260.432C361.443 259.535 360.201 257.077 360.077 256.898C358.434 254.385 353.767 250.506 350.523 251.376C350 251.553 349.52 251.837 349.113 252.21C348.707 252.582 348.382 253.036 348.16 253.541C347.938 254.046 347.823 254.592 347.824 255.144C347.824 255.696 347.939 256.241 348.162 256.746C349.018 258.955 351.6 260.336 353.767 260.957C356.197 261.647 361.623 260.833 362.051 260.764C362.517 263.869 363.186 266.94 364.053 269.958C364.55 271.712 365.102 273.479 365.682 275.232C365.309 274.473 364.95 273.852 364.895 273.7C363.252 271.187 358.585 267.294 355.341 268.177C354.807 268.343 354.314 268.619 353.893 268.988C353.472 269.356 353.133 269.808 352.897 270.315C352.662 270.823 352.535 271.374 352.526 271.933C352.516 272.492 352.624 273.047 352.842 273.562C353.698 275.771 356.28 277.151 358.447 277.773C360.615 278.394 365.268 277.773 366.496 277.607C366.731 278.283 366.952 278.987 367.187 279.622C368.291 282.839 369.409 286.042 370.417 289.287C370.776 290.405 371.08 291.523 371.397 292.642C371.052 291.965 370.762 291.399 370.707 291.261C369.064 288.748 364.398 284.855 361.153 285.739C360.619 285.901 360.124 286.174 359.702 286.541C359.28 286.907 358.94 287.359 358.704 287.866C358.468 288.372 358.342 288.923 358.334 289.482C358.325 290.041 358.434 290.595 358.655 291.109C359.51 293.332 362.092 294.712 364.26 295.251C366.427 295.789 370.638 295.334 372.088 295.127C372.378 296.272 372.668 297.432 372.888 298.564C373.026 299.337 373.206 300.069 373.303 300.856L373.634 303.162C373.786 304.625 373.951 306.144 374.062 307.579C374.145 308.587 374.2 309.54 374.269 310.493C373.938 309.374 373.22 307.207 373.137 307.027C371.948 304.669 370.175 302.654 367.987 301.174C367.87 300.903 367.726 300.644 367.559 300.4C367.255 299.932 366.855 299.532 366.386 299.228C365.916 298.924 365.388 298.723 364.836 298.637C364.284 298.551 363.719 298.582 363.18 298.729C362.641 298.876 362.138 299.135 361.706 299.489C359.152 301.684 359.787 307.773 360.96 310.534C360.96 310.7 361.982 312.384 362.589 313.433C362.134 312.867 361.706 312.315 361.209 311.735C360.27 310.603 359.303 309.485 358.268 308.284C357.757 307.718 357.232 307.138 356.694 306.572C356.156 306.006 355.562 305.44 354.996 304.86C353.615 303.562 352.235 302.306 350.758 301.077C351.752 300.262 355.272 297.294 356.28 295.278C357.288 293.263 358.006 290.433 356.956 288.306C356.725 287.798 356.39 287.344 355.973 286.973C355.555 286.602 355.064 286.323 354.532 286.154C354 285.984 353.438 285.929 352.883 285.991C352.328 286.052 351.792 286.23 351.31 286.512C348.452 288.306 348.162 294.367 348.908 297.28C348.908 297.46 349.722 299.489 350.164 300.594C349.266 299.862 348.383 299.13 347.472 298.412C344.807 296.355 342.046 294.353 339.312 292.352L336.8 290.502C337.159 290.212 341.411 286.774 342.543 284.51C343.551 282.508 344.283 279.678 343.22 277.607C342.991 277.097 342.656 276.64 342.239 276.269C341.821 275.897 341.329 275.617 340.796 275.449C340.262 275.281 339.7 275.228 339.144 275.292C338.589 275.357 338.053 275.539 337.573 275.826C334.715 277.607 334.439 283.668 335.171 286.581C335.171 286.802 336.33 289.728 336.648 290.46C334.826 289.08 333.003 287.699 331.277 286.318C328.919 284.403 326.691 282.332 324.609 280.12C324.775 279.995 329.234 276.42 330.394 274.114C331.402 272.112 332.12 269.268 331.07 267.142C330.839 266.633 330.504 266.179 330.087 265.808C329.669 265.437 329.178 265.158 328.646 264.989C328.114 264.82 327.552 264.764 326.997 264.826C326.442 264.888 325.906 265.065 325.424 265.347C322.566 267.142 322.276 273.203 323.021 276.116C323.021 276.309 323.905 278.532 324.333 279.581L324.167 279.678C322.109 277.406 320.261 274.952 318.645 272.347C317.748 270.966 316.974 269.517 316.243 268.122C317.14 267.542 321.213 264.85 322.483 262.89C323.753 260.929 324.733 258.265 323.864 255.987C323.692 255.455 323.409 254.966 323.036 254.551C322.662 254.136 322.205 253.804 321.694 253.577C321.183 253.351 320.631 253.234 320.072 253.235C319.513 253.237 318.961 253.356 318.452 253.585C315.414 255.048 314.476 261.054 314.89 264.022C314.89 264.187 315.318 265.803 315.635 266.976C315.318 266.355 314.973 265.706 314.683 265.099C313.578 262.807 312.708 260.639 311.921 258.707C311.494 257.616 311.135 256.608 310.803 255.669C311.397 254.648 313.689 250.464 313.91 248.186C314.13 245.908 313.785 243.037 312.032 241.435C311.632 241.045 311.155 240.742 310.631 240.547C310.108 240.352 309.549 240.268 308.991 240.302C308.433 240.336 307.888 240.486 307.392 240.743C306.896 241 306.459 241.358 306.109 241.794C304.107 244.555 306.026 250.257 307.766 252.701C307.904 252.922 310.638 255.959 310.679 255.904C310.983 256.815 311.3 257.782 311.687 258.845C312.405 260.791 313.233 262.986 314.296 265.306C315.41 267.82 316.669 270.268 318.065 272.637C319.624 275.299 321.417 277.817 323.422 280.161L323.505 280.244C322.663 279.733 320.26 278.366 320.067 278.283C317.306 277.096 311.273 276.42 309.022 278.96C308.664 279.391 308.402 279.893 308.251 280.432C308.101 280.972 308.066 281.537 308.15 282.091C308.233 282.645 308.433 283.176 308.735 283.647C309.038 284.119 309.437 284.521 309.906 284.827C311.839 286.208 314.752 285.918 316.892 285.242C319.308 284.482 323.38 280.81 323.712 280.506C325.805 282.847 328.056 285.043 330.449 287.078C331.83 288.265 333.21 289.425 334.715 290.571L333.21 289.728C330.449 288.541 324.416 287.878 322.165 290.419C321.808 290.849 321.545 291.349 321.395 291.888C321.245 292.427 321.21 292.991 321.294 293.544C321.377 294.097 321.577 294.626 321.879 295.096C322.182 295.566 322.581 295.967 323.049 296.272C324.982 297.653 327.895 297.377 330.035 296.7C332.175 296.024 335.75 292.945 336.675 292.117L338.346 293.428C341.107 295.485 343.758 297.57 346.353 299.641C347.265 300.373 348.134 301.132 349.004 301.891C348.355 301.519 347.789 301.201 347.706 301.174C344.945 299.986 338.912 299.31 336.662 301.85C336.306 302.28 336.044 302.78 335.894 303.318C335.744 303.855 335.709 304.419 335.791 304.971C335.873 305.523 336.07 306.052 336.37 306.523C336.67 306.994 337.066 307.396 337.531 307.704C339.478 309.084 342.391 308.808 344.531 308.132C346.671 307.455 349.888 304.68 350.992 303.7C351.876 304.501 352.746 305.315 353.56 306.13C354.099 306.696 354.651 307.207 355.162 307.814L356.708 309.554C357.647 310.7 358.627 311.873 359.469 313.005C360.09 313.792 360.67 314.551 361.25 315.325C360.353 314.579 358.558 313.157 358.392 313.047C355.852 311.459 349.984 309.885 347.416 312.053C347.002 312.428 346.67 312.886 346.444 313.397C346.217 313.908 346.1 314.462 346.1 315.021C346.1 315.58 346.217 316.133 346.444 316.645C346.67 317.156 347.002 317.614 347.416 317.989C349.115 319.632 352.041 319.812 354.319 319.466C356.763 319.08 361.222 316.208 361.719 315.835C362.686 317.106 363.611 318.362 364.481 319.549C367.463 323.691 369.782 327.198 371.384 329.683L371.549 329.945L373.606 328.937C373.496 328.785 373.399 328.62 373.275 328.454C371.618 325.969 369.202 322.448 366.11 318.362C365.129 317.064 364.066 315.697 362.948 314.317C364.094 313.061 365.163 311.738 366.151 310.354C368.736 311.038 371.402 311.363 374.076 311.321C374.172 312.909 374.269 314.455 374.324 315.918C374.531 320.999 374.517 325.223 374.462 328.178V328.523L376.726 327.432C376.726 324.492 376.616 320.529 376.312 315.822C376.216 314.206 376.078 312.481 375.912 310.713C376.547 310.548 381.669 309.236 383.602 307.69C385.535 306.144 387.191 304.018 387.136 301.643C387.139 301.084 387.024 300.53 386.799 300.018C386.574 299.505 386.244 299.046 385.83 298.67C385.416 298.294 384.927 298.009 384.396 297.834C383.865 297.658 383.302 297.597 382.746 297.653C379.419 298.081 376.616 303.465 376.064 306.42C376.064 306.599 375.898 308.518 375.829 309.747C375.76 309.015 375.691 308.366 375.622 307.579C375.47 306.102 375.277 304.639 375.084 303.065L374.711 300.773C374.6 300 374.379 299.199 374.228 298.412C373.827 296.59 373.316 294.754 372.847 292.89C374.131 292.752 378.701 292.213 380.661 291.095C382.622 289.977 384.803 288.003 385.065 285.656C385.155 285.103 385.128 284.538 384.984 283.997C384.841 283.456 384.585 282.951 384.233 282.516C383.881 282.081 383.441 281.725 382.942 281.471C382.444 281.218 381.897 281.072 381.338 281.045C377.969 280.962 374.435 285.863 373.399 288.693C373.399 288.872 372.861 290.985 372.612 292.158C372.281 291.054 371.95 289.949 371.577 288.845C370.486 285.67 369.299 282.48 368.112 279.291C367.753 278.325 367.407 277.345 367.048 276.364C367.504 276.364 372.957 275.798 375.139 274.542C377.085 273.424 379.281 271.463 379.557 269.102C379.644 268.55 379.615 267.986 379.471 267.446C379.327 266.906 379.071 266.402 378.719 265.967C378.368 265.532 377.929 265.176 377.431 264.922C376.933 264.668 376.387 264.521 375.829 264.491C372.46 264.408 368.926 269.309 367.891 272.14C367.808 272.361 367.118 275.412 366.979 276.185C366.206 274.045 365.461 271.891 364.798 269.737C363.896 266.841 363.181 263.89 362.658 260.902C362.879 260.902 368.553 260.363 370.804 259.066C372.75 257.947 374.945 255.987 375.208 253.626C375.298 253.074 375.27 252.508 375.127 251.967C374.984 251.426 374.728 250.922 374.376 250.486C374.024 250.051 373.584 249.695 373.085 249.441C372.586 249.188 372.039 249.042 371.48 249.015C368.125 248.932 364.577 253.833 363.542 256.677C363.542 256.857 362.962 259.176 362.727 260.28H362.534C362.102 257.254 361.931 254.196 362.023 251.141C362.023 249.47 362.189 247.855 362.354 246.295C363.418 246.295 368.305 246.295 370.445 245.37C372.585 244.445 374.876 242.761 375.429 240.455C375.575 239.915 375.607 239.351 375.522 238.798C375.437 238.246 375.237 237.717 374.936 237.246C374.634 236.775 374.237 236.373 373.77 236.065C373.303 235.757 372.777 235.55 372.226 235.457C368.898 235.002 364.798 239.489 363.5 242.195C363.431 242.347 362.879 243.92 362.493 245.08C362.575 244.376 362.644 243.7 362.741 242.982C363.086 240.455 363.556 238.163 363.984 236.148C364.232 234.988 364.494 233.953 364.729 233C365.792 232.462 370.003 230.239 371.453 228.458C372.902 226.677 374.214 224.095 373.606 221.79C373.493 221.253 373.27 220.745 372.952 220.298C372.634 219.851 372.227 219.475 371.756 219.192C371.286 218.91 370.763 218.728 370.219 218.657C369.675 218.586 369.122 218.628 368.595 218.78Z" fill="white"/>
<path d="M307.752 270.662C310.389 270.552 315.649 267.901 315.649 267.901C315.649 267.901 312.819 264.988 312.612 264.822C310.265 262.945 304.618 260.681 301.816 262.572C301.359 262.894 300.975 263.308 300.69 263.789C300.404 264.269 300.223 264.804 300.157 265.359C300.092 265.914 300.145 266.476 300.312 267.009C300.479 267.542 300.756 268.035 301.126 268.453C302.603 270.234 305.516 270.745 307.752 270.662Z" fill="white"/>
</g>
<path d="M338.498 336.518C338.498 336.518 354.444 298.041 363.349 299.711C372.254 301.382 348.038 361.051 348.038 361.051C348.038 361.051 376.119 308.077 395.268 308.077C414.417 308.077 388.241 366.628 363.998 386.136C363.998 386.136 402.282 344.884 424.62 353.803C446.957 362.721 379.916 404.539 379.916 404.539C379.916 404.539 418.849 392.266 414.431 401.778C410.013 411.29 397.864 412.92 397.864 412.92L441.891 415.156H288.687L323.201 411.815C323.201 411.815 287.416 393.936 296.984 386.688C306.551 379.44 327.619 395.055 327.619 395.055C327.619 395.055 291.241 354.907 298.254 339.831C305.267 324.755 336.552 367.153 336.552 367.153C336.552 367.153 311.024 313.075 316.133 303.646C321.241 294.216 338.498 336.518 338.498 336.518Z" fill="#7150FF"/>
<path opacity="0.4" d="M338.498 336.518C338.498 336.518 354.444 298.041 363.349 299.711C372.254 301.382 348.038 361.051 348.038 361.051C348.038 361.051 376.119 308.077 395.268 308.077C414.417 308.077 388.241 366.628 363.998 386.136C363.998 386.136 402.282 344.884 424.62 353.803C446.957 362.721 379.916 404.539 379.916 404.539C379.916 404.539 418.849 392.266 414.431 401.778C410.013 411.29 397.864 412.92 397.864 412.92L441.891 415.156H288.687L323.201 411.815C323.201 411.815 287.416 393.936 296.984 386.688C306.551 379.44 327.619 395.055 327.619 395.055C327.619 395.055 291.241 354.907 298.254 339.831C305.267 324.755 336.552 367.153 336.552 367.153C336.552 367.153 311.024 313.075 316.133 303.646C321.241 294.216 338.498 336.518 338.498 336.518Z" fill="white"/>
<path d="M333.362 338.617C347.403 380.035 347.403 409.455 347.403 409.455C347.403 409.455 330.836 410.09 313.579 397.334" stroke="#263238" stroke-linecap="round" stroke-linejoin="round"/>
<path d="M340.376 360.884C343.265 348.481 347.106 336.319 351.863 324.506" stroke="#263238" stroke-linecap="round" stroke-linejoin="round"/>
<path d="M381.862 336.627L346.119 389.6C346.119 389.6 321.931 369.181 313.647 357.681" stroke="#263238" stroke-linecap="round" stroke-linejoin="round"/>
<path d="M346.782 402.359C346.782 402.359 384.444 384.494 399.755 374.277" stroke="#263238" stroke-linecap="round" stroke-linejoin="round"/>
<path d="M95.5839 258.791V282.717C95.5839 282.717 99.4081 319.206 105.593 354.273L71.6582 425.374L79.4723 425.843C79.4723 425.843 131.797 361.176 133.633 354.273C135.469 347.37 132.404 295.142 132.404 295.142L185.778 327.352L208.792 408.351L216.62 405.134C216.62 405.134 208.64 318.391 206.956 316.307C181.346 284.733 145.285 263.844 145.285 263.844L137.927 250.508L95.5839 258.791Z" fill="#263238" stroke="#263238" stroke-linecap="round" stroke-linejoin="round"/>
<path d="M133.315 296.33L136.67 278.658" stroke="white" stroke-width="0.5" stroke-linecap="round" stroke-linejoin="round"/>
<path d="M134.227 292.672L142.151 275" stroke="white" stroke-width="0.5" stroke-linecap="round" stroke-linejoin="round"/>
<path d="M159.864 182.487C159.864 182.487 158 192.676 160.692 195.009C163.385 197.342 172.952 198.833 174.043 194.194C175.133 189.555 166.132 143.527 165.041 138.888C163.951 134.249 160.692 136.983 159.602 138.349C158.511 139.716 159.864 182.487 159.864 182.487Z" fill="white" stroke="#263238" stroke-linecap="round" stroke-linejoin="round"/>
<path d="M112.331 165.602C112.331 165.602 82.3993 177.668 73.1493 181.782C63.8994 185.896 68.8143 195.133 70.1949 198.349C71.5755 201.566 93.7754 259.095 94.3276 260.131C94.8798 261.166 98.4694 263.665 103.605 263.651C108.741 263.638 138.727 256.21 139.804 252.607C140.881 249.003 138.962 243.343 138.962 243.343L123.306 195.436C123.306 195.436 161.466 197.507 163.343 197.231C165.221 196.955 170.136 190.949 164.393 185.248C158.649 179.546 122.671 169.826 120.766 168.197C118.861 166.568 115.603 164.497 112.331 165.602Z" fill="white" stroke="#263238" stroke-linecap="round" stroke-linejoin="round"/>
<path d="M95.7359 184.515L103.633 191.625L113.117 244.57L123.389 251.681L125.363 236.273L106.035 190.437V182.154C106.035 180.18 106.822 175.43 101.686 173.07C96.5504 170.709 89.4127 174.243 95.7359 184.515Z" fill="#263238"/>
<path d="M159.022 176.48C159.022 176.48 154.121 176.48 152.492 186.572C150.863 196.664 153.307 198.556 156.026 199.094C158.746 199.632 165.014 201.855 168.286 198.556C171.558 195.256 171.834 187.925 169.929 182.209C169.595 181.113 169.047 180.094 168.317 179.211C167.586 178.327 166.688 177.598 165.673 177.065C164.658 176.532 163.548 176.206 162.406 176.106C161.265 176.005 160.114 176.132 159.022 176.48Z" fill="white" stroke="#263238" stroke-linecap="round" stroke-linejoin="round"/>
<path d="M101.562 165.863L113.822 181.119L105.386 176.48L102.377 184.391L101.562 165.863Z" fill="white" stroke="#263238" stroke-linecap="round" stroke-linejoin="round"/>
<path d="M103.743 157.69L102.114 185.482L90.3926 172.946L87.6729 155.785L103.743 157.69Z" fill="white" stroke="#263238" stroke-linecap="round" stroke-linejoin="round"/>
<path d="M86.0301 165.588L100.084 178.579L96.5226 190.038L83.5864 175.128L86.0301 165.588Z" fill="white" stroke="#263238" stroke-linecap="round" stroke-linejoin="round"/>
<path d="M212.161 251.461C193.314 251.529 174.878 245.951 159.229 235.447C149.441 229.004 141.103 220.593 134.744 210.75C128.386 200.907 124.147 189.848 122.298 178.276C114.843 130.77 149.689 85.7076 200.081 77.6863L246.676 68.7539L251.522 103.393L206.266 111.525L205.769 111.621C174.015 116.578 151.926 144.079 156.454 172.947C160.983 201.815 190.362 221.144 221.977 216.339L269.47 207.296L275.931 241.066L228.052 250.164L227.5 250.26C222.425 251.055 217.297 251.457 212.161 251.461Z" fill="#263238" stroke="#263238" stroke-linecap="round" stroke-linejoin="round"/>
<path d="M211.098 247.747C192.25 247.814 173.814 242.236 158.166 231.732C148.378 225.289 140.039 216.878 133.681 207.035C127.322 197.192 123.084 186.133 121.235 174.561C113.752 127.055 148.626 81.9789 199.017 73.9715L245.612 65.0391L250.389 99.6781L205.133 107.81C204.97 107.851 204.804 107.879 204.636 107.893C172.883 112.849 150.793 140.364 155.335 169.232C159.878 198.1 189.229 217.429 220.858 212.624L268.461 203.581L274.991 237.351L227.085 246.449L226.533 246.545C221.426 247.345 216.266 247.747 211.098 247.747Z" fill="#7150FF" stroke="#263238" stroke-linecap="round" stroke-linejoin="round"/>
<path d="M203.809 243.357C188.311 242.186 173.382 237.01 160.486 228.336C151.749 222.489 144.194 215.046 138.217 206.398" fill="#7150FF"/>
<path d="M203.809 243.357C188.311 242.186 173.382 237.01 160.486 228.336C151.749 222.489 144.194 215.046 138.217 206.398" stroke="#263238" stroke-linecap="round" stroke-linejoin="round"/>
<path d="M215.405 243.494C214.025 243.494 212.533 243.605 211.098 243.605L215.405 243.494Z" fill="#7150FF"/>
<path d="M215.405 243.494C214.025 243.494 212.533 243.605 211.098 243.605" stroke="#263238" stroke-linecap="round" stroke-linejoin="round"/>
<path d="M182.768 110.889C174.357 115.323 167.06 121.606 161.424 129.264C157.124 135.021 154.009 141.575 152.26 148.545C150.511 155.514 150.163 162.762 151.236 169.868C153.997 187.125 164.821 201.414 180.021 209.698" stroke="#263238" stroke-linecap="round" stroke-linejoin="round"/>
<path d="M135.676 120.897C142.54 109.497 151.833 99.7517 162.894 92.3541C173.954 84.9566 186.51 80.0891 199.667 78.0985L242.106 69.9668L245.737 96.3361L203.988 103.833C200.268 104.424 196.602 105.315 193.026 106.497" stroke="#263238" stroke-linecap="round" stroke-linejoin="round"/>
<path d="M130.333 131.653C131.162 129.638 132.082 127.659 133.095 125.717" stroke="#263238" stroke-linecap="round" stroke-linejoin="round"/>
<path d="M214.549 106.125L250.39 99.6781L245.613 65.0391L209.207 72.0249L214.549 106.125Z" fill="white" stroke="#263238" stroke-linecap="round" stroke-linejoin="round"/>
<path d="M274.922 237.351L268.461 203.582L230.909 210.706L236.224 244.696L274.922 237.351Z" fill="white" stroke="#263238" stroke-linecap="round" stroke-linejoin="round"/>
<path d="M104.999 235.542C104.999 235.542 155.322 238.441 157.807 238.027C160.292 237.613 168.078 229.288 170.039 228.363C171.999 227.438 175.948 230.309 178.322 231.248C180.697 232.187 182.699 230.931 182.878 232.85C183.058 234.769 181.65 235.514 178.93 235.376C176.21 235.238 174.581 234.865 173.228 234.796C171.875 234.727 176.072 237.682 179.717 241.147C183.361 244.612 186.288 245.855 185.391 247.443C184.494 249.03 182.326 248.644 181.014 247.443C179.703 246.241 175.906 246.062 172.91 245.924C169.915 245.786 164.862 243.328 164.862 243.328C157.867 244.977 150.788 246.245 143.656 247.125C128.262 249.32 106.545 252.551 100.567 251.957C94.5895 251.363 90.6548 243.259 90.6548 243.259L104.999 235.542Z" fill="white" stroke="#263238" stroke-linecap="round" stroke-linejoin="round"/>
<path d="M73.1492 181.783C73.1492 181.783 65.059 184.931 62.8776 189.57C60.6963 194.209 63.1538 201.829 66.4119 207.821C69.6701 213.813 89.5783 245.097 89.5783 245.097L101.562 234.204C101.562 234.204 90.6689 199.883 89.3021 196.928" fill="white"/>
<path d="M73.1492 181.783C73.1492 181.783 65.059 184.931 62.8776 189.57C60.6963 194.209 63.1538 201.829 66.4119 207.821C69.6701 213.813 89.5783 245.097 89.5783 245.097L101.562 234.204C101.562 234.204 90.6689 199.883 89.3021 196.928" stroke="#263238" stroke-linecap="round" stroke-linejoin="round"/>
<path d="M76.1865 193.102C77.7657 192.986 79.352 193.192 80.8493 193.707C82.3467 194.222 83.724 195.035 84.898 196.097" stroke="#263238" stroke-linecap="round" stroke-linejoin="round"/>
<path d="M87.9355 190.658C87.9355 190.658 92.0773 191.473 93.4579 200.46" stroke="#263238" stroke-linecap="round" stroke-linejoin="round"/>
<path d="M98.842 225.256C98.842 225.256 90.3927 229.066 85.7678 234.243C81.1428 239.42 81.626 241.05 84.6771 244.322C87.7282 247.594 89.5782 249.223 91.4834 247.87C93.3886 246.517 106.201 238.054 107.015 235.872C107.83 233.691 105.11 225.532 103.205 224.703C101.734 224.307 100.167 224.506 98.842 225.256Z" fill="white" stroke="#263238" stroke-linecap="round" stroke-linejoin="round"/>
<path d="M165.041 138.886C165.041 138.886 173.49 130.989 174.581 127.165C175.672 123.341 173.2 117.363 172.4 117.087C171.599 116.811 170.77 118.467 170.77 120.635C170.77 120.635 168.313 117.639 168.009 119.82C167.853 121.085 167.766 122.357 167.747 123.631C167.747 123.631 165.29 120.87 164.751 122.816C164.618 123.409 164.649 124.027 164.842 124.604C165.034 125.18 165.38 125.694 165.842 126.088C165.842 126.088 162.294 123.327 162.294 125.26C162.416 126.594 162.991 127.846 163.923 128.808C163.923 128.808 159.298 135.076 159.574 138.348C159.547 139.175 159.846 139.98 160.407 140.589C160.967 141.198 161.743 141.563 162.57 141.606" fill="white"/>
<path d="M165.041 138.886C165.041 138.886 173.49 130.989 174.581 127.165C175.672 123.341 173.2 117.363 172.4 117.087C171.599 116.811 170.77 118.467 170.77 120.635C170.77 120.635 168.313 117.639 168.009 119.82C167.853 121.085 167.766 122.357 167.747 123.631C167.747 123.631 165.29 120.87 164.751 122.816C164.618 123.409 164.649 124.027 164.842 124.604C165.034 125.18 165.38 125.694 165.842 126.088C165.842 126.088 162.294 123.327 162.294 125.26C162.416 126.594 162.991 127.846 163.923 128.808C163.923 128.808 159.298 135.076 159.574 138.348C159.547 139.175 159.846 139.98 160.407 140.589C160.967 141.198 161.743 141.563 162.57 141.606" stroke="#263238" stroke-linecap="round" stroke-linejoin="round"/>
<path d="M165.925 126.088C165.925 126.088 167.83 127.993 167.554 129.622" stroke="#263238" stroke-linecap="round" stroke-linejoin="round"/>
<path d="M167.775 123.631C167.775 123.631 169.956 126.627 169.956 128.532" stroke="#263238" stroke-linecap="round" stroke-linejoin="round"/>
<path d="M170.771 120.635C171.987 122.316 172.739 124.287 172.952 126.35" stroke="#263238" stroke-linecap="round" stroke-linejoin="round"/>
<path d="M79.4724 425.842C79.4724 425.842 90.5171 436.418 93.7477 439.648C96.9783 442.879 101.106 444.701 97.8895 444.701C94.6727 444.701 87.7559 445.626 81.3224 443.79C74.8888 441.954 69.8083 436.418 67.5165 433.657C65.2247 430.895 71.6583 425.373 71.6583 425.373L79.4724 425.842Z" fill="white" stroke="#263238" stroke-linecap="round" stroke-linejoin="round"/>
<path d="M96.6471 442.162C90.8064 442.909 84.8742 442.439 79.224 440.781C74.9166 439.4 69.7808 432.498 67.8342 429.736C67.0196 431.117 66.6469 432.498 67.5166 433.588C69.8084 436.349 74.8752 441.872 81.3226 443.722C87.7699 445.572 94.6591 444.633 97.8896 444.633C100.154 444.702 98.7732 443.791 96.6471 442.162Z" fill="white" stroke="#263238" stroke-linecap="round" stroke-linejoin="round"/>
<path d="M216.62 405.133C216.62 405.133 241.471 415.708 243.307 416.178C245.143 416.647 245.516 419.574 236.943 419.574C233.256 419.574 219.368 420.485 216.151 420.485C212.934 420.485 209.248 420.775 208.337 418.939C207.425 417.103 208.792 408.35 208.792 408.35L216.62 405.133Z" fill="white" stroke="#263238" stroke-linecap="round" stroke-linejoin="round"/>
<path d="M243.307 416.178H243.238C232.552 417.752 213.334 417.489 208.047 417.379C208.042 417.922 208.14 418.461 208.336 418.967C209.248 420.803 212.92 420.513 216.151 420.513C219.381 420.513 233.256 419.602 236.942 419.602C245.516 419.574 245.143 416.633 243.307 416.178Z" fill="white" stroke="#263238" stroke-linecap="round" stroke-linejoin="round"/>
<path d="M100.085 178.578L102.114 185.481L98.1104 184.114L100.085 178.578Z" fill="white" stroke="#263238" stroke-linecap="round" stroke-linejoin="round"/>
<path d="M103.205 119.546C103.205 119.546 101.562 114.645 94.7554 114.093C87.9491 113.54 75.6756 123.356 74.585 130.177C73.4943 136.997 83.5864 155.234 86.5823 157.954C89.5782 160.674 114.912 159.873 115.727 156.325C116.541 152.777 108.644 129.9 103.205 119.546Z" fill="white" stroke="#263238" stroke-linecap="round" stroke-linejoin="round"/>
<path d="M102.653 136.168C102.653 136.168 105.414 139.702 107.016 139.978C108.617 140.255 111.157 139.702 109.777 141.359C108.396 143.016 103.785 144.12 103.785 144.12" stroke="#263238" stroke-linecap="round" stroke-linejoin="round"/>
<path d="M103.798 148.689C103.798 148.689 97.8067 150.07 95.0869 145.693" stroke="#263238" stroke-linecap="round" stroke-linejoin="round"/>
<path d="M96.122 144.602L93.6646 146.783" stroke="#263238" stroke-linecap="round" stroke-linejoin="round"/>
<path d="M95.0317 138.887C96.0668 138.076 97.2771 137.518 98.5661 137.258" stroke="#263238" stroke-linecap="round" stroke-linejoin="round"/>
<path d="M90.9453 134.524C90.9453 134.524 92.5744 132.08 97.7516 133.143" stroke="#263238" stroke-linecap="round" stroke-linejoin="round"/>
<path d="M99.6567 130.148C99.6567 130.148 99.3806 126.006 103.205 126.324" stroke="#263238" stroke-linecap="round" stroke-linejoin="round"/>
<path d="M106.394 133.917C106.836 134.883 106.85 135.808 106.394 136.001C105.938 136.195 105.303 135.546 104.862 134.621C104.42 133.696 104.42 132.729 104.862 132.55C105.303 132.37 105.966 132.909 106.394 133.917Z" fill="#263238"/>
<path d="M81.4053 146.244C81.4053 146.244 85.5471 145.153 85.5471 142.972C85.5471 140.791 83.9042 140.211 84.4565 138.609C85.0087 137.008 88.8191 134.799 87.7284 132.342C86.6378 129.884 81.1844 129.898 81.7367 127.993C82.2889 126.087 100.527 121.449 101.893 115.733C103.26 110.017 97.2545 102.921 92.6296 103.197C88.0046 103.473 90.4482 109.189 90.4482 109.189C90.4482 109.189 76.8218 105.047 74.102 110.28C71.3822 115.512 76.5595 117.914 76.5595 117.914C76.5595 117.914 67.0196 122.263 66.205 128.807C65.3905 135.351 76.8218 147.873 79.2792 148.688C81.7367 149.502 81.4053 146.244 81.4053 146.244Z" fill="#263238" stroke="#263238" stroke-linecap="round" stroke-linejoin="round"/>
<path d="M80.3285 128.49C80.3285 128.49 72.5144 133.888 71.4375 138.154" stroke="white" stroke-width="0.5" stroke-linecap="round" stroke-linejoin="round"/>
<path d="M86.3203 131.184C86.3203 131.184 76.6562 135.505 73.6465 141.704" stroke="white" stroke-width="0.5" stroke-linecap="round" stroke-linejoin="round"/>
<path d="M83.5863 147.873C83.5863 147.873 81.9434 144.062 78.9476 144.339C75.9517 144.615 76.7662 148.964 79.7621 152.512C82.758 156.06 86.3061 153.602 86.5822 152.788" fill="white"/>
<path d="M83.5863 147.873C83.5863 147.873 81.9434 144.062 78.9476 144.339C75.9517 144.615 76.7662 148.964 79.7621 152.512C82.758 156.06 86.3061 153.602 86.5822 152.788" stroke="#263238" stroke-linecap="round" stroke-linejoin="round"/>
<path d="M361.113 133.447H323.919V157.898H361.113V133.447Z" fill="white" stroke="#263238" stroke-linecap="round" stroke-linejoin="round"/>
<path d="M323.919 133.447L342.516 145.666L361.113 133.447" stroke="#263238" stroke-linecap="round" stroke-linejoin="round"/>
<path d="M440.014 84.5779L403.983 75.3535L397.919 99.0399L433.95 108.264L440.014 84.5779Z" fill="white" stroke="#263238" stroke-linecap="round" stroke-linejoin="round"/>
<path d="M403.966 75.3789L418.946 91.8356L440 84.6012" stroke="#263238" stroke-linecap="round" stroke-linejoin="round"/>
<path d="M418.868 209.748L382.837 200.523L376.773 224.21L412.804 233.434L418.868 209.748Z" fill="white" stroke="#263238" stroke-linecap="round" stroke-linejoin="round"/>
<path d="M382.788 200.557L397.781 217.013L418.822 209.779" stroke="#263238" stroke-linecap="round" stroke-linejoin="round"/>
<path d="M458.475 126.099L422.444 116.875L416.38 140.561L452.411 149.786L458.475 126.099Z" fill="white" stroke="#263238" stroke-linecap="round" stroke-linejoin="round"/>
<path d="M422.425 116.906L437.404 133.363L458.458 126.142" stroke="#263238" stroke-linecap="round" stroke-linejoin="round"/>
<path d="M424.595 168.395L400.788 139.82L382.003 155.471L405.811 184.046L424.595 168.395Z" fill="white" stroke="#263238" stroke-linecap="round" stroke-linejoin="round"/>
<path d="M400.791 139.811L403.304 161.928L424.606 168.389" stroke="#263238" stroke-linecap="round" stroke-linejoin="round"/>
<path d="M471.527 80.03L447.72 51.4551L428.935 67.1059L452.743 95.6808L471.527 80.03Z" fill="white" stroke="#263238" stroke-linecap="round" stroke-linejoin="round"/>
<path d="M447.731 51.4531L450.244 73.5702L471.546 80.0314" stroke="#263238" stroke-linecap="round" stroke-linejoin="round"/>
<path d="M450.549 161.759L420.795 183.703L435.221 203.263L464.975 181.319L450.549 161.759Z" fill="white" stroke="#263238" stroke-width="0.994032" stroke-linecap="round" stroke-linejoin="round"/>
<path d="M424.344 183.368L446.557 182.181L454.289 161.307" stroke="#263238" stroke-linecap="round" stroke-linejoin="round"/>
<path d="M271.029 53.3301H233.836V77.7804H271.029V53.3301Z" fill="white" stroke="#263238" stroke-linecap="round" stroke-linejoin="round"/>
<path d="M233.836 53.3301L252.433 65.5483L271.029 53.3301" stroke="#263238" stroke-linecap="round" stroke-linejoin="round"/>
<path d="M306.919 72.1823L279.985 46.5332L263.123 64.2394L290.058 89.8885L306.919 72.1823Z" fill="white" stroke="#263238" stroke-linecap="round" stroke-linejoin="round"/>
<path d="M279.961 46.5391L285.001 68.2143L306.897 72.1905" stroke="#263238" stroke-linecap="round" stroke-linejoin="round"/>
<path d="M404.006 36.2793L370.33 52.0684L380.71 74.2062L414.385 58.4171L404.006 36.2793Z" fill="white" stroke="#263238" stroke-linecap="round" stroke-linejoin="round"/>
<path d="M370.335 52.1024L392.356 55.2778L404.008 36.3223" stroke="#263238" stroke-linecap="round" stroke-linejoin="round"/>
<path d="M343.888 86.238L352.873 50.1465L329.147 44.2397L320.162 80.3312L343.888 86.238Z" fill="white" stroke="#263238" stroke-linecap="round" stroke-linejoin="round"/>
<path d="M352.884 50.1543L336.524 65.2442L343.897 86.243" stroke="#263238" stroke-linecap="round" stroke-linejoin="round"/>
<path d="M262.697 185.822L232.171 207.07L246.139 227.138L276.665 205.89L262.697 185.822Z" fill="white" stroke="#263238" stroke-linecap="round" stroke-linejoin="round"/>
<path d="M232.179 207.046L254.421 206.452L262.704 185.799" stroke="#263238" stroke-linecap="round" stroke-linejoin="round"/>
<path d="M307.847 190.767L277.349 211.967L291.285 232.016L321.784 210.816L307.847 190.767Z" fill="white" stroke="#263238" stroke-width="0.998649" stroke-linecap="round" stroke-linejoin="round"/>
<path d="M278.042 211.698L300.284 211.105L308.567 190.451" stroke="#263238" stroke-linecap="round" stroke-linejoin="round"/>
<path d="M274.902 86.8018L241.819 69.8066L230.646 91.5551L263.73 108.55L274.902 86.8018Z" fill="white" stroke="#263238" stroke-linecap="round" stroke-linejoin="round"/>
<path d="M241.83 69.8027L252.791 89.1725L274.909 86.7978" stroke="#263238" stroke-linecap="round" stroke-linejoin="round"/>
<path d="M289.542 228.372L256.458 211.377L245.286 233.125L278.369 250.121L289.542 228.372Z" fill="white" stroke="#263238" stroke-linecap="round" stroke-linejoin="round"/>
<path d="M256.45 211.367L267.412 230.751L289.543 228.376" stroke="#263238" stroke-linecap="round" stroke-linejoin="round"/>
</svg>
