<svg width="49" height="49" viewBox="0 0 49 49" fill="none" xmlns="http://www.w3.org/2000/svg">
<g filter="url(#filter0_b_75_3709)">
<circle cx="24.5" cy="24.5" r="24.5" fill="white" fill-opacity="0.63"/>
<circle cx="24.5" cy="24.5" r="24" stroke="#4F5155" stroke-opacity="0.35"/>
</g>
<path d="M29.888 14.9268V13.1573C29.888 12.6923 29.5023 12.3066 29.0373 12.3066C28.5722 12.3066 28.1866 12.6923 28.1866 13.1573V14.8587H20.8139V13.1573C20.8139 12.6923 20.4282 12.3066 19.9632 12.3066C19.4981 12.3066 19.1125 12.6923 19.1125 13.1573V14.9268C16.05 15.2103 14.5641 17.0365 14.3373 19.7474C14.3146 20.0763 14.5868 20.3485 14.9044 20.3485H34.0961C34.425 20.3485 34.6972 20.065 34.6632 19.7474C34.4363 17.0365 32.9505 15.2103 29.888 14.9268Z" fill="#7150FF"/>
<path opacity="0.4" d="M33.5744 22.0498C34.1982 22.0498 34.7087 22.5602 34.7087 23.1841V30.1711C34.7087 33.5739 33.0073 35.8424 29.0374 35.8424H19.9633C15.9934 35.8424 14.292 33.5739 14.292 30.1711V23.1841C14.292 22.5602 14.8024 22.0498 15.4263 22.0498H33.5744Z" fill="#7150FF"/>
<path d="M20.5298 27.903C20.2349 27.903 19.94 27.7782 19.7244 27.5741C19.5203 27.3586 19.3955 27.0637 19.3955 26.7687C19.3955 26.4738 19.5203 26.1789 19.7244 25.9634C20.042 25.6458 20.5411 25.5437 20.9608 25.7252C21.1082 25.7819 21.233 25.8614 21.3351 25.9634C21.5393 26.1789 21.664 26.4738 21.664 26.7687C21.664 27.0637 21.5393 27.3586 21.3351 27.5741C21.1196 27.7782 20.8247 27.903 20.5298 27.903Z" fill="#7150FF"/>
<path d="M24.4995 27.903C24.2046 27.903 23.9097 27.7782 23.6942 27.5741C23.49 27.3586 23.3652 27.0637 23.3652 26.7687C23.3652 26.4738 23.49 26.1789 23.6942 25.9634C23.7963 25.8614 23.921 25.7819 24.0685 25.7252C24.4881 25.5437 24.9872 25.6458 25.3048 25.9634C25.509 26.1789 25.6338 26.4738 25.6338 26.7687C25.6338 27.0637 25.509 27.3586 25.3048 27.5741C25.2481 27.6194 25.1914 27.6648 25.1347 27.7102C25.0666 27.7555 24.9986 27.7896 24.9305 27.8123C24.8625 27.8463 24.7944 27.869 24.7263 27.8803C24.6469 27.8917 24.5789 27.903 24.4995 27.903Z" fill="#7150FF"/>
<path d="M28.4702 27.9023C28.1753 27.9023 27.8804 27.7775 27.6649 27.5734C27.4607 27.3579 27.3359 27.063 27.3359 26.7681C27.3359 26.4732 27.4607 26.1783 27.6649 25.9627C27.7783 25.8607 27.8917 25.7812 28.0392 25.7245C28.2433 25.6338 28.4702 25.6111 28.697 25.6565C28.7651 25.6678 28.8332 25.6905 28.9012 25.7245C28.9693 25.7472 29.0373 25.7813 29.1054 25.8266C29.1621 25.872 29.2188 25.9174 29.2755 25.9627C29.4797 26.1783 29.6045 26.4732 29.6045 26.7681C29.6045 27.063 29.4797 27.3579 29.2755 27.5734C29.2188 27.6187 29.1621 27.6641 29.1054 27.7095C29.0373 27.7549 28.9693 27.7889 28.9012 27.8116C28.8332 27.8456 28.7651 27.8683 28.697 27.8796C28.6177 27.891 28.5383 27.9023 28.4702 27.9023Z" fill="#7150FF"/>
<path d="M20.5298 31.872C20.3823 31.872 20.2349 31.838 20.0987 31.7813C19.9513 31.7246 19.8379 31.6452 19.7244 31.5431C19.5203 31.3276 19.3955 31.0327 19.3955 30.7378C19.3955 30.4429 19.5203 30.148 19.7244 29.9325C19.8379 29.8304 19.9513 29.751 20.0987 29.6943C20.3029 29.6035 20.5298 29.5808 20.7566 29.6262C20.8247 29.6375 20.8927 29.6602 20.9608 29.6943C21.0288 29.7169 21.0969 29.751 21.165 29.7964C21.2217 29.8417 21.2784 29.8871 21.3351 29.9325C21.5393 30.148 21.664 30.4429 21.664 30.7378C21.664 31.0327 21.5393 31.3276 21.3351 31.5431C21.2784 31.5885 21.2217 31.6452 21.165 31.6792C21.0969 31.7246 21.0288 31.7586 20.9608 31.7813C20.8927 31.8153 20.8247 31.838 20.7566 31.8494C20.6772 31.8607 20.6092 31.872 20.5298 31.872Z" fill="#7150FF"/>
<path d="M24.4995 31.8725C24.2046 31.8725 23.9097 31.7477 23.6942 31.5435C23.49 31.328 23.3652 31.0331 23.3652 30.7382C23.3652 30.4433 23.49 30.1484 23.6942 29.9329C24.1138 29.5132 24.8851 29.5132 25.3048 29.9329C25.509 30.1484 25.6338 30.4433 25.6338 30.7382C25.6338 31.0331 25.509 31.328 25.3048 31.5435C25.0893 31.7477 24.7944 31.8725 24.4995 31.8725Z" fill="#7150FF"/>
<path d="M28.4702 31.8725C28.1753 31.8725 27.8804 31.7477 27.6649 31.5435C27.4607 31.328 27.3359 31.0331 27.3359 30.7382C27.3359 30.4433 27.4607 30.1484 27.6649 29.9329C28.0845 29.5132 28.8558 29.5132 29.2755 29.9329C29.4797 30.1484 29.6045 30.4433 29.6045 30.7382C29.6045 31.0331 29.4797 31.328 29.2755 31.5435C29.06 31.7477 28.7651 31.8725 28.4702 31.8725Z" fill="#7150FF"/>
<defs>
<filter id="filter0_b_75_3709" x="-100" y="-100" width="249" height="249" filterUnits="userSpaceOnUse" color-interpolation-filters="sRGB">
<feFlood flood-opacity="0" result="BackgroundImageFix"/>
<feGaussianBlur in="BackgroundImageFix" stdDeviation="50"/>
<feComposite in2="SourceAlpha" operator="in" result="effect1_backgroundBlur_75_3709"/>
<feBlend mode="normal" in="SourceGraphic" in2="effect1_backgroundBlur_75_3709" result="shape"/>
</filter>
</defs>
</svg>
