<svg width="52" height="52" viewBox="0 0 52 52" fill="none" xmlns="http://www.w3.org/2000/svg">
<path d="M25.9997 4.33398C14.0613 4.33398 4.33301 14.0623 4.33301 26.0007C4.33301 37.939 14.0613 47.6673 25.9997 47.6673C37.938 47.6673 47.6663 37.939 47.6663 26.0007C47.6663 14.0623 37.938 4.33398 25.9997 4.33398ZM33.2797 30.984C33.908 31.6123 33.908 32.6523 33.2797 33.2807C32.9547 33.6057 32.543 33.7573 32.1313 33.7573C31.7197 33.7573 31.308 33.6057 30.983 33.2807L25.9997 28.2973L21.0163 33.2807C20.6913 33.6057 20.2797 33.7573 19.868 33.7573C19.4563 33.7573 19.0447 33.6057 18.7197 33.2807C18.0913 32.6523 18.0913 31.6123 18.7197 30.984L23.703 26.0007L18.7197 21.0173C18.0913 20.389 18.0913 19.349 18.7197 18.7207C19.348 18.0923 20.388 18.0923 21.0163 18.7207L25.9997 23.704L30.983 18.7207C31.6113 18.0923 32.6513 18.0923 33.2797 18.7207C33.908 19.349 33.908 20.389 33.2797 21.0173L28.2963 26.0007L33.2797 30.984Z" fill="#7150FF"/>
</svg>
