<svg width="50" height="50" viewBox="0 0 50 50" fill="none" xmlns="http://www.w3.org/2000/svg">
<g filter="url(#filter0_b_75_3699)">
<circle cx="25" cy="25" r="25" fill="white" fill-opacity="0.63"/>
<circle cx="25" cy="25" r="24.5" stroke="#4F5155" stroke-opacity="0.35"/>
</g>
<path d="M19.7913 16.3192H19.502V13.4257C19.502 12.9511 19.1085 12.5576 18.6339 12.5576C18.1594 12.5576 17.7659 12.9511 17.7659 13.4257V16.3192H17.4765C15.6362 16.3192 14.583 17.3724 14.583 19.2127V26.1572C14.583 27.9974 15.6362 29.0507 17.4765 29.0507H17.7659V36.5738C17.7659 37.0484 18.1594 37.4419 18.6339 37.4419C19.1085 37.4419 19.502 37.0484 19.502 36.5738V29.0507H19.7913C21.6316 29.0507 22.6849 27.9974 22.6849 26.1572V19.2127C22.6849 17.3724 21.6316 16.3192 19.7913 16.3192Z" fill="#7150FF"/>
<path d="M32.5228 20.9488H32.2334V13.4257C32.2334 12.9511 31.8399 12.5576 31.3654 12.5576C30.8908 12.5576 30.4973 12.9511 30.4973 13.4257V20.9488H30.208C28.3677 20.9488 27.3145 22.0021 27.3145 23.8423V30.7868C27.3145 32.6271 28.3677 33.6803 30.208 33.6803H30.4973V36.5738C30.4973 37.0484 30.8908 37.4419 31.3654 37.4419C31.8399 37.4419 32.2334 37.0484 32.2334 36.5738V33.6803H32.5228C34.3631 33.6803 35.4163 32.6271 35.4163 30.7868V23.8423C35.4163 22.0021 34.3631 20.9488 32.5228 20.9488Z" fill="#7150FF"/>
<defs>
<filter id="filter0_b_75_3699" x="-100" y="-100" width="250" height="250" filterUnits="userSpaceOnUse" color-interpolation-filters="sRGB">
<feFlood flood-opacity="0" result="BackgroundImageFix"/>
<feGaussianBlur in="BackgroundImageFix" stdDeviation="50"/>
<feComposite in2="SourceAlpha" operator="in" result="effect1_backgroundBlur_75_3699"/>
<feBlend mode="normal" in="SourceGraphic" in2="effect1_backgroundBlur_75_3699" result="shape"/>
</filter>
</defs>
</svg>
