<svg width="55" height="55" viewBox="0 0 55 55" fill="none" xmlns="http://www.w3.org/2000/svg">
<path d="M50.4168 50.416H4.5835C3.64391 50.416 2.86475 49.6368 2.86475 48.6973C2.86475 47.7577 3.64391 46.9785 4.5835 46.9785H50.4168C51.3564 46.9785 52.1356 47.7577 52.1356 48.6973C52.1356 49.6368 51.3564 50.416 50.4168 50.416Z" fill="#32A071"/>
<path d="M22.3438 9.16732V50.4173H32.6562V9.16732C32.6562 6.64648 31.625 4.58398 28.5312 4.58398H26.4688C23.375 4.58398 22.3438 6.64648 22.3438 9.16732Z" fill="#32A071"/>
<path opacity="0.4" d="M6.875 22.9173V50.4173H16.0417V22.9173C16.0417 20.3965 15.125 18.334 12.375 18.334H10.5417C7.79167 18.334 6.875 20.3965 6.875 22.9173Z" fill="#32A071"/>
<path opacity="0.4" d="M38.9585 34.3743V50.416H48.1252V34.3743C48.1252 31.8535 47.2085 29.791 44.4585 29.791H42.6252C39.8752 29.791 38.9585 31.8535 38.9585 34.3743Z" fill="#32A071"/>
</svg>
