<svg width="33" height="33" viewBox="0 0 33 33" fill="none" xmlns="http://www.w3.org/2000/svg">
<path opacity="0.4" d="M16.5 30.25C24.0939 30.25 30.25 24.0939 30.25 16.5C30.25 8.90608 24.0939 2.75 16.5 2.75C8.90608 2.75 2.75 8.90608 2.75 16.5C2.75 24.0939 8.90608 30.25 16.5 30.25Z" fill="#7150FF"/>
<path d="M17.9575 16.4996L21.12 13.3371C21.5187 12.9384 21.5187 12.2784 21.12 11.8796C20.7212 11.4809 20.0612 11.4809 19.6625 11.8796L16.5 15.0421L13.3375 11.8796C12.9387 11.4809 12.2787 11.4809 11.88 11.8796C11.4812 12.2784 11.4812 12.9384 11.88 13.3371L15.0425 16.4996L11.88 19.6621C11.4812 20.0609 11.4812 20.7209 11.88 21.1196C12.0862 21.3259 12.3475 21.4221 12.6087 21.4221C12.87 21.4221 13.1312 21.3259 13.3375 21.1196L16.5 17.9571L19.6625 21.1196C19.8687 21.3259 20.13 21.4221 20.3912 21.4221C20.6525 21.4221 20.9137 21.3259 21.12 21.1196C21.5187 20.7209 21.5187 20.0609 21.12 19.6621L17.9575 16.4996Z" fill="#7150FF"/>
</svg>
