<svg width="91" height="91" viewBox="0 0 91 91" fill="none" xmlns="http://www.w3.org/2000/svg">
<path opacity="0.4" d="M45.4997 83.0394C66.4405 83.0394 83.4163 66.0635 83.4163 45.1227C83.4163 24.1819 66.4405 7.20605 45.4997 7.20605C24.5589 7.20605 7.58301 24.1819 7.58301 45.1227C7.58301 66.0635 24.5589 83.0394 45.4997 83.0394Z" fill="#2DA771"/>
<path d="M54.0698 45.5L48.3443 43.4904V30.6367H49.7093C52.7806 30.6367 55.2831 33.3287 55.2831 36.6275C55.2831 38.1821 56.5723 39.4713 58.1268 39.4713C59.6814 39.4713 60.9706 38.1821 60.9706 36.6275C60.9706 30.1817 55.9277 24.9492 49.7093 24.9492H48.3443V22.75C48.3443 21.1954 47.0552 19.9062 45.5006 19.9062C43.946 19.9062 42.6568 21.1954 42.6568 22.75V24.9492H40.1923C34.5806 24.9492 29.9927 29.6887 29.9927 35.49C29.9927 42.2771 33.936 44.4383 36.9314 45.5L42.6568 47.5096V60.3254H41.2918C38.2206 60.3254 35.7181 57.6333 35.7181 54.3346C35.7181 52.78 34.4289 51.4908 32.8743 51.4908C31.3198 51.4908 30.0306 52.78 30.0306 54.3346C30.0306 60.7804 35.0735 66.0129 41.2918 66.0129H42.6568V68.25C42.6568 69.8046 43.946 71.0938 45.5006 71.0938C47.0552 71.0938 48.3443 69.8046 48.3443 68.25V66.0508H50.8089C56.4206 66.0508 61.0085 61.3113 61.0085 55.51C60.9706 48.685 57.0273 46.5238 54.0698 45.5ZM38.8273 40.1538C36.8935 39.4713 35.7181 38.8267 35.7181 35.5279C35.7181 32.8358 37.7277 30.6746 40.2302 30.6746H42.6948V41.5187L38.8273 40.1538ZM50.8089 60.3633H48.3443V49.5192L52.1739 50.8463C54.1077 51.5287 55.2831 52.1733 55.2831 55.4721C55.2831 58.1642 53.2735 60.3633 50.8089 60.3633Z" fill="#2DA771"/>
</svg>
