<svg width="429" height="276" viewBox="0 0 429 276" fill="none" xmlns="http://www.w3.org/2000/svg">
<path d="M16.5 0.626431C6.9 1.42643 1.5 9.95976 0 14.1264V141.126C16 170.626 80.5 280.626 225 275.626C340.6 271.626 408.833 179.959 428.5 134.626C428.667 103.459 428.9 37.226 428.5 21.626C428.1 6.02598 416.333 0.792946 410.5 0.126431C283.167 -0.040236 26.1 -0.173569 16.5 0.626431Z" fill="white"/>
<g clip-path="url(#clip0_1127_2723)">
<circle cx="126.15" cy="80.1499" r="58.1499" fill="#7150FF"/>
<g filter="url(#filter0_d_1127_2723)">
<rect x="104.949" y="54.709" width="16.9604" height="70.8702" fill="white"/>
</g>
<g filter="url(#filter1_d_1127_2723)">
<path d="M124.091 101.866C127.182 102.136 130.295 101.795 133.254 100.862C136.212 99.9296 138.958 98.4231 141.335 96.429C143.711 94.4349 145.672 91.9922 147.104 89.2405C148.537 86.4887 149.413 83.4818 149.684 80.3913C149.954 77.3008 149.613 74.1874 148.68 71.2287C147.747 68.27 146.241 65.524 144.247 63.1476C142.253 60.7711 139.81 58.8106 137.058 57.3782C134.306 55.9457 131.299 55.0693 128.209 54.7989L126.15 78.3324L124.091 101.866Z" fill="white"/>
</g>
<g filter="url(#filter2_d_1127_2723)">
<ellipse cx="113.429" cy="42.8963" rx="8.4802" ry="8.78306" fill="white"/>
</g>
</g>
<path d="M213.345 66.9752C217.71 66.9752 220.58 64.0152 220.58 59.7994C220.58 55.5238 217.74 52.6535 213.345 52.6535H204.704V74.5098H208.531V66.9752H213.345ZM212.597 56.062C215.139 56.062 216.574 57.3776 216.574 59.7695C216.574 62.1614 215.169 63.5667 212.537 63.5667H208.531V56.062H212.597ZM224.515 74.5098L226.279 69.4568H234.442L236.206 74.5098H240.242L232.349 52.6535H228.432L220.539 74.5098H224.515ZM229.897 59.1715C230.106 58.5735 230.286 57.9157 230.375 57.4972C230.435 57.9456 230.645 58.6034 230.824 59.1715L233.336 66.2277H227.415L229.897 59.1715ZM246.81 74.5098V66.3473H251.504L255.212 74.5098H259.398L255.242 65.54C257.813 64.4936 259.188 62.4006 259.188 59.4705C259.188 55.165 256.288 52.6535 251.325 52.6535H242.983V74.5098H246.81ZM246.81 56.062H251.325C253.747 56.062 255.182 57.2879 255.182 59.4705C255.182 61.683 253.747 62.9687 251.325 62.9687H246.81V56.062ZM276.587 74.5098V70.9817H266.84V65.1812H275.571V61.8026H266.84V56.1816H276.587V52.6535H263.013V74.5098H276.587ZM284.504 74.5098V59.022L294.789 74.5098H298.556V52.6535H294.789V68.1412L284.534 52.6535H280.736V74.5098H284.504ZM301.481 56.1816H307.879V74.5098H311.706V56.1816H318.105V52.6535H301.481V56.1816Z" fill="black"/>
<path d="M209.278 110.51V104.321C209.278 101.899 209.248 100.045 208.979 98.4006L213.644 110.51H218.069L222.763 98.4006C222.524 100.045 222.524 101.092 222.524 105.875V110.51H227.218V88.3844H222.464L215.856 104.889L209.278 88.3844H204.584V110.51H209.278ZM234.846 110.51L236.431 105.846H243.577L245.131 110.51H250.274L242.411 88.3844H237.687L229.793 110.51H234.846ZM239.421 97.0552C239.69 96.2479 239.929 95.4107 240.019 94.9024C240.108 95.4406 240.377 96.3077 240.617 97.0552L242.201 101.779H237.836L239.421 97.0552ZM266.902 110.51V106.025H257.693V101.45H265.855V97.2046H257.693V92.8693H266.902V88.3844H252.849V110.51H266.902ZM269.639 94.8127C269.639 98.4305 271.672 100.673 275.618 101.48L278.997 102.168C280.462 102.467 281.03 103.095 281.03 104.321C281.03 105.726 279.655 106.593 277.472 106.593C275.319 106.593 274.124 105.696 274.124 104.081H269.31C269.31 108.237 272.509 110.898 277.442 110.898C282.525 110.898 285.874 108.118 285.874 103.842C285.874 100.344 283.99 98.4604 280.044 97.6531L276.725 96.9655C275.17 96.6366 274.482 95.9788 274.482 94.6333C274.482 93.1683 275.738 92.2713 277.711 92.2713C279.535 92.2713 280.701 93.2281 280.701 94.7828H285.515C285.515 90.5969 282.525 87.9658 277.771 87.9658C273.017 87.9658 269.639 90.8062 269.639 94.8127ZM287.088 92.8693H293.367V110.51H298.211V92.8693H304.489V88.3844H287.088V92.8693ZM312.235 110.51V102.766H315.973L319.292 110.51H324.584L320.697 101.719C323.149 100.464 324.374 98.4305 324.374 95.5602C324.374 90.9856 321.325 88.3844 315.943 88.3844H307.392V110.51H312.235ZM312.235 92.6899H315.943C318.096 92.6899 319.262 93.7064 319.262 95.5602C319.262 97.4438 318.036 98.5202 315.913 98.5202H312.235V92.6899ZM348.428 99.4172C348.428 92.66 344.002 87.9957 337.574 87.9957C331.176 87.9957 326.751 92.6899 326.751 99.4471C326.751 106.204 331.146 110.869 337.544 110.869C343.973 110.869 348.428 106.174 348.428 99.4172ZM343.315 99.4172C343.315 103.603 341.162 106.204 337.604 106.204C334.016 106.204 331.863 103.663 331.863 99.4172C331.863 95.2014 334.016 92.66 337.604 92.66C341.162 92.66 343.315 95.2014 343.315 99.4172Z" fill="#7150FF"/>
<line x1="195.928" y1="46.3796" x2="195.928" y2="114.4" stroke="#7150FF" stroke-width="0.747478" stroke-linecap="round"/>
<defs>
<filter id="filter0_d_1127_2723" x="102.526" y="54.709" width="21.8063" height="75.7159" filterUnits="userSpaceOnUse" color-interpolation-filters="sRGB">
<feFlood flood-opacity="0" result="BackgroundImageFix"/>
<feColorMatrix in="SourceAlpha" type="matrix" values="0 0 0 0 0 0 0 0 0 0 0 0 0 0 0 0 0 0 127 0" result="hardAlpha"/>
<feOffset dy="2.42291"/>
<feGaussianBlur stdDeviation="1.21146"/>
<feComposite in2="hardAlpha" operator="out"/>
<feColorMatrix type="matrix" values="0 0 0 0 0 0 0 0 0 0 0 0 0 0 0 0 0 0 0.25 0"/>
<feBlend mode="normal" in2="BackgroundImageFix" result="effect1_dropShadow_1127_2723"/>
<feBlend mode="normal" in="SourceGraphic" in2="effect1_dropShadow_1127_2723" result="shape"/>
</filter>
<filter id="filter1_d_1127_2723" x="121.668" y="54.7988" width="30.5282" height="52.0031" filterUnits="userSpaceOnUse" color-interpolation-filters="sRGB">
<feFlood flood-opacity="0" result="BackgroundImageFix"/>
<feColorMatrix in="SourceAlpha" type="matrix" values="0 0 0 0 0 0 0 0 0 0 0 0 0 0 0 0 0 0 127 0" result="hardAlpha"/>
<feOffset dy="2.42291"/>
<feGaussianBlur stdDeviation="1.21146"/>
<feComposite in2="hardAlpha" operator="out"/>
<feColorMatrix type="matrix" values="0 0 0 0 0 0 0 0 0 0 0 0 0 0 0 0 0 0 0.25 0"/>
<feBlend mode="normal" in2="BackgroundImageFix" result="effect1_dropShadow_1127_2723"/>
<feBlend mode="normal" in="SourceGraphic" in2="effect1_dropShadow_1127_2723" result="shape"/>
</filter>
<filter id="filter2_d_1127_2723" x="102.526" y="34.1133" width="21.8063" height="22.4122" filterUnits="userSpaceOnUse" color-interpolation-filters="sRGB">
<feFlood flood-opacity="0" result="BackgroundImageFix"/>
<feColorMatrix in="SourceAlpha" type="matrix" values="0 0 0 0 0 0 0 0 0 0 0 0 0 0 0 0 0 0 127 0" result="hardAlpha"/>
<feOffset dy="2.42291"/>
<feGaussianBlur stdDeviation="1.21146"/>
<feComposite in2="hardAlpha" operator="out"/>
<feColorMatrix type="matrix" values="0 0 0 0 0 0 0 0 0 0 0 0 0 0 0 0 0 0 0.25 0"/>
<feBlend mode="normal" in2="BackgroundImageFix" result="effect1_dropShadow_1127_2723"/>
<feBlend mode="normal" in="SourceGraphic" in2="effect1_dropShadow_1127_2723" result="shape"/>
</filter>
<clipPath id="clip0_1127_2723">
<rect width="116.3" height="116.3" fill="white" transform="translate(68 22)"/>
</clipPath>
</defs>
</svg>
