<svg width="545" height="440" viewBox="0 0 545 440" fill="none" xmlns="http://www.w3.org/2000/svg">
<path d="M0 61.2444C2.4 7.64439 44.3333 -1.75561 65 0.244388L510.5 0.744141C522.333 17.9108 545.6 73.5441 544 158.744C531.5 324.244 387.5 448.244 232 439.244C107.6 432.044 25.5 352.911 0 314.244V61.2444Z" fill="white"/>
<g clip-path="url(#clip0_1127_2722)">
<circle cx="132" cy="144" r="93" fill="#7150FF"/>
<g filter="url(#filter0_d_1127_2722)">
<rect x="98.0935" y="103.312" width="27.125" height="113.344" fill="white"/>
</g>
<g filter="url(#filter1_d_1127_2722)">
<path d="M128.707 178.731C133.65 179.164 138.629 178.618 143.361 177.126C148.093 175.634 152.485 173.225 156.285 170.036C160.086 166.847 163.221 162.94 165.512 158.539C167.803 154.138 169.205 149.329 169.637 144.387C170.07 139.444 169.525 134.465 168.033 129.733C166.541 125.001 164.131 120.609 160.942 116.808C157.753 113.008 153.846 109.872 149.445 107.581C145.045 105.29 140.235 103.889 135.293 103.456L132 141.094L128.707 178.731Z" fill="white"/>
</g>
<g filter="url(#filter2_d_1127_2722)">
<ellipse cx="111.656" cy="84.4219" rx="13.5625" ry="14.0469" fill="white"/>
</g>
</g>
<path d="M271.452 121.95C278.433 121.95 283.024 117.216 283.024 110.473C283.024 103.635 278.481 99.045 271.452 99.045H257.633V134H263.753V121.95H271.452ZM270.257 104.496C274.321 104.496 276.616 106.6 276.616 110.426C276.616 114.251 274.369 116.499 270.161 116.499H263.753V104.496H270.257ZM289.317 134L292.139 125.919H305.193L308.014 134H314.47L301.846 99.045H295.581L282.957 134H289.317ZM297.925 109.469C298.259 108.513 298.546 107.461 298.69 106.791C298.785 107.509 299.12 108.561 299.407 109.469L303.424 120.754H293.956L297.925 109.469ZM324.974 134V120.946H332.481L338.41 134H345.105L338.458 119.655C342.571 117.981 344.77 114.634 344.77 109.947C344.77 103.062 340.132 99.045 332.194 99.045H318.853V134H324.974ZM324.974 104.496H332.194C336.067 104.496 338.363 106.457 338.363 109.947C338.363 113.486 336.067 115.542 332.194 115.542H324.974V104.496ZM372.597 134V128.357H357.008V119.081H370.971V113.677H357.008V104.687H372.597V99.045H350.887V134H372.597ZM385.258 134V109.23L401.707 134H407.732V99.045H401.707V123.815L385.305 99.045H379.233V134H385.258ZM412.409 104.687H422.642V134H428.763V104.687H438.996V99.045H412.409V104.687Z" fill="black"/>
<path d="M264.949 191V181.102C264.949 177.228 264.901 174.264 264.471 171.634L271.93 191H279.007L286.515 171.634C286.132 174.264 286.132 175.937 286.132 183.588V191H293.64V155.615H286.037L275.469 182.01L264.949 155.615H257.441V191H264.949ZM305.84 191L308.374 183.54H319.802L322.289 191H330.514L317.938 155.615H310.382L297.758 191H305.84ZM313.156 169.482C313.586 168.191 313.969 166.852 314.112 166.039C314.256 166.9 314.686 168.286 315.068 169.482L317.603 177.037H310.621L313.156 169.482ZM357.107 191V183.827H342.379V176.511H355.433V169.721H342.379V162.787H357.107V155.615H334.632V191H357.107ZM361.484 165.895C361.484 171.681 364.735 175.268 371.047 176.559L376.451 177.659C378.794 178.137 379.703 179.141 379.703 181.102C379.703 183.349 377.503 184.736 374.012 184.736C370.569 184.736 368.657 183.301 368.657 180.719H360.958C360.958 187.366 366.074 191.622 373.964 191.622C382.093 191.622 387.449 187.175 387.449 180.337C387.449 174.742 384.436 171.729 378.125 170.438L372.817 169.338C370.33 168.812 369.23 167.76 369.23 165.609C369.23 163.265 371.239 161.831 374.395 161.831C377.312 161.831 379.177 163.361 379.177 165.848H386.875C386.875 159.153 382.093 154.945 374.49 154.945C366.887 154.945 361.484 159.488 361.484 165.895ZM389.391 162.787H399.433V191H407.179V162.787H417.221V155.615H389.391V162.787ZM429.609 191V178.615H435.587L440.894 191H449.358L443.142 176.941C447.063 174.933 449.023 171.681 449.023 167.091C449.023 159.775 444.146 155.615 435.539 155.615H421.863V191H429.609ZM429.609 162.5H435.539C438.982 162.5 440.847 164.126 440.847 167.091C440.847 170.103 438.886 171.825 435.491 171.825H429.609V162.5ZM487.492 173.259C487.492 162.453 480.415 154.993 470.134 154.993C459.901 154.993 452.824 162.5 452.824 173.307C452.824 184.114 459.853 191.574 470.086 191.574C480.367 191.574 487.492 184.066 487.492 173.259ZM479.315 173.259C479.315 179.954 475.872 184.114 470.182 184.114C464.444 184.114 461.001 180.05 461.001 173.259C461.001 166.517 464.444 162.453 470.182 162.453C475.872 162.453 479.315 166.517 479.315 173.259Z" fill="#7150FF"/>
<line x1="243.598" y1="89.9893" x2="243.598" y2="198.776" stroke="#7150FF" stroke-width="1.19545" stroke-linecap="round"/>
<defs>
<filter id="filter0_d_1127_2722" x="94.2185" y="103.312" width="34.875" height="121.094" filterUnits="userSpaceOnUse" color-interpolation-filters="sRGB">
<feFlood flood-opacity="0" result="BackgroundImageFix"/>
<feColorMatrix in="SourceAlpha" type="matrix" values="0 0 0 0 0 0 0 0 0 0 0 0 0 0 0 0 0 0 127 0" result="hardAlpha"/>
<feOffset dy="3.875"/>
<feGaussianBlur stdDeviation="1.9375"/>
<feComposite in2="hardAlpha" operator="out"/>
<feColorMatrix type="matrix" values="0 0 0 0 0 0 0 0 0 0 0 0 0 0 0 0 0 0 0.25 0"/>
<feBlend mode="normal" in2="BackgroundImageFix" result="effect1_dropShadow_1127_2722"/>
<feBlend mode="normal" in="SourceGraphic" in2="effect1_dropShadow_1127_2722" result="shape"/>
</filter>
<filter id="filter1_d_1127_2722" x="124.832" y="103.456" width="48.8242" height="83.1689" filterUnits="userSpaceOnUse" color-interpolation-filters="sRGB">
<feFlood flood-opacity="0" result="BackgroundImageFix"/>
<feColorMatrix in="SourceAlpha" type="matrix" values="0 0 0 0 0 0 0 0 0 0 0 0 0 0 0 0 0 0 127 0" result="hardAlpha"/>
<feOffset dy="3.875"/>
<feGaussianBlur stdDeviation="1.9375"/>
<feComposite in2="hardAlpha" operator="out"/>
<feColorMatrix type="matrix" values="0 0 0 0 0 0 0 0 0 0 0 0 0 0 0 0 0 0 0.25 0"/>
<feBlend mode="normal" in2="BackgroundImageFix" result="effect1_dropShadow_1127_2722"/>
<feBlend mode="normal" in="SourceGraphic" in2="effect1_dropShadow_1127_2722" result="shape"/>
</filter>
<filter id="filter2_d_1127_2722" x="94.2185" y="70.375" width="34.875" height="35.8438" filterUnits="userSpaceOnUse" color-interpolation-filters="sRGB">
<feFlood flood-opacity="0" result="BackgroundImageFix"/>
<feColorMatrix in="SourceAlpha" type="matrix" values="0 0 0 0 0 0 0 0 0 0 0 0 0 0 0 0 0 0 127 0" result="hardAlpha"/>
<feOffset dy="3.875"/>
<feGaussianBlur stdDeviation="1.9375"/>
<feComposite in2="hardAlpha" operator="out"/>
<feColorMatrix type="matrix" values="0 0 0 0 0 0 0 0 0 0 0 0 0 0 0 0 0 0 0.25 0"/>
<feBlend mode="normal" in2="BackgroundImageFix" result="effect1_dropShadow_1127_2722"/>
<feBlend mode="normal" in="SourceGraphic" in2="effect1_dropShadow_1127_2722" result="shape"/>
</filter>
<clipPath id="clip0_1127_2722">
<rect width="186" height="186" fill="white" transform="translate(39 51)"/>
</clipPath>
</defs>
</svg>
