<svg width="49" height="49" viewBox="0 0 49 49" fill="none" xmlns="http://www.w3.org/2000/svg">
<g filter="url(#filter0_b_75_3742)">
<circle cx="24.5" cy="24.5" r="24.5" fill="white" fill-opacity="0.63"/>
<circle cx="24.5" cy="24.5" r="24" stroke="#4F5155" stroke-opacity="0.35"/>
</g>
<path d="M29.9 13.25H26.975C23.375 13.25 21.125 15.5 21.125 19.1V23.6562H26.12L23.7913 21.3275C23.6225 21.1588 23.5437 20.945 23.5437 20.7312C23.5437 20.5175 23.6225 20.3038 23.7913 20.135C24.1175 19.8087 24.6575 19.8087 24.9838 20.135L28.7525 23.9038C29.0788 24.23 29.0788 24.77 28.7525 25.0962L24.9838 28.865C24.6575 29.1912 24.1175 29.1912 23.7913 28.865C23.465 28.5387 23.465 27.9987 23.7913 27.6725L26.12 25.3438H21.125V29.9C21.125 33.5 23.375 35.75 26.975 35.75H29.8888C33.4888 35.75 35.7388 33.5 35.7388 29.9V19.1C35.75 15.5 33.5 13.25 29.9 13.25Z" fill="#7150FF"/>
<path d="M14.0938 23.6562C13.6325 23.6562 13.25 24.0387 13.25 24.5C13.25 24.9612 13.6325 25.3438 14.0938 25.3438H21.125V23.6562H14.0938Z" fill="#7150FF"/>
<defs>
<filter id="filter0_b_75_3742" x="-100" y="-100" width="249" height="249" filterUnits="userSpaceOnUse" color-interpolation-filters="sRGB">
<feFlood flood-opacity="0" result="BackgroundImageFix"/>
<feGaussianBlur in="BackgroundImageFix" stdDeviation="50"/>
<feComposite in2="SourceAlpha" operator="in" result="effect1_backgroundBlur_75_3742"/>
<feBlend mode="normal" in="SourceGraphic" in2="effect1_backgroundBlur_75_3742" result="shape"/>
</filter>
</defs>
</svg>
