<svg width="87" height="87" viewBox="0 0 87 87" fill="none" xmlns="http://www.w3.org/2000/svg">
<g filter="url(#filter0_b_118_1098)">
<circle cx="43.5" cy="43.5" r="43.5" fill="white" fill-opacity="0.63"/>
<circle cx="43.5" cy="43.5" r="43" stroke="#4F5155" stroke-opacity="0.35"/>
</g>
<path opacity="0.4" d="M54.1728 53.8795C50.8828 53.8795 47.8474 52.3325 45.8695 49.6104C45.3995 48.9641 45.5366 48.0437 46.1828 47.5542C46.8291 47.0646 47.7495 47.2212 48.2391 47.8675C49.6687 49.8062 51.8228 50.9225 54.1728 50.9225C58.2658 50.9225 61.6145 47.5933 61.6145 43.4808C61.6145 39.3683 58.2853 36.0391 54.1728 36.0391C51.392 36.0391 48.7678 37.5275 47.3382 39.8971L42.1487 48.5333C40.1903 51.8037 36.6066 53.8208 32.8074 53.8208C27.0891 53.8208 22.4282 49.16 22.4282 43.4416C22.4282 37.7233 27.0891 33.0625 32.8074 33.0625C36.0974 33.0625 39.1328 34.6096 41.1107 37.3317C41.5807 37.9779 41.4436 38.8983 40.7974 39.3879C40.1316 39.8775 39.2308 39.7208 38.7412 39.0745C37.3116 37.1358 35.1574 36.0195 32.8074 36.0195C28.7145 36.0195 25.3657 39.3487 25.3657 43.4612C25.3657 47.5737 28.6949 50.9029 32.8074 50.9029C35.5883 50.9029 38.2124 49.4146 39.642 47.045L44.8316 38.4087C46.7899 35.1383 50.3737 33.1212 54.1728 33.1212C59.8912 33.1212 64.552 37.7821 64.552 43.5004C64.552 49.2187 59.8912 53.8795 54.1728 53.8795Z" fill="#7150FF"/>
<path d="M32.7292 47.4163C34.8923 47.4163 36.6458 45.6628 36.6458 43.4997C36.6458 41.3366 34.8923 39.583 32.7292 39.583C30.5661 39.583 28.8125 41.3366 28.8125 43.4997C28.8125 45.6628 30.5661 47.4163 32.7292 47.4163Z" fill="#7150FF"/>
<path d="M54.2707 47.4163C56.4338 47.4163 58.1873 45.6628 58.1873 43.4997C58.1873 41.3366 56.4338 39.583 54.2707 39.583C52.1076 39.583 50.354 41.3366 50.354 43.4997C50.354 45.6628 52.1076 47.4163 54.2707 47.4163Z" fill="#7150FF"/>
<defs>
<filter id="filter0_b_118_1098" x="-100" y="-100" width="287" height="287" filterUnits="userSpaceOnUse" color-interpolation-filters="sRGB">
<feFlood flood-opacity="0" result="BackgroundImageFix"/>
<feGaussianBlur in="BackgroundImageFix" stdDeviation="50"/>
<feComposite in2="SourceAlpha" operator="in" result="effect1_backgroundBlur_118_1098"/>
<feBlend mode="normal" in="SourceGraphic" in2="effect1_backgroundBlur_118_1098" result="shape"/>
</filter>
</defs>
</svg>
