<svg width="49" height="49" viewBox="0 0 49 49" fill="none" xmlns="http://www.w3.org/2000/svg">
<g filter="url(#filter0_b_75_3728)">
<circle cx="24.5" cy="24.5" r="24.5" fill="white" fill-opacity="0.63"/>
<circle cx="24.5" cy="24.5" r="24" stroke="#4F5155" stroke-opacity="0.35"/>
</g>
<path d="M15.6337 12.125H24.78C25.545 12.125 26.1637 12.755 26.1637 13.5312V15.0725C26.1637 15.635 25.815 16.3325 25.4663 16.6813L22.4963 19.3587C22.08 19.7075 21.81 20.405 21.81 20.9675V23.9825C21.81 24.3988 21.5287 24.9613 21.1912 25.175L20.2125 25.8162C19.3125 26.3787 18.0637 25.7487 18.0637 24.6237V20.9C18.0637 20.405 17.7825 19.775 17.5125 19.4262L14.88 16.6137C14.5312 16.265 14.25 15.635 14.25 15.2188V13.5987C14.25 12.755 14.8688 12.125 15.6337 12.125Z" fill="#7150FF"/>
<path d="M31.125 13.25H28.425C28.11 13.25 27.8625 13.4975 27.8625 13.8125C27.8625 14.3525 27.8625 15.0725 27.8625 15.0725C27.8625 16.1862 27.2663 17.2775 26.6813 17.8738L23.6213 20.6075C23.5875 20.6862 23.5312 20.7987 23.4975 20.8888V23.9825C23.4975 25.0063 22.89 26.12 22.0575 26.6263L21.135 27.2225C20.6175 27.5487 20.0437 27.7063 19.47 27.7063C18.9525 27.7063 18.435 27.5712 17.9625 27.3125C17.3637 26.9809 16.9158 26.4758 16.6497 25.8837C16.5322 25.6223 16.5 25.3333 16.5 25.0467V22.4862C16.5 22.34 16.4437 22.1937 16.3312 22.0925L15.2062 20.9675C14.8575 20.6075 14.25 20.855 14.25 21.3612V30.125C14.25 33.23 16.77 35.75 19.875 35.75H31.125C34.23 35.75 36.75 33.23 36.75 30.125V18.875C36.75 15.77 34.23 13.25 31.125 13.25ZM32.25 30.9688H24.375C23.9137 30.9688 23.5312 30.5863 23.5312 30.125C23.5312 29.6637 23.9137 29.2812 24.375 29.2812H32.25C32.7113 29.2812 33.0938 29.6637 33.0938 30.125C33.0938 30.5863 32.7113 30.9688 32.25 30.9688ZM32.25 26.4688H26.625C26.1637 26.4688 25.7812 26.0863 25.7812 25.625C25.7812 25.1637 26.1637 24.7812 26.625 24.7812H32.25C32.7113 24.7812 33.0938 25.1637 33.0938 25.625C33.0938 26.0863 32.7113 26.4688 32.25 26.4688Z" fill="#7150FF"/>
<defs>
<filter id="filter0_b_75_3728" x="-100" y="-100" width="249" height="249" filterUnits="userSpaceOnUse" color-interpolation-filters="sRGB">
<feFlood flood-opacity="0" result="BackgroundImageFix"/>
<feGaussianBlur in="BackgroundImageFix" stdDeviation="50"/>
<feComposite in2="SourceAlpha" operator="in" result="effect1_backgroundBlur_75_3728"/>
<feBlend mode="normal" in="SourceGraphic" in2="effect1_backgroundBlur_75_3728" result="shape"/>
</filter>
</defs>
</svg>
