<svg width="27" height="27" viewBox="0 0 27 27" fill="none" xmlns="http://www.w3.org/2000/svg">
<path opacity="0.4" d="M13.4663 24.75C19.6795 24.75 24.7163 19.7132 24.7163 13.5C24.7163 7.2868 19.6795 2.25 13.4663 2.25C7.25311 2.25 2.21631 7.2868 2.21631 13.5C2.21631 19.7132 7.25311 24.75 13.4663 24.75Z" fill="#7150FF"/>
<path d="M17.156 12.7121H15.2435V8.25709C15.2435 7.22209 14.681 7.00834 13.9948 7.78459L13.4998 8.34709L9.31478 13.1058C8.74103 13.7583 8.97728 14.2871 9.84353 14.2871H11.756V18.7421C11.756 19.7771 12.3185 19.9908 13.0048 19.2146L13.4998 18.6521L17.6848 13.8933C18.2585 13.2408 18.0223 12.7121 17.156 12.7121Z" fill="#7150FF"/>
</svg>
