<svg width="116" height="86" viewBox="0 0 116 86" fill="none" xmlns="http://www.w3.org/2000/svg">
<g clip-path="url(#clip0_63_9793)">
<path d="M87.1858 0.408175C95.2144 5.00207 101.924 11.9486 106.23 20.2458C108.387 24.3944 110.616 29.4113 109.662 34.2056C108.787 38.5842 105.086 41.1149 101.123 42.3024C96.4165 43.7125 91.2657 43.5195 86.4281 43.1484C80.76 42.7106 75.1501 41.7087 69.5038 41.011C66.8009 40.6771 64.0543 40.3283 61.3295 40.3654C59.1365 40.3876 56.8926 40.8626 55.4865 42.7328C52.9366 46.1096 54.7361 51.1785 56.5648 54.4291C59.1365 59.0155 62.7064 62.9341 66.4876 66.5038C70.2688 70.0735 74.2613 73.2054 78.567 75.9662C86.8069 81.2577 97.4146 86.5566 107.345 83.3951C109.421 82.7346 111.57 81.5174 112.503 79.4097C113.435 77.302 113.013 75.1424 112.051 73.2276C109.887 68.9084 105.494 66.103 101.385 63.9731C96.8464 61.6279 91.9578 60.0694 87.0255 58.8448C82.0932 57.6203 77.1463 56.752 72.1339 56.1954C51.8365 53.9467 31.0654 57.1379 12.2688 65.2125C9.92287 66.2218 7.60609 67.3053 5.31843 68.4482C4.70644 68.7525 3.80304 68.5224 3.25663 68.1736C2.85593 67.9139 2.38236 67.3424 3.00163 67.0159C12.3854 62.1029 22.4831 58.5925 32.8067 56.4106C43.1303 54.2287 53.9274 53.3604 64.5497 53.9244C75.172 54.4884 85.8161 56.2696 95.8264 59.8467C100.824 61.6353 105.633 64.0399 109.836 67.3424C113.137 69.9325 116.794 74.378 115.847 78.957C114.812 83.9814 108.831 85.4805 104.554 85.8887C99.1705 86.3933 93.7427 85.1168 88.7522 83.1502C78.8439 79.2539 69.6933 72.6636 62.1819 65.0789C58.5464 61.4052 55.0348 57.3234 52.8491 52.5589C51.2318 49.0411 50.2701 43.9574 53.3446 40.922C55.0858 39.2076 57.592 38.7401 59.9234 38.6807C62.6919 38.6139 65.4968 38.9479 68.2434 39.267C74.0646 39.9498 79.8493 41.0185 85.6923 41.5009C90.5517 41.9016 95.9503 42.1539 100.584 40.3134C102.493 39.5564 104.263 38.4209 105.487 36.714C106.981 34.636 107.294 31.9865 106.944 29.4855C106.252 24.5502 103.68 19.7634 100.963 15.6964C98.2452 11.6294 95.0104 8.1265 91.273 5.12823C89.4516 3.6662 87.5063 2.37487 85.4883 1.21712C85.0657 0.972207 84.7306 0.452704 85.2478 0.126159C85.7651 -0.200385 86.6977 0.111317 87.1858 0.385911V0.408175Z" fill="#7150FF"/>
<path d="M22.8982 67.6763C16.0061 68.4927 9.10671 69.3091 2.16362 69.6133C1.59535 69.6356 -0.903589 68.7524 0.34952 67.9732C3.679 65.8952 6.91378 63.6613 10.032 61.2642C13.1502 58.867 16.0061 56.1953 19.0514 53.7165C19.7508 53.1451 22.5412 53.9911 21.7325 54.8669C19.0223 57.7835 15.773 60.292 12.6256 62.6965C9.47828 65.1011 6.17065 67.3795 2.79017 69.4872L0.976074 67.847C7.69332 67.5576 14.3741 66.7932 21.0477 66.0065C21.7689 65.9249 22.6432 66.051 23.1896 66.5928C23.6049 67.001 23.5903 67.6021 22.9055 67.6837L22.8982 67.6763Z" fill="#7150FF"/>
</g>
<defs>
<clipPath id="clip0_63_9793">
<rect width="116" height="86" fill="white" transform="matrix(-1 0 0 1 116 0)"/>
</clipPath>
</defs>
</svg>
