<svg width="606" height="680" viewBox="0 0 606 680" fill="none" xmlns="http://www.w3.org/2000/svg">
<g clip-path="url(#clip0_619_2539)">
<circle cx="304.5" cy="346.5" r="265.5" stroke="#7150FF" stroke-width="4" stroke-linecap="round" stroke-dasharray="80 80"/>
<g filter="url(#filter0_d_619_2539)">
<g clip-path="url(#clip1_619_2539)">
<rect x="233" y="10" width="143" height="145" rx="71.5" fill="#1366DC"/>
<path d="M277.225 26.725H274.025V45H284.875V42.05H277.225V26.725ZM292.308 45.325C295.533 45.325 297.783 43.7 298.308 41H295.483C295.133 42.175 294.033 42.825 292.358 42.825C290.333 42.825 289.183 41.725 288.958 39.55L298.258 39.525V38.6C298.258 34.75 295.908 32.275 292.208 32.275C288.583 32.275 286.058 34.95 286.058 38.825C286.058 42.65 288.633 45.325 292.308 45.325ZM292.233 34.775C294.058 34.775 295.233 35.9 295.233 37.6H289.033C289.333 35.75 290.433 34.775 292.233 34.775ZM304.252 45.325C306.177 45.325 307.852 44.45 308.377 43.175L308.602 45H311.277V37.5C311.277 34.075 309.227 32.275 305.902 32.275C302.552 32.275 300.352 34.025 300.352 36.7H302.952C302.952 35.4 303.952 34.65 305.752 34.65C307.302 34.65 308.302 35.325 308.302 37V37.275L304.602 37.55C301.677 37.775 300.027 39.2 300.027 41.475C300.027 43.8 301.627 45.325 304.252 45.325ZM305.252 43.025C303.877 43.025 303.127 42.475 303.127 41.35C303.127 40.35 303.852 39.725 305.752 39.55L308.327 39.35V40C308.327 41.9 307.127 43.025 305.252 43.025ZM322.023 32.6C321.523 32.475 321.098 32.425 320.673 32.425C319.023 32.425 317.848 33.25 317.323 34.475L317.148 32.675H314.273V45H317.323V39C317.323 36.6 318.698 35.425 320.898 35.425H322.023V32.6ZM327.138 45V38.35C327.138 36.35 328.288 35.05 330.163 35.05C331.738 35.05 332.763 36.05 332.763 38.125V45H335.813V37.4C335.813 34.2 334.213 32.275 331.113 32.275C329.438 32.275 327.938 33 327.163 34.25L326.913 32.65H324.088V45H327.138Z" fill="white"/>
<g filter="url(#filter1_d_619_2539)">
<ellipse cx="304.5" cy="125.5" rx="93.5" ry="66.5" fill="white"/>
</g>
<path d="M264.421 92L265.306 89.465H269.401L270.286 92H272.311L268.351 81.035H266.386L262.426 92H264.421ZM267.121 84.305C267.226 84.005 267.316 83.675 267.361 83.465C267.391 83.69 267.496 84.02 267.586 84.305L268.846 87.845H265.876L267.121 84.305ZM275.246 92V88.01C275.246 86.81 275.936 86.03 277.061 86.03C278.006 86.03 278.621 86.63 278.621 87.875V92H280.451V87.44C280.451 85.52 279.491 84.365 277.631 84.365C276.626 84.365 275.726 84.8 275.261 85.55L275.111 84.59H273.416V92H275.246ZM284.454 92.195C285.609 92.195 286.614 91.67 286.929 90.905L287.064 92H288.669V87.5C288.669 85.445 287.439 84.365 285.444 84.365C283.434 84.365 282.114 85.415 282.114 87.02H283.674C283.674 86.24 284.274 85.79 285.354 85.79C286.284 85.79 286.884 86.195 286.884 87.2V87.365L284.664 87.53C282.909 87.665 281.919 88.52 281.919 89.885C281.919 91.28 282.879 92.195 284.454 92.195ZM285.054 90.815C284.229 90.815 283.779 90.485 283.779 89.81C283.779 89.21 284.214 88.835 285.354 88.73L286.899 88.61V89C286.899 90.14 286.179 90.815 285.054 90.815ZM292.312 92V80.84H290.497V92H292.312ZM293.587 95.435C293.992 95.54 294.442 95.6 294.952 95.6C296.167 95.6 296.947 95.03 297.502 93.65L301.132 84.59H299.242L297.232 89.99L295.327 84.59H293.392L296.377 92.315L296.167 92.87C295.852 93.74 295.402 93.905 294.682 93.905H293.587V95.435ZM301.44 89.75C301.44 91.205 302.61 92.195 304.455 92.195C306.285 92.195 307.56 91.265 307.56 89.765C307.56 88.625 306.93 88.055 305.685 87.77L304.35 87.455C303.72 87.305 303.39 87.035 303.39 86.615C303.39 86.06 303.81 85.73 304.53 85.73C305.235 85.73 305.655 86.135 305.67 86.765H307.41C307.395 85.325 306.27 84.365 304.605 84.365C302.895 84.365 301.665 85.235 301.665 86.69C301.665 87.875 302.31 88.505 303.645 88.805L304.98 89.12C305.64 89.27 305.835 89.54 305.835 89.915C305.835 90.455 305.37 90.8 304.515 90.8C303.675 90.8 303.195 90.395 303.18 89.75H301.44ZM312.268 92.195C314.203 92.195 315.553 91.22 315.868 89.6H314.173C313.963 90.305 313.303 90.695 312.298 90.695C311.083 90.695 310.393 90.035 310.258 88.73L315.838 88.715V88.16C315.838 85.85 314.428 84.365 312.208 84.365C310.033 84.365 308.518 85.97 308.518 88.295C308.518 90.59 310.063 92.195 312.268 92.195ZM312.223 85.865C313.318 85.865 314.023 86.54 314.023 87.56H310.303C310.483 86.45 311.143 85.865 312.223 85.865ZM323.551 92.195C324.706 92.195 325.711 91.67 326.026 90.905L326.161 92H327.766V87.5C327.766 85.445 326.536 84.365 324.541 84.365C322.531 84.365 321.211 85.415 321.211 87.02H322.771C322.771 86.24 323.371 85.79 324.451 85.79C325.381 85.79 325.981 86.195 325.981 87.2V87.365L323.761 87.53C322.006 87.665 321.016 88.52 321.016 89.885C321.016 91.28 321.976 92.195 323.551 92.195ZM324.151 90.815C323.326 90.815 322.876 90.485 322.876 89.81C322.876 89.21 323.311 88.835 324.451 88.73L325.996 88.61V89C325.996 90.14 325.276 90.815 324.151 90.815ZM331.394 92V88.01C331.394 86.81 332.084 86.03 333.209 86.03C334.154 86.03 334.769 86.63 334.769 87.875V92H336.599V87.44C336.599 85.52 335.639 84.365 333.779 84.365C332.774 84.365 331.874 84.8 331.409 85.55L331.259 84.59H329.564V92H331.394ZM341.442 92.195C342.567 92.195 343.527 91.7 343.977 90.845L344.097 92H345.777V80.84H343.962V85.535C343.497 84.8 342.582 84.365 341.547 84.365C339.312 84.365 337.962 86.015 337.962 88.325C337.962 90.62 339.297 92.195 341.442 92.195ZM341.847 90.515C340.572 90.515 339.792 89.585 339.792 88.265C339.792 86.945 340.572 86 341.847 86C343.122 86 343.947 86.93 343.947 88.265C343.947 89.6 343.122 90.515 341.847 90.515ZM271.313 112V100.84H269.498V112H271.313ZM276.548 112.195C278.483 112.195 279.833 111.22 280.148 109.6H278.453C278.243 110.305 277.583 110.695 276.578 110.695C275.363 110.695 274.673 110.035 274.538 108.73L280.118 108.715V108.16C280.118 105.85 278.708 104.365 276.488 104.365C274.313 104.365 272.798 105.97 272.798 108.295C272.798 110.59 274.343 112.195 276.548 112.195ZM276.503 105.865C277.598 105.865 278.303 106.54 278.303 107.56H274.583C274.763 106.45 275.423 105.865 276.503 105.865ZM283.714 112.195C284.869 112.195 285.874 111.67 286.189 110.905L286.324 112H287.929V107.5C287.929 105.445 286.699 104.365 284.704 104.365C282.694 104.365 281.374 105.415 281.374 107.02H282.934C282.934 106.24 283.534 105.79 284.614 105.79C285.544 105.79 286.144 106.195 286.144 107.2V107.365L283.924 107.53C282.169 107.665 281.179 108.52 281.179 109.885C281.179 111.28 282.139 112.195 283.714 112.195ZM284.314 110.815C283.489 110.815 283.039 110.485 283.039 109.81C283.039 109.21 283.474 108.835 284.614 108.73L286.159 108.61V109C286.159 110.14 285.439 110.815 284.314 110.815ZM294.377 104.56C294.077 104.485 293.822 104.455 293.567 104.455C292.577 104.455 291.872 104.95 291.557 105.685L291.452 104.605H289.727V112H291.557V108.4C291.557 106.96 292.382 106.255 293.702 106.255H294.377V104.56ZM297.446 112V108.01C297.446 106.81 298.136 106.03 299.261 106.03C300.206 106.03 300.821 106.63 300.821 107.875V112H302.651V107.44C302.651 105.52 301.691 104.365 299.831 104.365C298.826 104.365 297.926 104.8 297.461 105.55L297.311 104.59H295.616V112H297.446ZM307.757 104.59V106.12H308.822V112H310.637V106.12H312.407V104.59H310.637V103.69C310.637 102.955 310.862 102.475 311.792 102.475H312.437V100.915C312.122 100.855 311.777 100.84 311.492 100.84C309.887 100.84 308.822 101.68 308.822 103.69V104.59H307.757ZM318.225 104.56C317.925 104.485 317.67 104.455 317.415 104.455C316.425 104.455 315.72 104.95 315.405 105.685L315.3 104.605H313.575V112H315.405V108.4C315.405 106.96 316.23 106.255 317.55 106.255H318.225V104.56ZM318.78 108.28C318.78 110.59 320.445 112.18 322.74 112.18C325.035 112.18 326.7 110.59 326.7 108.28C326.7 105.97 325.035 104.38 322.74 104.38C320.445 104.38 318.78 105.97 318.78 108.28ZM320.61 108.28C320.61 106.93 321.48 106.015 322.74 106.015C324 106.015 324.87 106.93 324.87 108.28C324.87 109.63 324 110.545 322.74 110.545C321.48 110.545 320.61 109.63 320.61 108.28ZM329.98 112V107.8C329.98 106.6 330.685 106.03 331.555 106.03C332.425 106.03 332.98 106.585 332.98 107.62V112H334.81V107.8C334.81 106.585 335.485 106.015 336.37 106.015C337.24 106.015 337.81 106.57 337.81 107.635V112H339.625V107.155C339.625 105.445 338.635 104.365 336.835 104.365C335.71 104.365 334.84 104.92 334.465 105.775C334.075 104.92 333.295 104.365 332.17 104.365C331.105 104.365 330.355 104.845 329.98 105.46L329.83 104.59H328.15V112H329.98ZM279.466 132V126.12H280.906V124.59H279.466V122.28H277.636V124.59H276.211V126.12H277.636V132H279.466ZM283.874 132V127.95C283.874 126.84 284.549 126.03 285.704 126.03C286.634 126.03 287.249 126.63 287.249 127.875V132H289.079V127.44C289.079 125.52 288.119 124.365 286.289 124.365C285.224 124.365 284.354 124.83 283.889 125.55V120.84H282.044V132H283.874ZM294.192 132.195C296.127 132.195 297.477 131.22 297.792 129.6H296.097C295.887 130.305 295.227 130.695 294.222 130.695C293.007 130.695 292.317 130.035 292.182 128.73L297.762 128.715V128.16C297.762 125.85 296.352 124.365 294.132 124.365C291.957 124.365 290.442 125.97 290.442 128.295C290.442 130.59 291.987 132.195 294.192 132.195ZM294.147 125.865C295.242 125.865 295.947 126.54 295.947 127.56H292.227C292.407 126.45 293.067 125.865 294.147 125.865ZM306.315 132.195C307.44 132.195 308.4 131.7 308.85 130.845L308.97 132H310.65V120.84H308.835V125.535C308.37 124.8 307.455 124.365 306.42 124.365C304.185 124.365 302.835 126.015 302.835 128.325C302.835 130.62 304.17 132.195 306.315 132.195ZM306.72 130.515C305.445 130.515 304.665 129.585 304.665 128.265C304.665 126.945 305.445 126 306.72 126C307.995 126 308.82 126.93 308.82 128.265C308.82 129.6 307.995 130.515 306.72 130.515ZM314.762 132.195C315.917 132.195 316.922 131.67 317.237 130.905L317.372 132H318.977V127.5C318.977 125.445 317.747 124.365 315.752 124.365C313.742 124.365 312.422 125.415 312.422 127.02H313.982C313.982 126.24 314.582 125.79 315.662 125.79C316.592 125.79 317.192 126.195 317.192 127.2V127.365L314.972 127.53C313.217 127.665 312.227 128.52 312.227 129.885C312.227 131.28 313.187 132.195 314.762 132.195ZM315.362 130.815C314.537 130.815 314.087 130.485 314.087 129.81C314.087 129.21 314.522 128.835 315.662 128.73L317.207 128.61V129C317.207 130.14 316.487 130.815 315.362 130.815ZM323.192 132V126.12H324.632V124.59H323.192V122.28H321.362V124.59H319.937V126.12H321.362V132H323.192ZM327.931 132.195C329.086 132.195 330.091 131.67 330.406 130.905L330.541 132H332.146V127.5C332.146 125.445 330.916 124.365 328.921 124.365C326.911 124.365 325.591 125.415 325.591 127.02H327.151C327.151 126.24 327.751 125.79 328.831 125.79C329.761 125.79 330.361 126.195 330.361 127.2V127.365L328.141 127.53C326.386 127.665 325.396 128.52 325.396 129.885C325.396 131.28 326.356 132.195 327.931 132.195ZM328.531 130.815C327.706 130.815 327.256 130.485 327.256 129.81C327.256 129.21 327.691 128.835 328.831 128.73L330.376 128.61V129C330.376 130.14 329.656 130.815 328.531 130.815Z" fill="#1366DC"/>
</g>
</g>
<g filter="url(#filter2_d_619_2539)">
<g clip-path="url(#clip2_619_2539)">
<rect x="451" y="145" width="143" height="145" rx="71.5" fill="#E33718"/>
<path d="M497.225 161.725H494.025V180H497.225V161.725ZM505.901 180.325C507.776 180.325 509.376 179.5 510.126 178.075L510.326 180H513.126V161.4H510.101V169.225C509.326 168 507.801 167.275 506.076 167.275C502.351 167.275 500.101 170.025 500.101 173.875C500.101 177.7 502.326 180.325 505.901 180.325ZM506.576 177.525C504.451 177.525 503.151 175.975 503.151 173.775C503.151 171.575 504.451 170 506.576 170C508.701 170 510.076 171.55 510.076 173.775C510.076 176 508.701 177.525 506.576 177.525ZM521.829 180.325C525.054 180.325 527.304 178.7 527.829 176H525.004C524.654 177.175 523.554 177.825 521.879 177.825C519.854 177.825 518.704 176.725 518.479 174.55L527.779 174.525V173.6C527.779 169.75 525.429 167.275 521.729 167.275C518.104 167.275 515.579 169.95 515.579 173.825C515.579 177.65 518.154 180.325 521.829 180.325ZM521.754 169.775C523.579 169.775 524.754 170.9 524.754 172.6H518.554C518.854 170.75 519.954 169.775 521.754 169.775ZM533.773 180.325C535.698 180.325 537.373 179.45 537.898 178.175L538.123 180H540.798V172.5C540.798 169.075 538.748 167.275 535.423 167.275C532.073 167.275 529.873 169.025 529.873 171.7H532.473C532.473 170.4 533.473 169.65 535.273 169.65C536.823 169.65 537.823 170.325 537.823 172V172.275L534.123 172.55C531.198 172.775 529.548 174.2 529.548 176.475C529.548 178.8 531.148 180.325 533.773 180.325ZM534.773 178.025C533.398 178.025 532.648 177.475 532.648 176.35C532.648 175.35 533.373 174.725 535.273 174.55L537.848 174.35V175C537.848 176.9 536.648 178.025 534.773 178.025ZM542.845 176.25C542.845 178.675 544.795 180.325 547.87 180.325C550.92 180.325 553.045 178.775 553.045 176.275C553.045 174.375 551.995 173.425 549.92 172.95L547.695 172.425C546.645 172.175 546.095 171.725 546.095 171.025C546.095 170.1 546.795 169.55 547.995 169.55C549.17 169.55 549.87 170.225 549.895 171.275H552.795C552.77 168.875 550.895 167.275 548.12 167.275C545.27 167.275 543.22 168.725 543.22 171.15C543.22 173.125 544.295 174.175 546.52 174.675L548.745 175.2C549.845 175.45 550.17 175.9 550.17 176.525C550.17 177.425 549.395 178 547.97 178C546.57 178 545.77 177.325 545.745 176.25H542.845Z" fill="white"/>
<g filter="url(#filter3_d_619_2539)">
<ellipse cx="522.5" cy="260.5" rx="93.5" ry="66.5" fill="white"/>
</g>
<path d="M476.281 216.655C477.601 216.655 478.711 217.255 479.056 218.545H481.081C480.766 216.31 478.831 214.855 476.326 214.855C473.026 214.855 470.851 217.225 470.851 220.555C470.851 223.93 472.996 226.165 476.071 226.165C477.556 226.165 478.801 225.58 479.401 224.74L479.521 226H481.141V219.835H476.041V221.53H479.356V221.575C479.356 223.33 478.201 224.38 476.296 224.38C474.271 224.38 472.861 223.045 472.861 220.6C472.861 218.23 474.106 216.655 476.281 216.655ZM486.259 226.195C488.194 226.195 489.544 225.22 489.859 223.6H488.164C487.954 224.305 487.294 224.695 486.289 224.695C485.074 224.695 484.384 224.035 484.249 222.73L489.829 222.715V222.16C489.829 219.85 488.419 218.365 486.199 218.365C484.024 218.365 482.509 219.97 482.509 222.295C482.509 224.59 484.054 226.195 486.259 226.195ZM486.214 219.865C487.309 219.865 488.014 220.54 488.014 221.56H484.294C484.474 220.45 485.134 219.865 486.214 219.865ZM493.124 226V222.01C493.124 220.81 493.814 220.03 494.939 220.03C495.884 220.03 496.499 220.63 496.499 221.875V226H498.329V221.44C498.329 219.52 497.369 218.365 495.509 218.365C494.504 218.365 493.604 218.8 493.139 219.55L492.989 218.59H491.294V226H493.124ZM503.442 226.195C505.377 226.195 506.727 225.22 507.042 223.6H505.347C505.137 224.305 504.477 224.695 503.472 224.695C502.257 224.695 501.567 224.035 501.432 222.73L507.012 222.715V222.16C507.012 219.85 505.602 218.365 503.382 218.365C501.207 218.365 499.692 219.97 499.692 222.295C499.692 224.59 501.237 226.195 503.442 226.195ZM503.397 219.865C504.492 219.865 505.197 220.54 505.197 221.56H501.477C501.657 220.45 502.317 219.865 503.397 219.865ZM513.126 218.56C512.826 218.485 512.571 218.455 512.316 218.455C511.326 218.455 510.621 218.95 510.306 219.685L510.201 218.605H508.476V226H510.306V222.4C510.306 220.96 511.131 220.255 512.451 220.255H513.126V218.56ZM516.277 226.195C517.432 226.195 518.437 225.67 518.752 224.905L518.887 226H520.492V221.5C520.492 219.445 519.262 218.365 517.267 218.365C515.257 218.365 513.937 219.415 513.937 221.02H515.497C515.497 220.24 516.097 219.79 517.177 219.79C518.107 219.79 518.707 220.195 518.707 221.2V221.365L516.487 221.53C514.732 221.665 513.742 222.52 513.742 223.885C513.742 225.28 514.702 226.195 516.277 226.195ZM516.877 224.815C516.052 224.815 515.602 224.485 515.602 223.81C515.602 223.21 516.037 222.835 517.177 222.73L518.722 222.61V223C518.722 224.14 518.002 224.815 516.877 224.815ZM524.707 226V220.12H526.147V218.59H524.707V216.28H522.877V218.59H521.452V220.12H522.877V226H524.707ZM530.527 226.195C532.462 226.195 533.812 225.22 534.127 223.6H532.432C532.222 224.305 531.562 224.695 530.557 224.695C529.342 224.695 528.652 224.035 528.517 222.73L534.097 222.715V222.16C534.097 219.85 532.687 218.365 530.467 218.365C528.292 218.365 526.777 219.97 526.777 222.295C526.777 224.59 528.322 226.195 530.527 226.195ZM530.482 219.865C531.577 219.865 532.282 220.54 532.282 221.56H528.562C528.742 220.45 529.402 219.865 530.482 219.865ZM541.794 215.035H539.874V226H541.794V215.035ZM547 226.195C548.125 226.195 549.085 225.7 549.535 224.845L549.655 226H551.335V214.84H549.52V219.535C549.055 218.8 548.14 218.365 547.105 218.365C544.87 218.365 543.52 220.015 543.52 222.325C543.52 224.62 544.855 226.195 547 226.195ZM547.405 224.515C546.13 224.515 545.35 223.585 545.35 222.265C545.35 220.945 546.13 220 547.405 220C548.68 220 549.505 220.93 549.505 222.265C549.505 223.6 548.68 224.515 547.405 224.515ZM556.557 226.195C558.492 226.195 559.842 225.22 560.157 223.6H558.462C558.252 224.305 557.592 224.695 556.587 224.695C555.372 224.695 554.682 224.035 554.547 222.73L560.127 222.715V222.16C560.127 219.85 558.717 218.365 556.497 218.365C554.322 218.365 552.807 219.97 552.807 222.295C552.807 224.59 554.352 226.195 556.557 226.195ZM556.512 219.865C557.607 219.865 558.312 220.54 558.312 221.56H554.592C554.772 220.45 555.432 219.865 556.512 219.865ZM563.723 226.195C564.878 226.195 565.883 225.67 566.198 224.905L566.333 226H567.938V221.5C567.938 219.445 566.708 218.365 564.713 218.365C562.703 218.365 561.383 219.415 561.383 221.02H562.943C562.943 220.24 563.543 219.79 564.623 219.79C565.553 219.79 566.153 220.195 566.153 221.2V221.365L563.933 221.53C562.178 221.665 561.188 222.52 561.188 223.885C561.188 225.28 562.148 226.195 563.723 226.195ZM564.323 224.815C563.498 224.815 563.048 224.485 563.048 223.81C563.048 223.21 563.483 222.835 564.623 222.73L566.168 222.61V223C566.168 224.14 565.448 224.815 564.323 224.815ZM569.166 223.75C569.166 225.205 570.336 226.195 572.181 226.195C574.011 226.195 575.286 225.265 575.286 223.765C575.286 222.625 574.656 222.055 573.411 221.77L572.076 221.455C571.446 221.305 571.116 221.035 571.116 220.615C571.116 220.06 571.536 219.73 572.256 219.73C572.961 219.73 573.381 220.135 573.396 220.765H575.136C575.121 219.325 573.996 218.365 572.331 218.365C570.621 218.365 569.391 219.235 569.391 220.69C569.391 221.875 570.036 222.505 571.371 222.805L572.706 223.12C573.366 223.27 573.561 223.54 573.561 223.915C573.561 224.455 573.096 224.8 572.241 224.8C571.401 224.8 570.921 224.395 570.906 223.75H569.166ZM480.53 246L480.65 244.845C481.085 245.7 482.03 246.195 483.14 246.195C485.27 246.195 486.665 244.62 486.665 242.34C486.665 240 485.375 238.35 483.26 238.35C482.135 238.35 481.145 238.845 480.665 239.67V234.84H478.835V246H480.53ZM480.68 242.265C480.68 240.93 481.505 240 482.765 240C484.055 240 484.82 240.945 484.82 242.265C484.82 243.585 484.055 244.515 482.765 244.515C481.505 244.515 480.68 243.6 480.68 242.265ZM490.327 246.195C491.482 246.195 492.487 245.67 492.802 244.905L492.937 246H494.542V241.5C494.542 239.445 493.312 238.365 491.317 238.365C489.307 238.365 487.987 239.415 487.987 241.02H489.547C489.547 240.24 490.147 239.79 491.227 239.79C492.157 239.79 492.757 240.195 492.757 241.2V241.365L490.537 241.53C488.782 241.665 487.792 242.52 487.792 243.885C487.792 245.28 488.752 246.195 490.327 246.195ZM490.927 244.815C490.102 244.815 489.652 244.485 489.652 243.81C489.652 243.21 490.087 242.835 491.227 242.73L492.772 242.61V243C492.772 244.14 492.052 244.815 490.927 244.815ZM495.77 243.75C495.77 245.205 496.94 246.195 498.785 246.195C500.615 246.195 501.89 245.265 501.89 243.765C501.89 242.625 501.26 242.055 500.015 241.77L498.68 241.455C498.05 241.305 497.72 241.035 497.72 240.615C497.72 240.06 498.14 239.73 498.86 239.73C499.565 239.73 499.985 240.135 500 240.765H501.74C501.725 239.325 500.6 238.365 498.935 238.365C497.225 238.365 495.995 239.235 495.995 240.69C495.995 241.875 496.64 242.505 497.975 242.805L499.31 243.12C499.97 243.27 500.165 243.54 500.165 243.915C500.165 244.455 499.7 244.8 498.845 244.8C498.005 244.8 497.525 244.395 497.51 243.75H495.77ZM506.598 246.195C508.533 246.195 509.883 245.22 510.198 243.6H508.503C508.293 244.305 507.633 244.695 506.628 244.695C505.413 244.695 504.723 244.035 504.588 242.73L510.168 242.715V242.16C510.168 239.85 508.758 238.365 506.538 238.365C504.363 238.365 502.848 239.97 502.848 242.295C502.848 244.59 504.393 246.195 506.598 246.195ZM506.553 239.865C507.648 239.865 508.353 240.54 508.353 241.56H504.633C504.813 240.45 505.473 239.865 506.553 239.865ZM514.678 246.195C515.803 246.195 516.763 245.7 517.213 244.845L517.333 246H519.013V234.84H517.198V239.535C516.733 238.8 515.818 238.365 514.783 238.365C512.548 238.365 511.198 240.015 511.198 242.325C511.198 244.62 512.533 246.195 514.678 246.195ZM515.083 244.515C513.808 244.515 513.028 243.585 513.028 242.265C513.028 240.945 513.808 240 515.083 240C516.358 240 517.183 240.93 517.183 242.265C517.183 243.6 516.358 244.515 515.083 244.515ZM524.528 242.28C524.528 244.59 526.193 246.18 528.488 246.18C530.783 246.18 532.448 244.59 532.448 242.28C532.448 239.97 530.783 238.38 528.488 238.38C526.193 238.38 524.528 239.97 524.528 242.28ZM526.358 242.28C526.358 240.93 527.228 240.015 528.488 240.015C529.748 240.015 530.618 240.93 530.618 242.28C530.618 243.63 529.748 244.545 528.488 244.545C527.228 244.545 526.358 243.63 526.358 242.28ZM535.729 246V242.01C535.729 240.81 536.419 240.03 537.544 240.03C538.489 240.03 539.104 240.63 539.104 241.875V246H540.934V241.44C540.934 239.52 539.974 238.365 538.114 238.365C537.109 238.365 536.209 238.8 535.744 239.55L535.594 238.59H533.899V246H535.729ZM549.295 246V240.12H550.735V238.59H549.295V236.28H547.465V238.59H546.04V240.12H547.465V246H549.295ZM553.702 246V241.95C553.702 240.84 554.377 240.03 555.532 240.03C556.462 240.03 557.077 240.63 557.077 241.875V246H558.907V241.44C558.907 239.52 557.947 238.365 556.117 238.365C555.052 238.365 554.182 238.83 553.717 239.55V234.84H551.872V246H553.702ZM564.02 246.195C565.955 246.195 567.305 245.22 567.62 243.6H565.925C565.715 244.305 565.055 244.695 564.05 244.695C562.835 244.695 562.145 244.035 562.01 242.73L567.59 242.715V242.16C567.59 239.85 566.18 238.365 563.96 238.365C561.785 238.365 560.27 239.97 560.27 242.295C560.27 244.59 561.815 246.195 564.02 246.195ZM563.975 239.865C565.07 239.865 565.775 240.54 565.775 241.56H562.055C562.235 240.45 562.895 239.865 563.975 239.865ZM493.944 266V254.84H492.129V266H493.944ZM499.179 266.195C501.114 266.195 502.464 265.22 502.779 263.6H501.084C500.874 264.305 500.214 264.695 499.209 264.695C497.994 264.695 497.304 264.035 497.169 262.73L502.749 262.715V262.16C502.749 259.85 501.339 258.365 499.119 258.365C496.944 258.365 495.429 259.97 495.429 262.295C495.429 264.59 496.974 266.195 499.179 266.195ZM499.134 259.865C500.229 259.865 500.934 260.54 500.934 261.56H497.214C497.394 260.45 498.054 259.865 499.134 259.865ZM506.345 266.195C507.5 266.195 508.505 265.67 508.82 264.905L508.955 266H510.56V261.5C510.56 259.445 509.33 258.365 507.335 258.365C505.325 258.365 504.005 259.415 504.005 261.02H505.565C505.565 260.24 506.165 259.79 507.245 259.79C508.175 259.79 508.775 260.195 508.775 261.2V261.365L506.555 261.53C504.8 261.665 503.81 262.52 503.81 263.885C503.81 265.28 504.77 266.195 506.345 266.195ZM506.945 264.815C506.12 264.815 505.67 264.485 505.67 263.81C505.67 263.21 506.105 262.835 507.245 262.73L508.79 262.61V263C508.79 264.14 508.07 264.815 506.945 264.815ZM517.008 258.56C516.708 258.485 516.453 258.455 516.198 258.455C515.208 258.455 514.503 258.95 514.188 259.685L514.083 258.605H512.358V266H514.188V262.4C514.188 260.96 515.013 260.255 516.333 260.255H517.008V258.56ZM520.077 266V262.01C520.077 260.81 520.767 260.03 521.892 260.03C522.837 260.03 523.452 260.63 523.452 261.875V266H525.282V261.44C525.282 259.52 524.322 258.365 522.462 258.365C521.457 258.365 520.557 258.8 520.092 259.55L519.942 258.59H518.247V266H520.077ZM527.995 257.105C528.595 257.105 529.09 256.61 529.09 255.995C529.09 255.38 528.595 254.9 527.995 254.9C527.365 254.9 526.87 255.38 526.87 255.995C526.87 256.61 527.365 257.105 527.995 257.105ZM527.08 266H528.91V258.59H527.08V266ZM532.63 266V262.01C532.63 260.81 533.32 260.03 534.445 260.03C535.39 260.03 536.005 260.63 536.005 261.875V266H537.835V261.44C537.835 259.52 536.875 258.365 535.015 258.365C534.01 258.365 533.11 258.8 532.645 259.55L532.495 258.59H530.8V266H532.63ZM539.213 262.13C539.213 264.275 540.593 265.85 542.693 265.85C543.758 265.85 544.673 265.415 545.138 264.725V265.955C545.138 267.185 544.328 267.98 543.068 267.98C541.943 267.98 541.208 267.41 541.088 266.45H539.258C539.483 268.43 540.938 269.645 543.068 269.645C545.468 269.645 546.953 268.1 546.953 265.625V258.59H545.258L545.153 259.61C544.718 258.815 543.848 258.35 542.738 258.35C540.623 258.35 539.213 259.97 539.213 262.13ZM541.058 262.085C541.058 260.87 541.838 259.955 543.053 259.955C544.328 259.955 545.093 260.825 545.093 262.085C545.093 263.375 544.313 264.26 543.053 264.26C541.853 264.26 541.058 263.33 541.058 262.085ZM548.277 263.75C548.277 265.205 549.447 266.195 551.292 266.195C553.122 266.195 554.397 265.265 554.397 263.765C554.397 262.625 553.767 262.055 552.522 261.77L551.187 261.455C550.557 261.305 550.227 261.035 550.227 260.615C550.227 260.06 550.647 259.73 551.367 259.73C552.072 259.73 552.492 260.135 552.507 260.765H554.247C554.232 259.325 553.107 258.365 551.442 258.365C549.732 258.365 548.502 259.235 548.502 260.69C548.502 261.875 549.147 262.505 550.482 262.805L551.817 263.12C552.477 263.27 552.672 263.54 552.672 263.915C552.672 264.455 552.207 264.8 551.352 264.8C550.512 264.8 550.032 264.395 550.017 263.75H548.277Z" fill="#E33718"/>
</g>
</g>
<g filter="url(#filter4_d_619_2539)">
<g clip-path="url(#clip3_619_2539)">
<rect x="451" y="405" width="143" height="145" rx="71.5" fill="#219287"/>
<path d="M495.025 440H502.425C506.2 440 508.375 438.175 508.375 435.05C508.375 432.925 507.4 431.475 505.475 430.85C507.2 430.125 508.1 428.675 508.1 426.65C508.1 423.6 505.9 421.725 502.3 421.725H495.025V440ZM502.025 424.55C503.825 424.55 504.825 425.4 504.825 426.975C504.825 428.6 503.85 429.525 502.1 429.525H498.225V424.55H502.025ZM502.3 432.225C504.075 432.225 505.1 433.1 505.1 434.65C505.1 436.3 504.1 437.175 502.3 437.175H498.225V432.225H502.3ZM519.234 427.65V434.125C519.234 436.475 518.309 437.6 516.384 437.6C514.684 437.6 513.759 436.65 513.759 434.3V427.65H510.709V435.375C510.709 438.4 512.384 440.325 515.234 440.325C516.884 440.325 518.484 439.525 519.234 438.35L519.459 440H522.284V427.65H519.234ZM526.959 425.175C527.959 425.175 528.784 424.35 528.784 423.325C528.784 422.3 527.959 421.5 526.959 421.5C525.909 421.5 525.084 422.3 525.084 423.325C525.084 424.35 525.909 425.175 526.959 425.175ZM525.434 440H528.484V427.65H525.434V440ZM534.711 440V421.4H531.686V440H534.711ZM542.985 440.325C544.86 440.325 546.46 439.5 547.21 438.075L547.41 440H550.21V421.4H547.185V429.225C546.41 428 544.885 427.275 543.16 427.275C539.435 427.275 537.185 430.025 537.185 433.875C537.185 437.7 539.41 440.325 542.985 440.325ZM543.66 437.525C541.535 437.525 540.235 435.975 540.235 433.775C540.235 431.575 541.535 430 543.66 430C545.785 430 547.16 431.55 547.16 433.775C547.16 436 545.785 437.525 543.66 437.525Z" fill="white"/>
<g filter="url(#filter5_d_619_2539)">
<ellipse cx="522.5" cy="520.5" rx="93.5" ry="66.5" fill="white"/>
</g>
<path d="M484.554 476.805H487.764V486H489.684V476.805H492.894V475.035H484.554V476.805ZM495.921 486V481.95C495.921 480.84 496.596 480.03 497.751 480.03C498.681 480.03 499.296 480.63 499.296 481.875V486H501.126V481.44C501.126 479.52 500.166 478.365 498.336 478.365C497.271 478.365 496.401 478.83 495.936 479.55V474.84H494.091V486H495.921ZM506.239 486.195C508.174 486.195 509.524 485.22 509.839 483.6H508.144C507.934 484.305 507.274 484.695 506.269 484.695C505.054 484.695 504.364 484.035 504.229 482.73L509.809 482.715V482.16C509.809 479.85 508.399 478.365 506.179 478.365C504.004 478.365 502.489 479.97 502.489 482.295C502.489 484.59 504.034 486.195 506.239 486.195ZM506.194 479.865C507.289 479.865 507.994 480.54 507.994 481.56H504.274C504.454 480.45 505.114 479.865 506.194 479.865ZM517.147 486V481.8C517.147 480.6 517.852 480.03 518.722 480.03C519.592 480.03 520.147 480.585 520.147 481.62V486H521.977V481.8C521.977 480.585 522.652 480.015 523.537 480.015C524.407 480.015 524.977 480.57 524.977 481.635V486H526.792V481.155C526.792 479.445 525.802 478.365 524.002 478.365C522.877 478.365 522.007 478.92 521.632 479.775C521.242 478.92 520.462 478.365 519.337 478.365C518.272 478.365 517.522 478.845 517.147 479.46L516.997 478.59H515.317V486H517.147ZM528.154 482.28C528.154 484.59 529.819 486.18 532.114 486.18C534.409 486.18 536.074 484.59 536.074 482.28C536.074 479.97 534.409 478.38 532.114 478.38C529.819 478.38 528.154 479.97 528.154 482.28ZM529.984 482.28C529.984 480.93 530.854 480.015 532.114 480.015C533.374 480.015 534.244 480.93 534.244 482.28C534.244 483.63 533.374 484.545 532.114 484.545C530.854 484.545 529.984 483.63 529.984 482.28ZM539.219 486L539.339 484.845C539.774 485.7 540.719 486.195 541.829 486.195C543.959 486.195 545.354 484.62 545.354 482.34C545.354 480 544.064 478.35 541.949 478.35C540.824 478.35 539.834 478.845 539.354 479.67V474.84H537.524V486H539.219ZM539.369 482.265C539.369 480.93 540.194 480 541.454 480C542.744 480 543.509 480.945 543.509 482.265C543.509 483.585 542.744 484.515 541.454 484.515C540.194 484.515 539.369 483.6 539.369 482.265ZM547.726 477.105C548.326 477.105 548.821 476.61 548.821 475.995C548.821 475.38 548.326 474.9 547.726 474.9C547.096 474.9 546.601 475.38 546.601 475.995C546.601 476.61 547.096 477.105 547.726 477.105ZM546.811 486H548.641V478.59H546.811V486ZM552.377 486V474.84H550.562V486H552.377ZM557.612 486.195C559.547 486.195 560.897 485.22 561.212 483.6H559.517C559.307 484.305 558.647 484.695 557.642 484.695C556.427 484.695 555.737 484.035 555.602 482.73L561.182 482.715V482.16C561.182 479.85 559.772 478.365 557.552 478.365C555.377 478.365 553.862 479.97 553.862 482.295C553.862 484.59 555.407 486.195 557.612 486.195ZM557.567 479.865C558.662 479.865 559.367 480.54 559.367 481.56H555.647C555.827 480.45 556.487 479.865 557.567 479.865ZM475.701 506.195C476.856 506.195 477.861 505.67 478.176 504.905L478.311 506H479.916V501.5C479.916 499.445 478.686 498.365 476.691 498.365C474.681 498.365 473.361 499.415 473.361 501.02H474.921C474.921 500.24 475.521 499.79 476.601 499.79C477.531 499.79 478.131 500.195 478.131 501.2V501.365L475.911 501.53C474.156 501.665 473.166 502.52 473.166 503.885C473.166 505.28 474.126 506.195 475.701 506.195ZM476.301 504.815C475.476 504.815 475.026 504.485 475.026 503.81C475.026 503.21 475.461 502.835 476.601 502.73L478.146 502.61V503C478.146 504.14 477.426 504.815 476.301 504.815ZM481.714 509.435H483.544V505.01C484.009 505.76 484.969 506.195 486.079 506.195C488.284 506.195 489.544 504.515 489.544 502.205C489.544 499.88 488.164 498.365 486.079 498.365C484.954 498.365 483.979 498.86 483.529 499.715L483.409 498.59H481.714V509.435ZM483.559 502.295C483.559 500.96 484.384 500.03 485.644 500.03C486.934 500.03 487.699 500.975 487.699 502.295C487.699 503.615 486.934 504.545 485.644 504.545C484.384 504.545 483.559 503.63 483.559 502.295ZM491.001 509.435H492.831V505.01C493.296 505.76 494.256 506.195 495.366 506.195C497.571 506.195 498.831 504.515 498.831 502.205C498.831 499.88 497.451 498.365 495.366 498.365C494.241 498.365 493.266 498.86 492.816 499.715L492.696 498.59H491.001V509.435ZM492.846 502.295C492.846 500.96 493.671 500.03 494.931 500.03C496.221 500.03 496.986 500.975 496.986 502.295C496.986 503.615 496.221 504.545 494.931 504.545C493.671 504.545 492.846 503.63 492.846 502.295ZM503.596 498.59V500.12H504.661V506H506.476V500.12H508.246V498.59H506.476V497.69C506.476 496.955 506.701 496.475 507.631 496.475H508.276V494.915C507.961 494.855 507.616 494.84 507.331 494.84C505.726 494.84 504.661 495.68 504.661 497.69V498.59H503.596ZM512.509 506.195C514.444 506.195 515.794 505.22 516.109 503.6H514.414C514.204 504.305 513.544 504.695 512.539 504.695C511.324 504.695 510.634 504.035 510.499 502.73L516.079 502.715V502.16C516.079 499.85 514.669 498.365 512.449 498.365C510.274 498.365 508.759 499.97 508.759 502.295C508.759 504.59 510.304 506.195 512.509 506.195ZM512.464 499.865C513.559 499.865 514.264 500.54 514.264 501.56H510.544C510.724 500.45 511.384 499.865 512.464 499.865ZM519.675 506.195C520.83 506.195 521.835 505.67 522.15 504.905L522.285 506H523.89V501.5C523.89 499.445 522.66 498.365 520.665 498.365C518.655 498.365 517.335 499.415 517.335 501.02H518.895C518.895 500.24 519.495 499.79 520.575 499.79C521.505 499.79 522.105 500.195 522.105 501.2V501.365L519.885 501.53C518.13 501.665 517.14 502.52 517.14 503.885C517.14 505.28 518.1 506.195 519.675 506.195ZM520.275 504.815C519.45 504.815 519 504.485 519 503.81C519 503.21 519.435 502.835 520.575 502.73L522.12 502.61V503C522.12 504.14 521.4 504.815 520.275 504.815ZM528.106 506V500.12H529.546V498.59H528.106V496.28H526.276V498.59H524.851V500.12H526.276V506H528.106ZM535.708 498.59V502.475C535.708 503.885 535.153 504.56 533.998 504.56C532.978 504.56 532.423 503.99 532.423 502.58V498.59H530.593V503.225C530.593 505.04 531.598 506.195 533.308 506.195C534.298 506.195 535.258 505.715 535.708 505.01L535.843 506H537.538V498.59H535.708ZM544.078 498.56C543.778 498.485 543.523 498.455 543.268 498.455C542.278 498.455 541.573 498.95 541.258 499.685L541.153 498.605H539.428V506H541.258V502.4C541.258 500.96 542.083 500.255 543.403 500.255H544.078V498.56ZM548.383 506.195C550.318 506.195 551.668 505.22 551.983 503.6H550.288C550.078 504.305 549.418 504.695 548.413 504.695C547.198 504.695 546.508 504.035 546.373 502.73L551.953 502.715V502.16C551.953 499.85 550.543 498.365 548.323 498.365C546.148 498.365 544.633 499.97 544.633 502.295C544.633 504.59 546.178 506.195 548.383 506.195ZM548.338 499.865C549.433 499.865 550.138 500.54 550.138 501.56H546.418C546.598 500.45 547.258 499.865 548.338 499.865ZM552.848 503.75C552.848 505.205 554.018 506.195 555.863 506.195C557.693 506.195 558.968 505.265 558.968 503.765C558.968 502.625 558.338 502.055 557.093 501.77L555.758 501.455C555.128 501.305 554.798 501.035 554.798 500.615C554.798 500.06 555.218 499.73 555.938 499.73C556.643 499.73 557.063 500.135 557.078 500.765H558.818C558.803 499.325 557.678 498.365 556.013 498.365C554.303 498.365 553.073 499.235 553.073 500.69C553.073 501.875 553.718 502.505 555.053 502.805L556.388 503.12C557.048 503.27 557.243 503.54 557.243 503.915C557.243 504.455 556.778 504.8 555.923 504.8C555.083 504.8 554.603 504.395 554.588 503.75H552.848ZM571.72 506H573.85L572.065 503.99C572.62 503.12 572.92 502.025 572.92 500.75H571.135C571.135 501.47 571.03 502.1 570.835 502.625L568.63 500.15C569.995 499.235 570.58 498.365 570.58 497.27C570.58 495.845 569.47 494.855 567.865 494.855C566.245 494.855 565.06 495.905 565.06 497.36C565.06 498.185 565.39 498.86 566.245 499.85C564.565 500.66 563.695 501.755 563.695 503.09C563.695 504.935 565.3 506.195 567.685 506.195C569.005 506.195 570.115 505.835 570.985 505.175L571.72 506ZM566.8 497.345C566.8 496.7 567.205 496.31 567.865 496.31C568.495 496.31 568.885 496.685 568.885 497.33C568.885 498.08 568.51 498.695 567.745 499.145C567.04 498.335 566.8 497.885 566.8 497.345ZM565.63 502.91C565.63 502.055 566.095 501.425 567.13 500.84L569.92 503.975C569.395 504.395 568.72 504.62 567.895 504.62C566.485 504.62 565.63 503.975 565.63 502.91ZM483.713 517.105C484.313 517.105 484.808 516.61 484.808 515.995C484.808 515.38 484.313 514.9 483.713 514.9C483.083 514.9 482.588 515.38 482.588 515.995C482.588 516.61 483.083 517.105 483.713 517.105ZM482.798 526H484.628V518.59H482.798V526ZM488.348 526V522.01C488.348 520.81 489.038 520.03 490.163 520.03C491.108 520.03 491.723 520.63 491.723 521.875V526H493.553V521.44C493.553 519.52 492.593 518.365 490.733 518.365C489.728 518.365 488.828 518.8 488.363 519.55L488.213 518.59H486.518V526H488.348ZM497.871 526V520.12H499.311V518.59H497.871V516.28H496.041V518.59H494.616V520.12H496.041V526H497.871ZM503.691 526.195C505.626 526.195 506.976 525.22 507.291 523.6H505.596C505.386 524.305 504.726 524.695 503.721 524.695C502.506 524.695 501.816 524.035 501.681 522.73L507.261 522.715V522.16C507.261 519.85 505.851 518.365 503.631 518.365C501.456 518.365 499.941 519.97 499.941 522.295C499.941 524.59 501.486 526.195 503.691 526.195ZM503.646 519.865C504.741 519.865 505.446 520.54 505.446 521.56H501.726C501.906 520.45 502.566 519.865 503.646 519.865ZM508.305 522.13C508.305 524.275 509.685 525.85 511.785 525.85C512.85 525.85 513.765 525.415 514.23 524.725V525.955C514.23 527.185 513.42 527.98 512.16 527.98C511.035 527.98 510.3 527.41 510.18 526.45H508.35C508.575 528.43 510.03 529.645 512.16 529.645C514.56 529.645 516.045 528.1 516.045 525.625V518.59H514.35L514.245 519.61C513.81 518.815 512.94 518.35 511.83 518.35C509.715 518.35 508.305 519.97 508.305 522.13ZM510.15 522.085C510.15 520.87 510.93 519.955 512.145 519.955C513.42 519.955 514.185 520.825 514.185 522.085C514.185 523.375 513.405 524.26 512.145 524.26C510.945 524.26 510.15 523.33 510.15 522.085ZM522.589 518.56C522.289 518.485 522.034 518.455 521.779 518.455C520.789 518.455 520.084 518.95 519.769 519.685L519.664 518.605H517.939V526H519.769V522.4C519.769 520.96 520.594 520.255 521.914 520.255H522.589V518.56ZM525.74 526.195C526.895 526.195 527.9 525.67 528.215 524.905L528.35 526H529.955V521.5C529.955 519.445 528.725 518.365 526.73 518.365C524.72 518.365 523.4 519.415 523.4 521.02H524.96C524.96 520.24 525.56 519.79 526.64 519.79C527.57 519.79 528.17 520.195 528.17 521.2V521.365L525.95 521.53C524.195 521.665 523.205 522.52 523.205 523.885C523.205 525.28 524.165 526.195 525.74 526.195ZM526.34 524.815C525.515 524.815 525.065 524.485 525.065 523.81C525.065 523.21 525.5 522.835 526.64 522.73L528.185 522.61V523C528.185 524.14 527.465 524.815 526.34 524.815ZM534.17 526V520.12H535.61V518.59H534.17V516.28H532.34V518.59H530.915V520.12H532.34V526H534.17ZM537.663 517.105C538.263 517.105 538.758 516.61 538.758 515.995C538.758 515.38 538.263 514.9 537.663 514.9C537.033 514.9 536.538 515.38 536.538 515.995C536.538 516.61 537.033 517.105 537.663 517.105ZM536.748 526H538.578V518.59H536.748V526ZM540.033 522.28C540.033 524.59 541.698 526.18 543.993 526.18C546.288 526.18 547.953 524.59 547.953 522.28C547.953 519.97 546.288 518.38 543.993 518.38C541.698 518.38 540.033 519.97 540.033 522.28ZM541.863 522.28C541.863 520.93 542.733 520.015 543.993 520.015C545.253 520.015 546.123 520.93 546.123 522.28C546.123 523.63 545.253 524.545 543.993 524.545C542.733 524.545 541.863 523.63 541.863 522.28ZM551.234 526V522.01C551.234 520.81 551.924 520.03 553.049 520.03C553.994 520.03 554.609 520.63 554.609 521.875V526H556.439V521.44C556.439 519.52 555.479 518.365 553.619 518.365C552.614 518.365 551.714 518.8 551.249 519.55L551.099 518.59H549.404V526H551.234ZM557.579 523.75C557.579 525.205 558.749 526.195 560.594 526.195C562.424 526.195 563.699 525.265 563.699 523.765C563.699 522.625 563.069 522.055 561.824 521.77L560.489 521.455C559.859 521.305 559.529 521.035 559.529 520.615C559.529 520.06 559.949 519.73 560.669 519.73C561.374 519.73 561.794 520.135 561.809 520.765H563.549C563.534 519.325 562.409 518.365 560.744 518.365C559.034 518.365 557.804 519.235 557.804 520.69C557.804 521.875 558.449 522.505 559.784 522.805L561.119 523.12C561.779 523.27 561.974 523.54 561.974 523.915C561.974 524.455 561.509 524.8 560.654 524.8C559.814 524.8 559.334 524.395 559.319 523.75H557.579Z" fill="#219287"/>
</g>
</g>
<circle cx="304.5" cy="346.5" r="105.5" fill="#7150FF"/>
<path d="M240.434 396V383.715H247.499L253.079 396H259.379L253.124 382.5C256.994 380.925 259.064 377.775 259.064 373.365C259.064 366.885 254.699 363.105 247.229 363.105H234.674V396H240.434ZM240.434 368.235H247.229C250.874 368.235 253.034 370.08 253.034 373.365C253.034 376.695 250.874 378.63 247.229 378.63H240.434V368.235ZM272.373 396.585C278.178 396.585 282.228 393.66 283.173 388.8H278.088C277.458 390.915 275.478 392.085 272.463 392.085C268.818 392.085 266.748 390.105 266.343 386.19L283.083 386.145V384.48C283.083 377.55 278.853 373.095 272.193 373.095C265.668 373.095 261.123 377.91 261.123 384.885C261.123 391.77 265.758 396.585 272.373 396.585ZM272.238 377.595C275.523 377.595 277.638 379.62 277.638 382.68H266.478C267.018 379.35 268.998 377.595 272.238 377.595ZM287.477 406.305H292.967V393.03C294.362 395.28 297.242 396.585 300.572 396.585C307.187 396.585 310.967 391.545 310.967 384.615C310.967 377.64 306.827 373.095 300.572 373.095C297.197 373.095 294.272 374.58 292.922 377.145L292.562 373.77H287.477V406.305ZM293.012 384.885C293.012 380.88 295.487 378.09 299.267 378.09C303.137 378.09 305.432 380.925 305.432 384.885C305.432 388.845 303.137 391.635 299.267 391.635C295.487 391.635 293.012 388.89 293.012 384.885ZM325.283 396.585C331.088 396.585 335.138 393.66 336.083 388.8H330.998C330.368 390.915 328.388 392.085 325.373 392.085C321.728 392.085 319.658 390.105 319.253 386.19L335.993 386.145V384.48C335.993 377.55 331.763 373.095 325.103 373.095C318.578 373.095 314.033 377.91 314.033 384.885C314.033 391.77 318.668 396.585 325.283 396.585ZM325.148 377.595C328.433 377.595 330.548 379.62 330.548 382.68H319.388C319.928 379.35 321.908 377.595 325.148 377.595ZM346.783 396.585C350.248 396.585 353.263 395.01 354.208 392.715L354.613 396H359.428V382.5C359.428 376.335 355.738 373.095 349.753 373.095C343.723 373.095 339.763 376.245 339.763 381.06H344.443C344.443 378.72 346.243 377.37 349.483 377.37C352.273 377.37 354.073 378.585 354.073 381.6V382.095L347.413 382.59C342.148 382.995 339.178 385.56 339.178 389.655C339.178 393.84 342.058 396.585 346.783 396.585ZM348.583 392.445C346.108 392.445 344.758 391.455 344.758 389.43C344.758 387.63 346.063 386.505 349.483 386.19L354.118 385.83V387C354.118 390.42 351.958 392.445 348.583 392.445ZM372.073 396V378.36H376.393V373.77H372.073V366.84H366.583V373.77H362.308V378.36H366.583V396H372.073Z" fill="white"/>
<path opacity="0.4" d="M317.943 283.416H291.09C279.379 283.416 272.417 290.378 272.417 302.056V328.91C272.417 340.589 279.379 347.551 291.057 347.551H317.911C329.589 347.551 336.552 340.589 336.552 328.91V302.056C336.584 290.378 329.622 283.416 317.943 283.416Z" fill="white"/>
<path d="M323.751 313.156C322.404 313.156 321.345 314.215 321.345 315.562C321.313 320.054 319.581 324.257 316.436 327.401C313.26 330.577 309.025 332.342 304.533 332.342C300.042 332.342 295.807 330.577 292.63 327.401C292.534 327.305 292.47 327.209 292.374 327.112H295.037C296.352 327.112 297.443 326.022 297.443 324.706C297.443 323.391 296.352 322.3 295.037 322.3H286.535C285.219 322.3 284.128 323.391 284.128 324.706V333.208C284.128 334.524 285.219 335.615 286.535 335.615C287.85 335.615 288.941 334.524 288.941 333.208V330.481C289.037 330.577 289.133 330.706 289.23 330.834C293.304 334.909 298.758 337.187 304.533 337.187C310.308 337.187 315.763 334.941 319.837 330.834C323.88 326.792 326.126 321.37 326.158 315.595C326.158 314.247 325.067 313.188 323.751 313.156Z" fill="white"/>
<path d="M285.251 317.585C286.566 317.585 287.625 316.527 287.657 315.211C287.721 310.816 289.486 306.677 292.566 303.565C295.742 300.389 299.977 298.624 304.469 298.624C308.96 298.624 313.195 300.389 316.372 303.565C316.468 303.661 316.532 303.757 316.628 303.854H313.965C312.65 303.854 311.559 304.945 311.559 306.26C311.559 307.575 312.65 308.666 313.965 308.666H322.467C323.783 308.666 324.874 307.575 324.874 306.26V297.79C324.874 296.475 323.783 295.384 322.467 295.384C321.152 295.384 320.061 296.475 320.061 297.79V300.549C319.965 300.453 319.869 300.325 319.772 300.196C315.698 296.122 310.244 293.844 304.469 293.844C298.694 293.844 293.239 296.09 289.165 300.196C285.154 304.175 282.909 309.5 282.844 315.147C282.812 316.463 283.871 317.553 285.219 317.585C285.251 317.585 285.251 317.585 285.251 317.585Z" fill="white"/>
<g filter="url(#filter6_d_619_2539)">
<g clip-path="url(#clip4_619_2539)">
<rect x="231" y="527" width="143" height="145" rx="71.5" fill="#7D3200"/>
<path d="M265.225 545.725H262.025V564H272.875V561.05H265.225V545.725ZM278.702 564.325C280.627 564.325 282.302 563.45 282.827 562.175L283.052 564H285.727V556.5C285.727 553.075 283.677 551.275 280.352 551.275C277.002 551.275 274.802 553.025 274.802 555.7H277.402C277.402 554.4 278.402 553.65 280.202 553.65C281.752 553.65 282.752 554.325 282.752 556V556.275L279.052 556.55C276.127 556.775 274.477 558.2 274.477 560.475C274.477 562.8 276.077 564.325 278.702 564.325ZM279.702 562.025C278.327 562.025 277.577 561.475 277.577 560.35C277.577 559.35 278.302 558.725 280.202 558.55L282.777 558.35V559C282.777 560.9 281.577 562.025 279.702 562.025ZM297.098 551.65V558.125C297.098 560.475 296.173 561.6 294.248 561.6C292.548 561.6 291.623 560.65 291.623 558.3V551.65H288.573V559.375C288.573 562.4 290.248 564.325 293.098 564.325C294.748 564.325 296.348 563.525 297.098 562.35L297.323 564H300.148V551.65H297.098ZM306.349 564V557.35C306.349 555.35 307.499 554.05 309.374 554.05C310.949 554.05 311.974 555.05 311.974 557.125V564H315.024V556.4C315.024 553.2 313.424 551.275 310.324 551.275C308.649 551.275 307.149 552 306.374 553.25L306.124 551.65H303.299V564H306.349ZM317.295 557.8C317.295 561.725 319.745 564.325 323.495 564.325C326.72 564.325 329.12 562.35 329.495 559.475H326.42C326.095 560.825 325.02 561.575 323.495 561.575C321.545 561.575 320.345 560.125 320.345 557.8C320.345 555.475 321.645 554 323.595 554C325.045 554 326.07 554.725 326.42 556.125H329.47C329.145 553.15 326.845 551.275 323.47 551.275C319.82 551.275 317.295 553.975 317.295 557.8ZM334.815 564V557.25C334.815 555.4 335.94 554.05 337.865 554.05C339.415 554.05 340.44 555.05 340.44 557.125V564H343.49V556.4C343.49 553.2 341.89 551.275 338.84 551.275C337.065 551.275 335.615 552.05 334.84 553.25V545.4H331.765V564H334.815Z" fill="white"/>
<g filter="url(#filter7_d_619_2539)">
<ellipse cx="302.5" cy="642.5" rx="93.5" ry="66.5" fill="white"/>
</g>
<path d="M270.72 609L271.605 606.465H275.7L276.585 609H278.61L274.65 598.035H272.685L268.725 609H270.72ZM273.42 601.305C273.525 601.005 273.615 600.675 273.66 600.465C273.69 600.69 273.795 601.02 273.885 601.305L275.145 604.845H272.175L273.42 601.305ZM279.089 605.13C279.089 607.275 280.469 608.85 282.569 608.85C283.634 608.85 284.549 608.415 285.014 607.725V608.955C285.014 610.185 284.204 610.98 282.944 610.98C281.819 610.98 281.084 610.41 280.964 609.45H279.134C279.359 611.43 280.814 612.645 282.944 612.645C285.344 612.645 286.829 611.1 286.829 608.625V601.59H285.134L285.029 602.61C284.594 601.815 283.724 601.35 282.614 601.35C280.499 601.35 279.089 602.97 279.089 605.13ZM280.934 605.085C280.934 603.87 281.714 602.955 282.929 602.955C284.204 602.955 284.969 603.825 284.969 605.085C284.969 606.375 284.189 607.26 282.929 607.26C281.729 607.26 280.934 606.33 280.934 605.085ZM293.373 601.56C293.073 601.485 292.818 601.455 292.563 601.455C291.573 601.455 290.868 601.95 290.553 602.685L290.448 601.605H288.723V609H290.553V605.4C290.553 603.96 291.378 603.255 292.698 603.255H293.373V601.56ZM297.678 609.195C299.613 609.195 300.963 608.22 301.278 606.6H299.583C299.373 607.305 298.713 607.695 297.708 607.695C296.493 607.695 295.803 607.035 295.668 605.73L301.248 605.715V605.16C301.248 602.85 299.838 601.365 297.618 601.365C295.443 601.365 293.928 602.97 293.928 605.295C293.928 607.59 295.473 609.195 297.678 609.195ZM297.633 602.865C298.728 602.865 299.433 603.54 299.433 604.56H295.713C295.893 603.45 296.553 602.865 297.633 602.865ZM306.028 609.195C307.963 609.195 309.313 608.22 309.628 606.6H307.933C307.723 607.305 307.063 607.695 306.058 607.695C304.843 607.695 304.153 607.035 304.018 605.73L309.598 605.715V605.16C309.598 602.85 308.188 601.365 305.968 601.365C303.793 601.365 302.278 602.97 302.278 605.295C302.278 607.59 303.823 609.195 306.028 609.195ZM305.983 602.865C307.078 602.865 307.783 603.54 307.783 604.56H304.063C304.243 603.45 304.903 602.865 305.983 602.865ZM317.625 609V603.12H319.065V601.59H317.625V599.28H315.795V601.59H314.37V603.12H315.795V609H317.625ZM322.033 609V604.95C322.033 603.84 322.708 603.03 323.863 603.03C324.793 603.03 325.408 603.63 325.408 604.875V609H327.238V604.44C327.238 602.52 326.278 601.365 324.448 601.365C323.383 601.365 322.513 601.83 322.048 602.55V597.84H320.203V609H322.033ZM332.351 609.195C334.286 609.195 335.636 608.22 335.951 606.6H334.256C334.046 607.305 333.386 607.695 332.381 607.695C331.166 607.695 330.476 607.035 330.341 605.73L335.921 605.715V605.16C335.921 602.85 334.511 601.365 332.291 601.365C330.116 601.365 328.601 602.97 328.601 605.295C328.601 607.59 330.146 609.195 332.351 609.195ZM332.306 602.865C333.401 602.865 334.106 603.54 334.106 604.56H330.386C330.566 603.45 331.226 602.865 332.306 602.865ZM249.188 626.75C249.188 628.205 250.358 629.195 252.203 629.195C254.033 629.195 255.308 628.265 255.308 626.765C255.308 625.625 254.678 625.055 253.433 624.77L252.098 624.455C251.468 624.305 251.138 624.035 251.138 623.615C251.138 623.06 251.558 622.73 252.278 622.73C252.983 622.73 253.403 623.135 253.418 623.765H255.158C255.143 622.325 254.018 621.365 252.353 621.365C250.643 621.365 249.413 622.235 249.413 623.69C249.413 624.875 250.058 625.505 251.393 625.805L252.728 626.12C253.388 626.27 253.583 626.54 253.583 626.915C253.583 627.455 253.118 627.8 252.263 627.8C251.423 627.8 250.943 627.395 250.928 626.75H249.188ZM261.727 621.59V625.475C261.727 626.885 261.172 627.56 260.017 627.56C258.997 627.56 258.442 626.99 258.442 625.58V621.59H256.612V626.225C256.612 628.04 257.617 629.195 259.327 629.195C260.317 629.195 261.277 628.715 261.727 628.01L261.862 629H263.557V621.59H261.727ZM264.865 625.28C264.865 627.635 266.335 629.195 268.585 629.195C270.52 629.195 271.96 628.01 272.185 626.285H270.34C270.145 627.095 269.5 627.545 268.585 627.545C267.415 627.545 266.695 626.675 266.695 625.28C266.695 623.885 267.475 623 268.645 623C269.515 623 270.13 623.435 270.34 624.275H272.17C271.975 622.49 270.595 621.365 268.57 621.365C266.38 621.365 264.865 622.985 264.865 625.28ZM273.113 625.28C273.113 627.635 274.583 629.195 276.833 629.195C278.768 629.195 280.208 628.01 280.433 626.285H278.588C278.393 627.095 277.748 627.545 276.833 627.545C275.663 627.545 274.943 626.675 274.943 625.28C274.943 623.885 275.723 623 276.893 623C277.763 623 278.378 623.435 278.588 624.275H280.418C280.223 622.49 278.843 621.365 276.818 621.365C274.628 621.365 273.113 622.985 273.113 625.28ZM285.11 629.195C287.045 629.195 288.395 628.22 288.71 626.6H287.015C286.805 627.305 286.145 627.695 285.14 627.695C283.925 627.695 283.235 627.035 283.1 625.73L288.68 625.715V625.16C288.68 622.85 287.27 621.365 285.05 621.365C282.875 621.365 281.36 622.97 281.36 625.295C281.36 627.59 282.905 629.195 285.11 629.195ZM285.065 622.865C286.16 622.865 286.865 623.54 286.865 624.56H283.145C283.325 623.45 283.985 622.865 285.065 622.865ZM289.574 626.75C289.574 628.205 290.744 629.195 292.589 629.195C294.419 629.195 295.694 628.265 295.694 626.765C295.694 625.625 295.064 625.055 293.819 624.77L292.484 624.455C291.854 624.305 291.524 624.035 291.524 623.615C291.524 623.06 291.944 622.73 292.664 622.73C293.369 622.73 293.789 623.135 293.804 623.765H295.544C295.529 622.325 294.404 621.365 292.739 621.365C291.029 621.365 289.799 622.235 289.799 623.69C289.799 624.875 290.444 625.505 291.779 625.805L293.114 626.12C293.774 626.27 293.969 626.54 293.969 626.915C293.969 627.455 293.504 627.8 292.649 627.8C291.809 627.8 291.329 627.395 291.314 626.75H289.574ZM296.518 626.75C296.518 628.205 297.688 629.195 299.533 629.195C301.363 629.195 302.638 628.265 302.638 626.765C302.638 625.625 302.008 625.055 300.763 624.77L299.428 624.455C298.798 624.305 298.468 624.035 298.468 623.615C298.468 623.06 298.888 622.73 299.608 622.73C300.313 622.73 300.733 623.135 300.748 623.765H302.488C302.473 622.325 301.348 621.365 299.683 621.365C297.973 621.365 296.743 622.235 296.743 623.69C296.743 624.875 297.388 625.505 298.723 625.805L300.058 626.12C300.718 626.27 300.913 626.54 300.913 626.915C300.913 627.455 300.448 627.8 299.593 627.8C298.753 627.8 298.273 627.395 298.258 626.75H296.518ZM307.639 625.28C307.639 627.635 309.109 629.195 311.359 629.195C313.294 629.195 314.734 628.01 314.959 626.285H313.114C312.919 627.095 312.274 627.545 311.359 627.545C310.189 627.545 309.469 626.675 309.469 625.28C309.469 623.885 310.249 623 311.419 623C312.289 623 312.904 623.435 313.114 624.275H314.944C314.749 622.49 313.369 621.365 311.344 621.365C309.154 621.365 307.639 622.985 307.639 625.28ZM320.971 621.56C320.671 621.485 320.416 621.455 320.161 621.455C319.171 621.455 318.466 621.95 318.151 622.685L318.046 621.605H316.321V629H318.151V625.4C318.151 623.96 318.976 623.255 320.296 623.255H320.971V621.56ZM323.125 620.105C323.725 620.105 324.22 619.61 324.22 618.995C324.22 618.38 323.725 617.9 323.125 617.9C322.495 617.9 322 618.38 322 618.995C322 619.61 322.495 620.105 323.125 620.105ZM322.21 629H324.04V621.59H322.21V629ZM328.45 629V623.12H329.89V621.59H328.45V619.28H326.62V621.59H325.195V623.12H326.62V629H328.45ZM334.27 629.195C336.205 629.195 337.555 628.22 337.87 626.6H336.175C335.965 627.305 335.305 627.695 334.3 627.695C333.085 627.695 332.395 627.035 332.26 625.73L337.84 625.715V625.16C337.84 622.85 336.43 621.365 334.21 621.365C332.035 621.365 330.52 622.97 330.52 625.295C330.52 627.59 332.065 629.195 334.27 629.195ZM334.225 622.865C335.32 622.865 336.025 623.54 336.025 624.56H332.305C332.485 623.45 333.145 622.865 334.225 622.865ZM343.954 621.56C343.654 621.485 343.399 621.455 343.144 621.455C342.154 621.455 341.449 621.95 341.134 622.685L341.029 621.605H339.304V629H341.134V625.4C341.134 623.96 341.959 623.255 343.279 623.255H343.954V621.56ZM346.108 620.105C346.708 620.105 347.203 619.61 347.203 618.995C347.203 618.38 346.708 617.9 346.108 617.9C345.478 617.9 344.983 618.38 344.983 618.995C344.983 619.61 345.478 620.105 346.108 620.105ZM345.193 629H347.023V621.59H345.193V629ZM351.119 629.195C352.274 629.195 353.279 628.67 353.594 627.905L353.729 629H355.334V624.5C355.334 622.445 354.104 621.365 352.109 621.365C350.099 621.365 348.779 622.415 348.779 624.02H350.339C350.339 623.24 350.939 622.79 352.019 622.79C352.949 622.79 353.549 623.195 353.549 624.2V624.365L351.329 624.53C349.574 624.665 348.584 625.52 348.584 626.885C348.584 628.28 349.544 629.195 351.119 629.195ZM351.719 627.815C350.894 627.815 350.444 627.485 350.444 626.81C350.444 626.21 350.879 625.835 352.019 625.73L353.564 625.61V626C353.564 627.14 352.844 627.815 351.719 627.815ZM280.651 649H282.781L280.996 646.99C281.551 646.12 281.851 645.025 281.851 643.75H280.066C280.066 644.47 279.961 645.1 279.766 645.625L277.561 643.15C278.926 642.235 279.511 641.365 279.511 640.27C279.511 638.845 278.401 637.855 276.796 637.855C275.176 637.855 273.991 638.905 273.991 640.36C273.991 641.185 274.321 641.86 275.176 642.85C273.496 643.66 272.626 644.755 272.626 646.09C272.626 647.935 274.231 649.195 276.616 649.195C277.936 649.195 279.046 648.835 279.916 648.175L280.651 649ZM275.731 640.345C275.731 639.7 276.136 639.31 276.796 639.31C277.426 639.31 277.816 639.685 277.816 640.33C277.816 641.08 277.441 641.695 276.676 642.145C275.971 641.335 275.731 640.885 275.731 640.345ZM274.561 645.91C274.561 645.055 275.026 644.425 276.061 643.84L278.851 646.975C278.326 647.395 277.651 647.62 276.826 647.62C275.416 647.62 274.561 646.975 274.561 645.91ZM289.213 649V637.84H287.398V649H289.213ZM293.338 649.195C294.493 649.195 295.498 648.67 295.813 647.905L295.948 649H297.553V644.5C297.553 642.445 296.323 641.365 294.328 641.365C292.318 641.365 290.998 642.415 290.998 644.02H292.558C292.558 643.24 293.158 642.79 294.238 642.79C295.168 642.79 295.768 643.195 295.768 644.2V644.365L293.548 644.53C291.793 644.665 290.803 645.52 290.803 646.885C290.803 648.28 291.763 649.195 293.338 649.195ZM293.938 647.815C293.113 647.815 292.663 647.485 292.663 646.81C292.663 646.21 293.098 645.835 294.238 645.73L295.783 645.61V646C295.783 647.14 295.063 647.815 293.938 647.815ZM304.376 641.59V645.475C304.376 646.885 303.821 647.56 302.666 647.56C301.646 647.56 301.091 646.99 301.091 645.58V641.59H299.261V646.225C299.261 648.04 300.266 649.195 301.976 649.195C302.966 649.195 303.926 648.715 304.376 648.01L304.511 649H306.206V641.59H304.376ZM309.926 649V645.01C309.926 643.81 310.616 643.03 311.741 643.03C312.686 643.03 313.301 643.63 313.301 644.875V649H315.131V644.44C315.131 642.52 314.171 641.365 312.311 641.365C311.306 641.365 310.406 641.8 309.941 642.55L309.791 641.59H308.096V649H309.926ZM316.494 645.28C316.494 647.635 317.964 649.195 320.214 649.195C322.149 649.195 323.589 648.01 323.814 646.285H321.969C321.774 647.095 321.129 647.545 320.214 647.545C319.044 647.545 318.324 646.675 318.324 645.28C318.324 643.885 319.104 643 320.274 643C321.144 643 321.759 643.435 321.969 644.275H323.799C323.604 642.49 322.224 641.365 320.199 641.365C318.009 641.365 316.494 642.985 316.494 645.28ZM327.006 649V644.95C327.006 643.84 327.681 643.03 328.836 643.03C329.766 643.03 330.381 643.63 330.381 644.875V649H332.211V644.44C332.211 642.52 331.251 641.365 329.421 641.365C328.356 641.365 327.486 641.83 327.021 642.55V637.84H325.176V649H327.006Z" fill="#7D3200"/>
</g>
</g>
<g filter="url(#filter8_d_619_2539)">
<g clip-path="url(#clip5_619_2539)">
<rect y="405" width="143" height="145" rx="71.5" fill="#873AF2"/>
<path d="M28.125 442V435.45C28.125 433.175 28.1 431.45 27.925 430.35L32.55 442H35.5L40.15 430.325C39.975 431.625 39.975 432.7 39.975 436.375V442H43.075V423.725H39.925L34.025 438.275L28.125 423.725H25.025V442H28.125ZM52.1947 442.325C55.4197 442.325 57.6697 440.7 58.1947 438H55.3697C55.0197 439.175 53.9197 439.825 52.2447 439.825C50.2197 439.825 49.0697 438.725 48.8447 436.55L58.1447 436.525V435.6C58.1447 431.75 55.7947 429.275 52.0947 429.275C48.4697 429.275 45.9447 431.95 45.9447 435.825C45.9447 439.65 48.5197 442.325 52.1947 442.325ZM52.1197 431.775C53.9447 431.775 55.1197 432.9 55.1197 434.6H48.9197C49.2197 432.75 50.3197 431.775 52.1197 431.775ZM64.1387 442.325C66.0637 442.325 67.7387 441.45 68.2637 440.175L68.4887 442H71.1637V434.5C71.1637 431.075 69.1137 429.275 65.7887 429.275C62.4387 429.275 60.2387 431.025 60.2387 433.7H62.8387C62.8387 432.4 63.8387 431.65 65.6387 431.65C67.1887 431.65 68.1887 432.325 68.1887 434V434.275L64.4887 434.55C61.5637 434.775 59.9137 436.2 59.9137 438.475C59.9137 440.8 61.5137 442.325 64.1387 442.325ZM65.1387 440.025C63.7637 440.025 63.0137 439.475 63.0137 438.35C63.0137 437.35 63.7387 436.725 65.6387 436.55L68.2137 436.35V437C68.2137 438.9 67.0137 440.025 65.1387 440.025ZM73.21 438.25C73.21 440.675 75.16 442.325 78.235 442.325C81.285 442.325 83.41 440.775 83.41 438.275C83.41 436.375 82.36 435.425 80.285 434.95L78.06 434.425C77.01 434.175 76.46 433.725 76.46 433.025C76.46 432.1 77.16 431.55 78.36 431.55C79.535 431.55 80.235 432.225 80.26 433.275H83.16C83.135 430.875 81.26 429.275 78.485 429.275C75.635 429.275 73.585 430.725 73.585 433.15C73.585 435.125 74.66 436.175 76.885 436.675L79.11 437.2C80.21 437.45 80.535 437.9 80.535 438.525C80.535 439.425 79.76 440 78.335 440C76.935 440 76.135 439.325 76.11 438.25H73.21ZM94.1072 429.65V436.125C94.1072 438.475 93.1822 439.6 91.2572 439.6C89.5572 439.6 88.6322 438.65 88.6322 436.3V429.65H85.5822V437.375C85.5822 440.4 87.2572 442.325 90.1072 442.325C91.7572 442.325 93.3572 441.525 94.1072 440.35L94.3322 442H97.1572V429.65H94.1072ZM108.057 429.6C107.557 429.475 107.132 429.425 106.707 429.425C105.057 429.425 103.882 430.25 103.357 431.475L103.182 429.675H100.307V442H103.357V436C103.357 433.6 104.732 432.425 106.932 432.425H108.057V429.6ZM115.232 442.325C118.457 442.325 120.707 440.7 121.232 438H118.407C118.057 439.175 116.957 439.825 115.282 439.825C113.257 439.825 112.107 438.725 111.882 436.55L121.182 436.525V435.6C121.182 431.75 118.832 429.275 115.132 429.275C111.507 429.275 108.982 431.95 108.982 435.825C108.982 439.65 111.557 442.325 115.232 442.325ZM115.157 431.775C116.982 431.775 118.157 432.9 118.157 434.6H111.957C112.257 432.75 113.357 431.775 115.157 431.775Z" fill="white"/>
<g filter="url(#filter9_d_619_2539)">
<ellipse cx="71.5" cy="520.5" rx="93.5" ry="66.5" fill="white"/>
</g>
<path d="M33.45 487L34.335 484.465H38.43L39.315 487H41.34L37.38 476.035H35.415L31.455 487H33.45ZM36.15 479.305C36.255 479.005 36.345 478.675 36.39 478.465C36.42 478.69 36.525 479.02 36.615 479.305L37.875 482.845H34.905L36.15 479.305ZM44.275 487V483.01C44.275 481.81 44.965 481.03 46.09 481.03C47.035 481.03 47.65 481.63 47.65 482.875V487H49.48V482.44C49.48 480.52 48.52 479.365 46.66 479.365C45.655 479.365 44.755 479.8 44.29 480.55L44.14 479.59H42.445V487H44.275ZM53.483 487.195C54.638 487.195 55.643 486.67 55.958 485.905L56.093 487H57.698V482.5C57.698 480.445 56.468 479.365 54.473 479.365C52.463 479.365 51.143 480.415 51.143 482.02H52.703C52.703 481.24 53.303 480.79 54.383 480.79C55.313 480.79 55.913 481.195 55.913 482.2V482.365L53.693 482.53C51.938 482.665 50.948 483.52 50.948 484.885C50.948 486.28 51.908 487.195 53.483 487.195ZM54.083 485.815C53.258 485.815 52.808 485.485 52.808 484.81C52.808 484.21 53.243 483.835 54.383 483.73L55.928 483.61V484C55.928 485.14 55.208 485.815 54.083 485.815ZM61.3408 487V475.84H59.5258V487H61.3408ZM62.6154 490.435C63.0204 490.54 63.4704 490.6 63.9804 490.6C65.1954 490.6 65.9754 490.03 66.5304 488.65L70.1604 479.59H68.2704L66.2604 484.99L64.3554 479.59H62.4204L65.4054 487.315L65.1954 487.87C64.8804 488.74 64.4304 488.905 63.7104 488.905H62.6154V490.435ZM70.4688 484.75C70.4688 486.205 71.6388 487.195 73.4838 487.195C75.3138 487.195 76.5888 486.265 76.5888 484.765C76.5888 483.625 75.9588 483.055 74.7138 482.77L73.3788 482.455C72.7488 482.305 72.4188 482.035 72.4188 481.615C72.4188 481.06 72.8388 480.73 73.5588 480.73C74.2638 480.73 74.6838 481.135 74.6988 481.765H76.4388C76.4238 480.325 75.2988 479.365 73.6338 479.365C71.9238 479.365 70.6938 480.235 70.6938 481.69C70.6938 482.875 71.3388 483.505 72.6738 483.805L74.0088 484.12C74.6688 484.27 74.8638 484.54 74.8638 484.915C74.8638 485.455 74.3988 485.8 73.5438 485.8C72.7038 485.8 72.2238 485.395 72.2088 484.75H70.4688ZM81.2971 487.195C83.2321 487.195 84.5821 486.22 84.8971 484.6H83.2021C82.9921 485.305 82.3321 485.695 81.3271 485.695C80.1121 485.695 79.4221 485.035 79.2871 483.73L84.8671 483.715V483.16C84.8671 480.85 83.4571 479.365 81.2371 479.365C79.0621 479.365 77.5471 480.97 77.5471 483.295C77.5471 485.59 79.0921 487.195 81.2971 487.195ZM81.2521 480.865C82.3471 480.865 83.0521 481.54 83.0521 482.56H79.3321C79.5121 481.45 80.1721 480.865 81.2521 480.865ZM92.8947 487V481.12H94.3347V479.59H92.8947V477.28H91.0647V479.59H89.6397V481.12H91.0647V487H92.8947ZM97.3023 487V482.95C97.3023 481.84 97.9773 481.03 99.1323 481.03C100.062 481.03 100.677 481.63 100.677 482.875V487H102.507V482.44C102.507 480.52 101.547 479.365 99.7173 479.365C98.6523 479.365 97.7823 479.83 97.3173 480.55V475.84H95.4723V487H97.3023ZM107.62 487.195C109.555 487.195 110.905 486.22 111.22 484.6H109.525C109.315 485.305 108.655 485.695 107.65 485.695C106.435 485.695 105.745 485.035 105.61 483.73L111.19 483.715V483.16C111.19 480.85 109.78 479.365 107.56 479.365C105.385 479.365 103.87 480.97 103.87 483.295C103.87 485.59 105.415 487.195 107.62 487.195ZM107.575 480.865C108.67 480.865 109.375 481.54 109.375 482.56H105.655C105.835 481.45 106.495 480.865 107.575 480.865ZM30.8552 503.28C30.8552 505.59 32.5202 507.18 34.8152 507.18C37.1102 507.18 38.7752 505.59 38.7752 503.28C38.7752 500.97 37.1102 499.38 34.8152 499.38C32.5202 499.38 30.8552 500.97 30.8552 503.28ZM32.6852 503.28C32.6852 501.93 33.5552 501.015 34.8152 501.015C36.0752 501.015 36.9452 501.93 36.9452 503.28C36.9452 504.63 36.0752 505.545 34.8152 505.545C33.5552 505.545 32.6852 504.63 32.6852 503.28ZM45.075 499.59V503.475C45.075 504.885 44.52 505.56 43.365 505.56C42.345 505.56 41.79 504.99 41.79 503.58V499.59H39.96V504.225C39.96 506.04 40.965 507.195 42.675 507.195C43.665 507.195 44.625 506.715 45.075 506.01L45.21 507H46.905V499.59H45.075ZM51.3151 507V501.12H52.7551V499.59H51.3151V497.28H49.4851V499.59H48.0601V501.12H49.4851V507H51.3151ZM53.3845 503.28C53.3845 505.635 54.8545 507.195 57.1045 507.195C59.0395 507.195 60.4795 506.01 60.7045 504.285H58.8595C58.6645 505.095 58.0195 505.545 57.1045 505.545C55.9345 505.545 55.2145 504.675 55.2145 503.28C55.2145 501.885 55.9945 501 57.1645 501C58.0345 501 58.6495 501.435 58.8595 502.275H60.6895C60.4945 500.49 59.1145 499.365 57.0895 499.365C54.8995 499.365 53.3845 500.985 53.3845 503.28ZM61.6316 503.28C61.6316 505.59 63.2966 507.18 65.5916 507.18C67.8866 507.18 69.5516 505.59 69.5516 503.28C69.5516 500.97 67.8866 499.38 65.5916 499.38C63.2966 499.38 61.6316 500.97 61.6316 503.28ZM63.4616 503.28C63.4616 501.93 64.3316 501.015 65.5916 501.015C66.8516 501.015 67.7216 501.93 67.7216 503.28C67.7216 504.63 66.8516 505.545 65.5916 505.545C64.3316 505.545 63.4616 504.63 63.4616 503.28ZM72.8321 507V502.8C72.8321 501.6 73.5371 501.03 74.4071 501.03C75.2771 501.03 75.8321 501.585 75.8321 502.62V507H77.6621V502.8C77.6621 501.585 78.3371 501.015 79.2221 501.015C80.0921 501.015 80.6621 501.57 80.6621 502.635V507H82.4771V502.155C82.4771 500.445 81.4871 499.365 79.6871 499.365C78.5621 499.365 77.6921 499.92 77.3171 500.775C76.9271 499.92 76.1471 499.365 75.0221 499.365C73.9571 499.365 73.2071 499.845 72.8321 500.46L72.6821 499.59H71.0021V507H72.8321ZM87.5886 507.195C89.5236 507.195 90.8736 506.22 91.1886 504.6H89.4936C89.2836 505.305 88.6236 505.695 87.6186 505.695C86.4036 505.695 85.7136 505.035 85.5786 503.73L91.1586 503.715V503.16C91.1586 500.85 89.7486 499.365 87.5286 499.365C85.3536 499.365 83.8386 500.97 83.8386 503.295C83.8386 505.59 85.3836 507.195 87.5886 507.195ZM87.5436 500.865C88.6386 500.865 89.3436 501.54 89.3436 502.56H85.6236C85.8036 501.45 86.4636 500.865 87.5436 500.865ZM92.0532 504.75C92.0532 506.205 93.2232 507.195 95.0682 507.195C96.8982 507.195 98.1732 506.265 98.1732 504.765C98.1732 503.625 97.5432 503.055 96.2982 502.77L94.9632 502.455C94.3332 502.305 94.0032 502.035 94.0032 501.615C94.0032 501.06 94.4232 500.73 95.1432 500.73C95.8482 500.73 96.2682 501.135 96.2832 501.765H98.0232C98.0082 500.325 96.8832 499.365 95.2182 499.365C93.5082 499.365 92.2782 500.235 92.2782 501.69C92.2782 502.875 92.9232 503.505 94.2582 503.805L95.5932 504.12C96.2532 504.27 96.4482 504.54 96.4482 504.915C96.4482 505.455 95.9832 505.8 95.1282 505.8C94.2882 505.8 93.8082 505.395 93.7932 504.75H92.0532ZM110.925 507H113.055L111.27 504.99C111.825 504.12 112.125 503.025 112.125 501.75H110.34C110.34 502.47 110.235 503.1 110.04 503.625L107.835 501.15C109.2 500.235 109.785 499.365 109.785 498.27C109.785 496.845 108.675 495.855 107.07 495.855C105.45 495.855 104.265 496.905 104.265 498.36C104.265 499.185 104.595 499.86 105.45 500.85C103.77 501.66 102.9 502.755 102.9 504.09C102.9 505.935 104.505 507.195 106.89 507.195C108.21 507.195 109.32 506.835 110.19 506.175L110.925 507ZM106.005 498.345C106.005 497.7 106.41 497.31 107.07 497.31C107.7 497.31 108.09 497.685 108.09 498.33C108.09 499.08 107.715 499.695 106.95 500.145C106.245 499.335 106.005 498.885 106.005 498.345ZM104.835 503.91C104.835 503.055 105.3 502.425 106.335 501.84L109.125 504.975C108.6 505.395 107.925 505.62 107.1 505.62C105.69 505.62 104.835 504.975 104.835 503.91ZM54.7122 519.56C54.4122 519.485 54.1572 519.455 53.9022 519.455C52.9122 519.455 52.2072 519.95 51.8922 520.685L51.7872 519.605H50.0622V527H51.8922V523.4C51.8922 521.96 52.7172 521.255 54.0372 521.255H54.7122V519.56ZM59.0168 527.195C60.9518 527.195 62.3018 526.22 62.6168 524.6H60.9218C60.7118 525.305 60.0518 525.695 59.0468 525.695C57.8318 525.695 57.1418 525.035 57.0068 523.73L62.5868 523.715V523.16C62.5868 520.85 61.1768 519.365 58.9568 519.365C56.7818 519.365 55.2668 520.97 55.2668 523.295C55.2668 525.59 56.8118 527.195 59.0168 527.195ZM58.9718 520.865C60.0668 520.865 60.7718 521.54 60.7718 522.56H57.0518C57.2318 521.45 57.8918 520.865 58.9718 520.865ZM64.0514 530.435H65.8814V526.01C66.3464 526.76 67.3064 527.195 68.4164 527.195C70.6214 527.195 71.8814 525.515 71.8814 523.205C71.8814 520.88 70.5014 519.365 68.4164 519.365C67.2914 519.365 66.3164 519.86 65.8664 520.715L65.7464 519.59H64.0514V530.435ZM65.8964 523.295C65.8964 521.96 66.7214 521.03 67.9814 521.03C69.2714 521.03 70.0364 521.975 70.0364 523.295C70.0364 524.615 69.2714 525.545 67.9814 525.545C66.7214 525.545 65.8964 524.63 65.8964 523.295ZM76.6536 527.195C78.5886 527.195 79.9386 526.22 80.2536 524.6H78.5586C78.3486 525.305 77.6886 525.695 76.6836 525.695C75.4686 525.695 74.7786 525.035 74.6436 523.73L80.2236 523.715V523.16C80.2236 520.85 78.8136 519.365 76.5936 519.365C74.4186 519.365 72.9036 520.97 72.9036 523.295C72.9036 525.59 74.4486 527.195 76.6536 527.195ZM76.6086 520.865C77.7036 520.865 78.4086 521.54 78.4086 522.56H74.6886C74.8686 521.45 75.5286 520.865 76.6086 520.865ZM83.8199 527.195C84.9749 527.195 85.9799 526.67 86.2949 525.905L86.4299 527H88.0349V522.5C88.0349 520.445 86.8049 519.365 84.8099 519.365C82.7999 519.365 81.4799 520.415 81.4799 522.02H83.0399C83.0399 521.24 83.6399 520.79 84.7199 520.79C85.6499 520.79 86.2499 521.195 86.2499 522.2V522.365L84.0299 522.53C82.2749 522.665 81.2849 523.52 81.2849 524.885C81.2849 526.28 82.2449 527.195 83.8199 527.195ZM84.4199 525.815C83.5949 525.815 83.1449 525.485 83.1449 524.81C83.1449 524.21 83.5799 523.835 84.7199 523.73L86.2649 523.61V524C86.2649 525.14 85.5449 525.815 84.4199 525.815ZM92.2502 527V521.12H93.6902V519.59H92.2502V517.28H90.4202V519.59H88.9952V521.12H90.4202V527H92.2502Z" fill="#873AF2"/>
</g>
</g>
<g filter="url(#filter10_d_619_2539)">
<g clip-path="url(#clip6_619_2539)">
<rect y="145" width="143" height="145" rx="71.5" fill="#CE7100"/>
<path d="M52.6 181C57.9 181 61.55 177.275 61.55 171.9C61.55 166.45 57.825 162.725 52.425 162.725H46.025V181H52.6ZM52.125 165.675C55.9 165.675 58.175 168.025 58.175 171.9C58.175 175.7 55.95 178.05 52.3 178.05H49.225V165.675H52.125ZM67.7559 181.325C69.6809 181.325 71.3559 180.45 71.8809 179.175L72.1059 181H74.7809V173.5C74.7809 170.075 72.7309 168.275 69.4059 168.275C66.0559 168.275 63.8559 170.025 63.8559 172.7H66.4559C66.4559 171.4 67.4559 170.65 69.2559 170.65C70.8059 170.65 71.8059 171.325 71.8059 173V173.275L68.1059 173.55C65.1809 173.775 63.5309 175.2 63.5309 177.475C63.5309 179.8 65.1309 181.325 67.7559 181.325ZM68.7559 179.025C67.3809 179.025 66.6309 178.475 66.6309 177.35C66.6309 176.35 67.3559 175.725 69.2559 175.55L71.8309 175.35V176C71.8309 177.9 70.6309 179.025 68.7559 179.025ZM81.8063 181V171.2H84.2063V168.65H81.8063V164.8H78.7563V168.65H76.3813V171.2H78.7563V181H81.8063ZM89.7041 181.325C91.6291 181.325 93.3041 180.45 93.8291 179.175L94.0541 181H96.7291V173.5C96.7291 170.075 94.6791 168.275 91.3541 168.275C88.0041 168.275 85.8041 170.025 85.8041 172.7H88.4041C88.4041 171.4 89.4041 170.65 91.2041 170.65C92.7541 170.65 93.7541 171.325 93.7541 173V173.275L90.0541 173.55C87.1291 173.775 85.4791 175.2 85.4791 177.475C85.4791 179.8 87.0791 181.325 89.7041 181.325ZM90.7041 179.025C89.3291 179.025 88.5791 178.475 88.5791 177.35C88.5791 176.35 89.3041 175.725 91.2041 175.55L93.7791 175.35V176C93.7791 177.9 92.5791 179.025 90.7041 179.025Z" fill="white"/>
<g filter="url(#filter11_d_619_2539)">
<ellipse cx="71.5" cy="260.5" rx="93.5" ry="66.5" fill="white"/>
</g>
<path d="M42.319 217.805H45.529V227H47.449V217.805H50.659V216.035H42.319V217.805ZM53.6866 227V222.95C53.6866 221.84 54.3616 221.03 55.5166 221.03C56.4466 221.03 57.0616 221.63 57.0616 222.875V227H58.8916V222.44C58.8916 220.52 57.9316 219.365 56.1016 219.365C55.0366 219.365 54.1666 219.83 53.7016 220.55V215.84H51.8566V227H53.6866ZM65.3396 219.56C65.0396 219.485 64.7846 219.455 64.5296 219.455C63.5396 219.455 62.8346 219.95 62.5196 220.685L62.4146 219.605H60.6896V227H62.5196V223.4C62.5196 221.96 63.3446 221.255 64.6646 221.255H65.3396V219.56ZM65.8943 223.28C65.8943 225.59 67.5593 227.18 69.8543 227.18C72.1493 227.18 73.8143 225.59 73.8143 223.28C73.8143 220.97 72.1493 219.38 69.8543 219.38C67.5593 219.38 65.8943 220.97 65.8943 223.28ZM67.7243 223.28C67.7243 221.93 68.5943 221.015 69.8543 221.015C71.1143 221.015 71.9843 221.93 71.9843 223.28C71.9843 224.63 71.1143 225.545 69.8543 225.545C68.5943 225.545 67.7243 224.63 67.7243 223.28ZM80.114 219.59V223.475C80.114 224.885 79.559 225.56 78.404 225.56C77.384 225.56 76.829 224.99 76.829 223.58V219.59H74.999V224.225C74.999 226.04 76.004 227.195 77.714 227.195C78.704 227.195 79.664 226.715 80.114 226.01L80.249 227H81.944V219.59H80.114ZM83.4142 223.13C83.4142 225.275 84.7942 226.85 86.8942 226.85C87.9592 226.85 88.8742 226.415 89.3392 225.725V226.955C89.3392 228.185 88.5292 228.98 87.2692 228.98C86.1442 228.98 85.4092 228.41 85.2892 227.45H83.4592C83.6842 229.43 85.1392 230.645 87.2692 230.645C89.6692 230.645 91.1542 229.1 91.1542 226.625V219.59H89.4592L89.3542 220.61C88.9192 219.815 88.0492 219.35 86.9392 219.35C84.8242 219.35 83.4142 220.97 83.4142 223.13ZM85.2592 223.085C85.2592 221.87 86.0392 220.955 87.2542 220.955C88.5292 220.955 89.2942 221.825 89.2942 223.085C89.2942 224.375 88.5142 225.26 87.2542 225.26C86.0542 225.26 85.2592 224.33 85.2592 223.085ZM94.878 227V222.95C94.878 221.84 95.553 221.03 96.708 221.03C97.638 221.03 98.253 221.63 98.253 222.875V227H100.083V222.44C100.083 220.52 99.123 219.365 97.293 219.365C96.228 219.365 95.358 219.83 94.893 220.55V215.84H93.048V227H94.878ZM25.8203 244.75C25.8203 246.205 26.9903 247.195 28.8353 247.195C30.6653 247.195 31.9403 246.265 31.9403 244.765C31.9403 243.625 31.3103 243.055 30.0653 242.77L28.7303 242.455C28.1003 242.305 27.7703 242.035 27.7703 241.615C27.7703 241.06 28.1903 240.73 28.9103 240.73C29.6153 240.73 30.0353 241.135 30.0503 241.765H31.7903C31.7753 240.325 30.6503 239.365 28.9853 239.365C27.2753 239.365 26.0453 240.235 26.0453 241.69C26.0453 242.875 26.6903 243.505 28.0253 243.805L29.3603 244.12C30.0203 244.27 30.2153 244.54 30.2153 244.915C30.2153 245.455 29.7503 245.8 28.8953 245.8C28.0553 245.8 27.5753 245.395 27.5603 244.75H25.8203ZM38.3587 239.59V243.475C38.3587 244.885 37.8037 245.56 36.6487 245.56C35.6287 245.56 35.0737 244.99 35.0737 243.58V239.59H33.2437V244.225C33.2437 246.04 34.2487 247.195 35.9587 247.195C36.9487 247.195 37.9087 246.715 38.3587 246.01L38.4937 247H40.1887V239.59H38.3587ZM46.7288 239.56C46.4288 239.485 46.1738 239.455 45.9188 239.455C44.9288 239.455 44.2238 239.95 43.9088 240.685L43.8038 239.605H42.0788V247H43.9088V243.4C43.9088 241.96 44.7338 241.255 46.0538 241.255H46.7288V239.56ZM50.2872 247H52.0872L55.1772 239.59H53.2872L51.9372 242.995C51.6222 243.805 51.3522 244.585 51.2472 245.05C51.1572 244.645 50.9022 243.88 50.5872 242.995L49.2972 239.59H47.3472L50.2872 247ZM59.178 247.195C61.113 247.195 62.463 246.22 62.778 244.6H61.083C60.873 245.305 60.213 245.695 59.208 245.695C57.993 245.695 57.303 245.035 57.168 243.73L62.748 243.715V243.16C62.748 240.85 61.338 239.365 59.118 239.365C56.943 239.365 55.428 240.97 55.428 243.295C55.428 245.59 56.973 247.195 59.178 247.195ZM59.133 240.865C60.228 240.865 60.933 241.54 60.933 242.56H57.213C57.393 241.45 58.053 240.865 59.133 240.865ZM63.3186 250.435C63.7236 250.54 64.1736 250.6 64.6836 250.6C65.8986 250.6 66.6786 250.03 67.2336 248.65L70.8636 239.59H68.9736L66.9636 244.99L65.0586 239.59H63.1236L66.1086 247.315L65.8986 247.87C65.5836 248.74 65.1336 248.905 64.4136 248.905H63.3186V250.435ZM71.1719 244.75C71.1719 246.205 72.3419 247.195 74.1869 247.195C76.0169 247.195 77.2919 246.265 77.2919 244.765C77.2919 243.625 76.6619 243.055 75.4169 242.77L74.0819 242.455C73.4519 242.305 73.1219 242.035 73.1219 241.615C73.1219 241.06 73.5419 240.73 74.2619 240.73C74.9669 240.73 75.3869 241.135 75.4019 241.765H77.1419C77.1269 240.325 76.0019 239.365 74.3369 239.365C72.6269 239.365 71.3969 240.235 71.3969 241.69C71.3969 242.875 72.0419 243.505 73.3769 243.805L74.7119 244.12C75.3719 244.27 75.5669 244.54 75.5669 244.915C75.5669 245.455 75.1019 245.8 74.2469 245.8C73.4069 245.8 72.9269 245.395 72.9119 244.75H71.1719ZM81.0863 246.34C81.0863 245.41 80.5463 244.795 79.7963 244.795C79.1213 244.795 78.6563 245.275 78.6563 245.995C78.6563 246.595 79.1363 247.03 79.7213 247.03C79.9013 247.03 80.0363 247 80.1563 246.94C80.1563 247.465 79.6463 247.87 78.9713 247.99V248.725C80.1863 248.575 81.0863 247.585 81.0863 246.34ZM88.6845 247H90.4695L91.4895 243.82C91.8645 242.605 91.9995 242.08 92.0745 241.735C92.1345 242.11 92.2995 242.815 92.5995 243.79L93.6195 247H95.3295L97.8945 239.59H95.9595L94.9695 242.77C94.8345 243.235 94.5945 244.12 94.4745 244.675C94.3845 244.18 94.0845 243.07 93.9945 242.77L93.0045 239.59H91.1445L90.1245 242.77C89.8845 243.505 89.7495 243.97 89.6145 244.69C89.4795 244 89.3295 243.355 89.1645 242.77L88.1895 239.59H86.2845L88.6845 247ZM99.9176 238.105C100.518 238.105 101.013 237.61 101.013 236.995C101.013 236.38 100.518 235.9 99.9176 235.9C99.2876 235.9 98.7926 236.38 98.7926 236.995C98.7926 237.61 99.2876 238.105 99.9176 238.105ZM99.0026 247H100.833V239.59H99.0026V247ZM102.153 244.75C102.153 246.205 103.323 247.195 105.168 247.195C106.998 247.195 108.273 246.265 108.273 244.765C108.273 243.625 107.643 243.055 106.398 242.77L105.063 242.455C104.433 242.305 104.103 242.035 104.103 241.615C104.103 241.06 104.523 240.73 105.243 240.73C105.948 240.73 106.368 241.135 106.383 241.765H108.123C108.108 240.325 106.983 239.365 105.318 239.365C103.608 239.365 102.378 240.235 102.378 241.69C102.378 242.875 103.023 243.505 104.358 243.805L105.693 244.12C106.353 244.27 106.548 244.54 106.548 244.915C106.548 245.455 106.083 245.8 105.228 245.8C104.388 245.8 103.908 245.395 103.893 244.75H102.153ZM111.497 247V242.95C111.497 241.84 112.172 241.03 113.327 241.03C114.257 241.03 114.872 241.63 114.872 242.875V247H116.702V242.44C116.702 240.52 115.742 239.365 113.912 239.365C112.847 239.365 111.977 239.83 111.512 240.55V235.84H109.667V247H111.497ZM46.0991 267V255.84H44.2841V267H46.0991ZM48.9337 258.105C49.5337 258.105 50.0287 257.61 50.0287 256.995C50.0287 256.38 49.5337 255.9 48.9337 255.9C48.3037 255.9 47.8087 256.38 47.8087 256.995C47.8087 257.61 48.3037 258.105 48.9337 258.105ZM48.0187 267H49.8487V259.59H48.0187V267ZM51.1694 264.75C51.1694 266.205 52.3394 267.195 54.1844 267.195C56.0144 267.195 57.2894 266.265 57.2894 264.765C57.2894 263.625 56.6594 263.055 55.4144 262.77L54.0794 262.455C53.4494 262.305 53.1194 262.035 53.1194 261.615C53.1194 261.06 53.5394 260.73 54.2594 260.73C54.9644 260.73 55.3844 261.135 55.3994 261.765H57.1394C57.1244 260.325 55.9994 259.365 54.3344 259.365C52.6244 259.365 51.3944 260.235 51.3944 261.69C51.3944 262.875 52.0394 263.505 53.3744 263.805L54.7094 264.12C55.3694 264.27 55.5644 264.54 55.5644 264.915C55.5644 265.455 55.0994 265.8 54.2444 265.8C53.4044 265.8 52.9244 265.395 52.9094 264.75H51.1694ZM61.2028 267V261.12H62.6428V259.59H61.2028V257.28H59.3728V259.59H57.9478V261.12H59.3728V267H61.2028ZM63.2104 264.75C63.2104 266.205 64.3804 267.195 66.2254 267.195C68.0554 267.195 69.3304 266.265 69.3304 264.765C69.3304 263.625 68.7004 263.055 67.4554 262.77L66.1204 262.455C65.4904 262.305 65.1604 262.035 65.1604 261.615C65.1604 261.06 65.5804 260.73 66.3004 260.73C67.0054 260.73 67.4254 261.135 67.4404 261.765H69.1804C69.1654 260.325 68.0404 259.365 66.3754 259.365C64.6654 259.365 63.4354 260.235 63.4354 261.69C63.4354 262.875 64.0804 263.505 65.4154 263.805L66.7504 264.12C67.4104 264.27 67.6054 264.54 67.6054 264.915C67.6054 265.455 67.1404 265.8 66.2854 265.8C65.4454 265.8 64.9654 265.395 64.9504 264.75H63.2104ZM73.1249 266.34C73.1249 265.41 72.5849 264.795 71.8349 264.795C71.1599 264.795 70.6949 265.275 70.6949 265.995C70.6949 266.595 71.1749 267.03 71.7599 267.03C71.9399 267.03 72.0749 267 72.1949 266.94C72.1949 267.465 71.6849 267.87 71.0099 267.99V268.725C72.2249 268.575 73.1249 267.585 73.1249 266.34ZM82.4031 267.195C84.3381 267.195 85.6881 266.22 86.0031 264.6H84.3081C84.0981 265.305 83.4381 265.695 82.4331 265.695C81.2181 265.695 80.5281 265.035 80.3931 263.73L85.9731 263.715V263.16C85.9731 260.85 84.5631 259.365 82.3431 259.365C80.1681 259.365 78.6531 260.97 78.6531 263.295C78.6531 265.59 80.1981 267.195 82.4031 267.195ZM82.3581 260.865C83.4531 260.865 84.1581 261.54 84.1581 262.56H80.4381C80.6181 261.45 81.2781 260.865 82.3581 260.865ZM89.8844 267V261.12H91.3244V259.59H89.8844V257.28H88.0544V259.59H86.6294V261.12H88.0544V267H89.8844ZM91.9538 263.28C91.9538 265.635 93.4238 267.195 95.6738 267.195C97.6088 267.195 99.0488 266.01 99.2738 264.285H97.4288C97.2338 265.095 96.5888 265.545 95.6738 265.545C94.5038 265.545 93.7838 264.675 93.7838 263.28C93.7838 261.885 94.5638 261 95.7338 261C96.6038 261 97.2188 261.435 97.4288 262.275H99.2588C99.0638 260.49 97.6838 259.365 95.6588 259.365C93.4688 259.365 91.9538 260.985 91.9538 263.28Z" fill="#CE7100"/>
</g>
</g>
</g>
<defs>
<filter id="filter0_d_619_2539" x="219" y="0" width="171" height="173" filterUnits="userSpaceOnUse" color-interpolation-filters="sRGB">
<feFlood flood-opacity="0" result="BackgroundImageFix"/>
<feColorMatrix in="SourceAlpha" type="matrix" values="0 0 0 0 0 0 0 0 0 0 0 0 0 0 0 0 0 0 127 0" result="hardAlpha"/>
<feOffset dy="4"/>
<feGaussianBlur stdDeviation="7"/>
<feComposite in2="hardAlpha" operator="out"/>
<feColorMatrix type="matrix" values="0 0 0 0 0 0 0 0 0 0 0 0 0 0 0 0 0 0 0.25 0"/>
<feBlend mode="normal" in2="BackgroundImageFix" result="effect1_dropShadow_619_2539"/>
<feBlend mode="normal" in="SourceGraphic" in2="effect1_dropShadow_619_2539" result="shape"/>
</filter>
<filter id="filter1_d_619_2539" x="198" y="44" width="213" height="159" filterUnits="userSpaceOnUse" color-interpolation-filters="sRGB">
<feFlood flood-opacity="0" result="BackgroundImageFix"/>
<feColorMatrix in="SourceAlpha" type="matrix" values="0 0 0 0 0 0 0 0 0 0 0 0 0 0 0 0 0 0 127 0" result="hardAlpha"/>
<feOffset dy="-2"/>
<feGaussianBlur stdDeviation="6.5"/>
<feComposite in2="hardAlpha" operator="out"/>
<feColorMatrix type="matrix" values="0 0 0 0 0 0 0 0 0 0 0 0 0 0 0 0 0 0 0.25 0"/>
<feBlend mode="normal" in2="BackgroundImageFix" result="effect1_dropShadow_619_2539"/>
<feBlend mode="normal" in="SourceGraphic" in2="effect1_dropShadow_619_2539" result="shape"/>
</filter>
<filter id="filter2_d_619_2539" x="437" y="135" width="171" height="173" filterUnits="userSpaceOnUse" color-interpolation-filters="sRGB">
<feFlood flood-opacity="0" result="BackgroundImageFix"/>
<feColorMatrix in="SourceAlpha" type="matrix" values="0 0 0 0 0 0 0 0 0 0 0 0 0 0 0 0 0 0 127 0" result="hardAlpha"/>
<feOffset dy="4"/>
<feGaussianBlur stdDeviation="7"/>
<feComposite in2="hardAlpha" operator="out"/>
<feColorMatrix type="matrix" values="0 0 0 0 0 0 0 0 0 0 0 0 0 0 0 0 0 0 0.25 0"/>
<feBlend mode="normal" in2="BackgroundImageFix" result="effect1_dropShadow_619_2539"/>
<feBlend mode="normal" in="SourceGraphic" in2="effect1_dropShadow_619_2539" result="shape"/>
</filter>
<filter id="filter3_d_619_2539" x="416" y="179" width="213" height="159" filterUnits="userSpaceOnUse" color-interpolation-filters="sRGB">
<feFlood flood-opacity="0" result="BackgroundImageFix"/>
<feColorMatrix in="SourceAlpha" type="matrix" values="0 0 0 0 0 0 0 0 0 0 0 0 0 0 0 0 0 0 127 0" result="hardAlpha"/>
<feOffset dy="-2"/>
<feGaussianBlur stdDeviation="6.5"/>
<feComposite in2="hardAlpha" operator="out"/>
<feColorMatrix type="matrix" values="0 0 0 0 0 0 0 0 0 0 0 0 0 0 0 0 0 0 0.25 0"/>
<feBlend mode="normal" in2="BackgroundImageFix" result="effect1_dropShadow_619_2539"/>
<feBlend mode="normal" in="SourceGraphic" in2="effect1_dropShadow_619_2539" result="shape"/>
</filter>
<filter id="filter4_d_619_2539" x="438" y="396" width="169" height="171" filterUnits="userSpaceOnUse" color-interpolation-filters="sRGB">
<feFlood flood-opacity="0" result="BackgroundImageFix"/>
<feColorMatrix in="SourceAlpha" type="matrix" values="0 0 0 0 0 0 0 0 0 0 0 0 0 0 0 0 0 0 127 0" result="hardAlpha"/>
<feOffset dy="4"/>
<feGaussianBlur stdDeviation="6.5"/>
<feComposite in2="hardAlpha" operator="out"/>
<feColorMatrix type="matrix" values="0 0 0 0 0 0 0 0 0 0 0 0 0 0 0 0 0 0 0.25 0"/>
<feBlend mode="normal" in2="BackgroundImageFix" result="effect1_dropShadow_619_2539"/>
<feBlend mode="normal" in="SourceGraphic" in2="effect1_dropShadow_619_2539" result="shape"/>
</filter>
<filter id="filter5_d_619_2539" x="416" y="439" width="213" height="159" filterUnits="userSpaceOnUse" color-interpolation-filters="sRGB">
<feFlood flood-opacity="0" result="BackgroundImageFix"/>
<feColorMatrix in="SourceAlpha" type="matrix" values="0 0 0 0 0 0 0 0 0 0 0 0 0 0 0 0 0 0 127 0" result="hardAlpha"/>
<feOffset dy="-2"/>
<feGaussianBlur stdDeviation="6.5"/>
<feComposite in2="hardAlpha" operator="out"/>
<feColorMatrix type="matrix" values="0 0 0 0 0 0 0 0 0 0 0 0 0 0 0 0 0 0 0.25 0"/>
<feBlend mode="normal" in2="BackgroundImageFix" result="effect1_dropShadow_619_2539"/>
<feBlend mode="normal" in="SourceGraphic" in2="effect1_dropShadow_619_2539" result="shape"/>
</filter>
<filter id="filter6_d_619_2539" x="218" y="518" width="169" height="171" filterUnits="userSpaceOnUse" color-interpolation-filters="sRGB">
<feFlood flood-opacity="0" result="BackgroundImageFix"/>
<feColorMatrix in="SourceAlpha" type="matrix" values="0 0 0 0 0 0 0 0 0 0 0 0 0 0 0 0 0 0 127 0" result="hardAlpha"/>
<feOffset dy="4"/>
<feGaussianBlur stdDeviation="6.5"/>
<feComposite in2="hardAlpha" operator="out"/>
<feColorMatrix type="matrix" values="0 0 0 0 0 0 0 0 0 0 0 0 0 0 0 0 0 0 0.25 0"/>
<feBlend mode="normal" in2="BackgroundImageFix" result="effect1_dropShadow_619_2539"/>
<feBlend mode="normal" in="SourceGraphic" in2="effect1_dropShadow_619_2539" result="shape"/>
</filter>
<filter id="filter7_d_619_2539" x="196" y="561" width="213" height="159" filterUnits="userSpaceOnUse" color-interpolation-filters="sRGB">
<feFlood flood-opacity="0" result="BackgroundImageFix"/>
<feColorMatrix in="SourceAlpha" type="matrix" values="0 0 0 0 0 0 0 0 0 0 0 0 0 0 0 0 0 0 127 0" result="hardAlpha"/>
<feOffset dy="-2"/>
<feGaussianBlur stdDeviation="6.5"/>
<feComposite in2="hardAlpha" operator="out"/>
<feColorMatrix type="matrix" values="0 0 0 0 0 0 0 0 0 0 0 0 0 0 0 0 0 0 0.25 0"/>
<feBlend mode="normal" in2="BackgroundImageFix" result="effect1_dropShadow_619_2539"/>
<feBlend mode="normal" in="SourceGraphic" in2="effect1_dropShadow_619_2539" result="shape"/>
</filter>
<filter id="filter8_d_619_2539" x="-10" y="399" width="163" height="165" filterUnits="userSpaceOnUse" color-interpolation-filters="sRGB">
<feFlood flood-opacity="0" result="BackgroundImageFix"/>
<feColorMatrix in="SourceAlpha" type="matrix" values="0 0 0 0 0 0 0 0 0 0 0 0 0 0 0 0 0 0 127 0" result="hardAlpha"/>
<feOffset dy="4"/>
<feGaussianBlur stdDeviation="5"/>
<feComposite in2="hardAlpha" operator="out"/>
<feColorMatrix type="matrix" values="0 0 0 0 0 0 0 0 0 0 0 0 0 0 0 0 0 0 0.25 0"/>
<feBlend mode="normal" in2="BackgroundImageFix" result="effect1_dropShadow_619_2539"/>
<feBlend mode="normal" in="SourceGraphic" in2="effect1_dropShadow_619_2539" result="shape"/>
</filter>
<filter id="filter9_d_619_2539" x="-35" y="439" width="213" height="159" filterUnits="userSpaceOnUse" color-interpolation-filters="sRGB">
<feFlood flood-opacity="0" result="BackgroundImageFix"/>
<feColorMatrix in="SourceAlpha" type="matrix" values="0 0 0 0 0 0 0 0 0 0 0 0 0 0 0 0 0 0 127 0" result="hardAlpha"/>
<feOffset dy="-2"/>
<feGaussianBlur stdDeviation="6.5"/>
<feComposite in2="hardAlpha" operator="out"/>
<feColorMatrix type="matrix" values="0 0 0 0 0 0 0 0 0 0 0 0 0 0 0 0 0 0 0.25 0"/>
<feBlend mode="normal" in2="BackgroundImageFix" result="effect1_dropShadow_619_2539"/>
<feBlend mode="normal" in="SourceGraphic" in2="effect1_dropShadow_619_2539" result="shape"/>
</filter>
<filter id="filter10_d_619_2539" x="-13" y="136" width="169" height="171" filterUnits="userSpaceOnUse" color-interpolation-filters="sRGB">
<feFlood flood-opacity="0" result="BackgroundImageFix"/>
<feColorMatrix in="SourceAlpha" type="matrix" values="0 0 0 0 0 0 0 0 0 0 0 0 0 0 0 0 0 0 127 0" result="hardAlpha"/>
<feOffset dy="4"/>
<feGaussianBlur stdDeviation="6.5"/>
<feComposite in2="hardAlpha" operator="out"/>
<feColorMatrix type="matrix" values="0 0 0 0 0 0 0 0 0 0 0 0 0 0 0 0 0 0 0.25 0"/>
<feBlend mode="normal" in2="BackgroundImageFix" result="effect1_dropShadow_619_2539"/>
<feBlend mode="normal" in="SourceGraphic" in2="effect1_dropShadow_619_2539" result="shape"/>
</filter>
<filter id="filter11_d_619_2539" x="-35" y="179" width="213" height="159" filterUnits="userSpaceOnUse" color-interpolation-filters="sRGB">
<feFlood flood-opacity="0" result="BackgroundImageFix"/>
<feColorMatrix in="SourceAlpha" type="matrix" values="0 0 0 0 0 0 0 0 0 0 0 0 0 0 0 0 0 0 127 0" result="hardAlpha"/>
<feOffset dy="-2"/>
<feGaussianBlur stdDeviation="6.5"/>
<feComposite in2="hardAlpha" operator="out"/>
<feColorMatrix type="matrix" values="0 0 0 0 0 0 0 0 0 0 0 0 0 0 0 0 0 0 0.25 0"/>
<feBlend mode="normal" in2="BackgroundImageFix" result="effect1_dropShadow_619_2539"/>
<feBlend mode="normal" in="SourceGraphic" in2="effect1_dropShadow_619_2539" result="shape"/>
</filter>
<clipPath id="clip0_619_2539">
<rect width="606" height="680" fill="white"/>
</clipPath>
<clipPath id="clip1_619_2539">
<rect x="233" y="10" width="143" height="145" rx="71.5" fill="white"/>
</clipPath>
<clipPath id="clip2_619_2539">
<rect x="451" y="145" width="143" height="145" rx="71.5" fill="white"/>
</clipPath>
<clipPath id="clip3_619_2539">
<rect x="451" y="405" width="143" height="145" rx="71.5" fill="white"/>
</clipPath>
<clipPath id="clip4_619_2539">
<rect x="231" y="527" width="143" height="145" rx="71.5" fill="white"/>
</clipPath>
<clipPath id="clip5_619_2539">
<rect y="405" width="143" height="145" rx="71.5" fill="white"/>
</clipPath>
<clipPath id="clip6_619_2539">
<rect y="145" width="143" height="145" rx="71.5" fill="white"/>
</clipPath>
</defs>
</svg>
