<svg width="88" height="98" viewBox="0 0 88 98" fill="none" xmlns="http://www.w3.org/2000/svg">
<g clip-path="url(#clip0_619_2575)">
<circle cx="43.5" cy="58.5" r="38.5" fill="#A3D2C6" fill-opacity="0.63"/>
<path d="M43.5445 9.21387C42.7917 9.21387 42.0225 9.27933 41.2534 9.44298C36.7365 10.3103 33.1362 13.9598 32.2852 18.4766C31.4997 22.7479 33.0707 26.6756 35.9183 29.2122C36.622 29.8341 36.9984 30.7014 36.9984 31.6179V35.3983C36.9984 37.1985 38.4713 38.6713 40.2714 38.6713H40.7297C41.3024 39.6532 42.3335 40.3078 43.5445 40.3078C44.7555 40.3078 45.8029 39.6532 46.3593 38.6713H46.8175C48.6177 38.6713 50.0906 37.1985 50.0906 35.3983V31.6179C50.0906 30.7178 50.4506 29.8341 51.138 29.2286C53.5109 27.1338 55.0002 24.0735 55.0002 20.6695C55.0002 14.3362 49.8778 9.21387 43.5445 9.21387ZM46.8175 35.3983H40.2714V33.7617H46.8175V35.3983ZM46.8175 32.1252H40.2714V30.4887H46.8175V32.1252ZM44.3627 22.977V27.2156H42.7262V22.977L39.7314 19.9986L40.8933 18.8366L43.5445 21.4878L46.1957 18.8366L47.3576 19.9986L44.3627 22.977Z" fill="#32A071"/>
<path d="M44 77.9639C49.9767 77.9639 55.2567 79.3939 59.5467 81.2639C63.5067 83.0239 66 86.9839 66 91.2739V97.2139H22V91.3105C22 86.9839 24.4933 83.0239 28.4533 81.3005C32.7433 79.3939 38.0233 77.9639 44 77.9639ZM14.6667 78.8805C18.7 78.8805 22 75.5805 22 71.5472C22 67.5139 18.7 64.2139 14.6667 64.2139C10.6333 64.2139 7.33333 67.5139 7.33333 71.5472C7.33333 75.5805 10.6333 78.8805 14.6667 78.8805ZM18.81 82.9139C17.4533 82.6939 16.0967 82.5472 14.6667 82.5472C11.0367 82.5472 7.59 83.3172 4.47333 84.6739C1.76 85.8472 0 88.4872 0 91.4572V97.2139H16.5V91.3105C16.5 88.2672 17.3433 85.4072 18.81 82.9139ZM73.3333 78.8805C77.3667 78.8805 80.6667 75.5805 80.6667 71.5472C80.6667 67.5139 77.3667 64.2139 73.3333 64.2139C69.3 64.2139 66 67.5139 66 71.5472C66 75.5805 69.3 78.8805 73.3333 78.8805ZM88 91.4572C88 88.4872 86.24 85.8472 83.5267 84.6739C80.41 83.3172 76.9633 82.5472 73.3333 82.5472C71.9033 82.5472 70.5467 82.6939 69.19 82.9139C70.6567 85.4072 71.5 88.2672 71.5 91.3105V97.2139H88V91.4572ZM44 53.2139C50.0867 53.2139 55 58.1272 55 64.2139C55 70.3005 50.0867 75.2139 44 75.2139C37.9133 75.2139 33 70.3005 33 64.2139C33 58.1272 37.9133 53.2139 44 53.2139Z" fill="#2DA771"/>
<line x1="44.4583" y1="3.25716" x2="44.4583" y2="6.00716" stroke="#2DA771" stroke-width="0.916667" stroke-linecap="round"/>
<line x1="32.8224" y1="5.94208" x2="34.0058" y2="8.42443" stroke="#2DA771" stroke-width="0.916667" stroke-linecap="round"/>
<line x1="55.2068" y1="6.17747" x2="53.7946" y2="8.53722" stroke="#2DA771" stroke-width="0.916667" stroke-linecap="round"/>
<line x1="51.7678" y1="0.612466" x2="50.0629" y2="6.79849" stroke="#2DA771" stroke-width="0.916667" stroke-linecap="round"/>
<line x1="37.4057" y1="0.350279" x2="38.7715" y2="6.61992" stroke="#2DA771" stroke-width="0.916667" stroke-linecap="round"/>
</g>
<defs>
<clipPath id="clip0_619_2575">
<rect width="88" height="97.2141" fill="white"/>
</clipPath>
</defs>
</svg>
