<svg width="43" height="43" viewBox="0 0 43 43" fill="none" xmlns="http://www.w3.org/2000/svg">
<circle cx="21.5257" cy="21.473" r="20.973" stroke="#D4D4D8"/>
<path fill-rule="evenodd" clip-rule="evenodd" d="M22.4563 11.083C16.9486 11.083 12.5176 15.514 12.5176 21.0218C12.5176 25.4114 15.375 29.1384 19.3091 30.4636C19.806 30.5464 19.9716 30.2565 19.9716 29.9667C19.9716 29.7182 19.9716 29.097 19.9716 28.2688C17.1971 28.89 16.6173 26.9436 16.6173 26.9436C16.1618 25.7841 15.4992 25.4942 15.4992 25.4942C14.5882 24.873 15.582 24.873 15.582 24.873C16.5759 24.9559 17.1143 25.9083 17.1143 25.9083C17.9839 27.4406 19.4333 26.985 20.0131 26.7366C20.0959 26.074 20.3444 25.6599 20.6342 25.4114C18.4394 25.1629 16.1204 24.2933 16.1204 20.4834C16.1204 19.4067 16.4931 18.4957 17.1557 17.8331C17.0728 17.5846 16.7001 16.5907 17.2385 15.1827C17.2385 15.1827 18.0667 14.9343 19.9716 16.218C20.7585 16.011 21.6281 15.8867 22.4563 15.8867C23.2846 15.8867 24.1542 16.011 24.941 16.218C26.846 14.9343 27.6742 15.1827 27.6742 15.1827C28.2125 16.5493 27.8812 17.5432 27.757 17.8331C28.3782 18.5371 28.7923 19.4067 28.7923 20.4834C28.7923 24.2933 26.4733 25.1215 24.237 25.37C24.6097 25.6599 24.8996 26.281 24.8996 27.1921C24.8996 28.5173 24.8996 29.5939 24.8996 29.9252C24.8996 30.1737 25.0653 30.505 25.6036 30.4222C29.5377 29.1384 32.3951 25.4114 32.3951 21.0218C32.3951 15.514 27.9641 11.083 22.4563 11.083Z" fill="#090914"/>
</svg>
