<svg width="164" height="59" viewBox="0 0 164 59" fill="none" xmlns="http://www.w3.org/2000/svg">
<g clip-path="url(#clip0_433_2110)">
<rect x="0.5" y="0.5" width="163" height="58" rx="6.5" fill="black" stroke="white"/>
<path d="M82.6399 31.5244C79.8933 31.5244 77.6547 33.6254 77.6547 36.5191C77.6547 39.3952 79.8933 41.5138 82.6399 41.5138C85.3877 41.5138 87.6264 39.3952 87.6264 36.5191C87.6252 33.6254 85.3866 31.5244 82.6399 31.5244ZM82.6399 39.5479C81.1347 39.5479 79.8372 38.2995 79.8372 36.5203C79.8372 34.7223 81.1358 33.4927 82.6399 33.4927C84.1452 33.4927 85.4426 34.7223 85.4426 36.5203C85.4426 38.2983 84.1452 39.5479 82.6399 39.5479ZM71.7632 31.5244C69.0166 31.5244 66.7779 33.6254 66.7779 36.5191C66.7779 39.3952 69.0166 41.5138 71.7632 41.5138C74.511 41.5138 76.7496 39.3952 76.7496 36.5191C76.7496 33.6254 74.511 31.5244 71.7632 31.5244ZM71.7632 39.5479C70.2579 39.5479 68.9605 38.2995 68.9605 36.5203C68.9605 34.7223 70.2591 33.4927 71.7632 33.4927C73.2685 33.4927 74.5659 34.7223 74.5659 36.5203C74.567 38.2983 73.2685 39.5479 71.7632 39.5479ZM58.8265 33.0581V35.1767H63.869C63.7183 36.3688 63.3236 37.239 62.721 37.8438C61.9877 38.5813 60.8397 39.3952 58.8265 39.3952C55.7225 39.3952 53.2959 36.8784 53.2959 33.7569C53.2959 30.6353 55.7225 28.1186 58.8265 28.1186C60.5011 28.1186 61.7238 28.781 62.6265 29.6324L64.113 28.1374C62.8518 26.9266 61.1784 26 58.8265 26C54.5746 26 51 29.4809 51 33.7569C51 38.0329 54.5746 41.5138 58.8265 41.5138C61.1212 41.5138 62.853 40.7563 64.2065 39.3376C65.5985 37.9378 66.0317 35.9695 66.0317 34.3805C66.0317 33.8896 65.9943 33.4351 65.9184 33.057H58.8265V33.0581ZM111.736 34.7035C111.323 33.5878 110.062 31.5244 107.485 31.5244C104.926 31.5244 102.799 33.549 102.799 36.5191C102.799 39.3189 104.907 41.5138 107.729 41.5138C110.005 41.5138 111.322 40.1139 111.868 39.3001L110.175 38.1644C109.611 38.9971 108.839 39.5455 107.729 39.5455C106.619 39.5455 105.829 39.0346 105.321 38.0317L111.962 35.2695L111.736 34.7035ZM104.963 36.3688C104.907 34.438 106.45 33.4551 107.56 33.4551C108.426 33.4551 109.159 33.8908 109.404 34.5144L104.963 36.3688ZM99.5646 41.212H101.746V26.5308H99.5646V41.212ZM95.9889 32.6412H95.9141C95.4248 32.054 94.4836 31.5244 93.2994 31.5244C90.8156 31.5244 88.5396 33.7193 88.5396 36.539C88.5396 39.3388 90.8156 41.515 93.2994 41.515C94.4847 41.515 95.4248 40.9853 95.9141 40.3805H95.9889V41.0992C95.9889 43.01 94.9729 44.0317 93.3368 44.0317C92.0009 44.0317 91.1729 43.0675 90.8343 42.2537L88.9343 43.0487C89.4796 44.3723 90.9277 46 93.3368 46C95.8954 46 98.0593 44.4862 98.0593 40.7962V31.8285H95.99V32.6412H95.9889ZM93.4875 39.5479C91.9822 39.5479 90.7222 38.2795 90.7222 36.539C90.7222 34.7786 91.9822 33.4927 93.4875 33.4927C94.9729 33.4927 96.1395 34.7786 96.1395 36.539C96.1395 38.2795 94.9729 39.5479 93.4875 39.5479ZM121.959 26.5308H116.738V41.212H118.916V35.65H121.958C124.373 35.65 126.748 33.892 126.748 31.091C126.748 28.2901 124.374 26.5308 121.959 26.5308ZM122.015 33.6066H118.916V28.5743H122.015C123.644 28.5743 124.569 29.9307 124.569 31.091C124.569 32.2278 123.644 33.6066 122.015 33.6066ZM135.482 31.4985C133.904 31.4985 132.271 32.1973 131.595 33.7463L133.528 34.5578C133.942 33.7463 134.713 33.4809 135.519 33.4809C136.646 33.4809 137.792 34.1609 137.811 35.3693V35.5208C137.416 35.2942 136.57 34.9548 135.538 34.9548C133.454 34.9548 131.331 36.1069 131.331 38.2595C131.331 40.2243 133.04 41.4891 134.955 41.4891C136.42 41.4891 137.228 40.828 137.735 40.0528H137.81V41.1861H139.914V35.5573C139.915 32.9524 137.979 31.4985 135.482 31.4985ZM135.218 39.5443C134.506 39.5443 133.51 39.185 133.51 38.2971C133.51 37.1638 134.75 36.7293 135.821 36.7293C136.777 36.7293 137.229 36.9372 137.811 37.2202C137.641 38.5813 136.477 39.5443 135.218 39.5443ZM147.577 31.8191L145.079 38.1844H145.004L142.412 31.8191H140.064L143.952 40.7152L141.736 45.6641H144.008L150 31.8191H147.577ZM127.951 41.212H130.129V26.5308H127.951V41.212Z" fill="white"/>
<path d="M58.1828 17.7718C58.1828 18.7076 57.8891 19.4523 57.3006 20.0084C56.6328 20.6694 55.7613 20.9999 54.6909 20.9999C53.6654 20.9999 52.7927 20.665 52.0764 19.995C51.3588 19.3239 51 18.4932 51 17.5016C51 16.509 51.3588 15.6782 52.0764 15.0082C52.7927 14.3372 53.6654 14.0022 54.6909 14.0022C55.2 14.0022 55.6867 14.096 56.1485 14.2824C56.6115 14.47 56.9821 14.719 57.2592 15.0306L56.6352 15.6201C56.1651 15.0898 55.5174 14.8251 54.6897 14.8251C53.9413 14.8251 53.2948 15.073 52.7489 15.5688C52.203 16.0646 51.9307 16.7088 51.9307 17.5005C51.9307 18.2922 52.203 18.9365 52.7489 19.4322C53.2948 19.928 53.9413 20.1759 54.6897 20.1759C55.483 20.1759 56.1449 19.9269 56.6742 19.4278C57.0176 19.1028 57.2166 18.6506 57.2698 18.0711H54.6897V17.266H58.1319C58.1674 17.4413 58.1828 17.6099 58.1828 17.7718Z" fill="white"/>
<path d="M63.6416 14.9737H60.4066V17.0975H63.3243V17.9025H60.4066V20.0263H63.6416V20.8504H59.4937V14.1508H63.6416V14.9737Z" fill="white"/>
<path d="M67.491 20.8504H66.5781V14.9737H64.5935V14.1508H69.4756V14.9737H67.491V20.8504Z" fill="white"/>
<path d="M73.0077 20.8504V14.1508H73.9206V20.8504H73.0077Z" fill="white"/>
<path d="M77.9693 20.8504H77.0564V14.9737H75.0718V14.1508H79.9539V14.9737H77.9693V20.8504Z" fill="white"/>
<path d="M89.1955 19.985C88.4969 20.6617 87.629 21 86.5905 21C85.552 21 84.6841 20.6617 83.9867 19.985C83.288 19.3083 82.9399 18.4798 82.9399 17.5006C82.9399 16.5213 83.288 15.6928 83.9867 15.0161C84.6841 14.3394 85.552 14 86.5905 14C87.623 14 88.4898 14.3406 89.1908 15.0206C89.8918 15.7006 90.2423 16.5269 90.2423 17.5006C90.2423 18.4798 89.893 19.3083 89.1955 19.985ZM84.6604 19.4234C85.1862 19.9258 85.8291 20.1759 86.5905 20.1759C87.3519 20.1759 87.996 19.9247 88.5206 19.4234C89.0463 18.9209 89.3104 18.2799 89.3104 17.5006C89.3104 16.7212 89.0463 16.0802 88.5206 15.5778C87.996 15.0753 87.3519 14.8252 86.5905 14.8252C85.8291 14.8252 85.1862 15.0764 84.6604 15.5778C84.1359 16.0802 83.8718 16.7212 83.8718 17.5006C83.8718 18.2799 84.1359 18.9209 84.6604 19.4234Z" fill="white"/>
<path d="M91.5235 20.8504V14.1508H92.6342L96.0871 19.3619H96.1261L96.0871 18.0712V14.1508H97V20.8504H96.0468L92.4341 15.3857H92.395L92.4341 16.6765V20.8504H91.5235Z" fill="white"/>
<path d="M58.1828 17.7718C58.1828 18.7076 57.8891 19.4523 57.3006 20.0084C56.6328 20.6694 55.7613 20.9999 54.6909 20.9999C53.6654 20.9999 52.7927 20.665 52.0764 19.995C51.3588 19.3239 51 18.4932 51 17.5016C51 16.509 51.3588 15.6782 52.0764 15.0082C52.7927 14.3372 53.6654 14.0022 54.6909 14.0022C55.2 14.0022 55.6867 14.096 56.1485 14.2824C56.6115 14.47 56.9821 14.719 57.2592 15.0306L56.6352 15.6201C56.1651 15.0898 55.5174 14.8251 54.6897 14.8251C53.9413 14.8251 53.2948 15.073 52.7489 15.5688C52.203 16.0646 51.9307 16.7088 51.9307 17.5005C51.9307 18.2922 52.203 18.9365 52.7489 19.4322C53.2948 19.928 53.9413 20.1759 54.6897 20.1759C55.483 20.1759 56.1449 19.9269 56.6742 19.4278C57.0176 19.1028 57.2166 18.6506 57.2698 18.0711H54.6897V17.266H58.1319C58.1674 17.4413 58.1828 17.6099 58.1828 17.7718Z" stroke="white" stroke-width="0.2" stroke-miterlimit="10"/>
<path d="M63.6416 14.9737H60.4066V17.0975H63.3243V17.9025H60.4066V20.0263H63.6416V20.8504H59.4937V14.1508H63.6416V14.9737Z" stroke="white" stroke-width="0.2" stroke-miterlimit="10"/>
<path d="M67.491 20.8504H66.5781V14.9737H64.5935V14.1508H69.4756V14.9737H67.491V20.8504Z" stroke="white" stroke-width="0.2" stroke-miterlimit="10"/>
<path d="M73.0077 20.8504V14.1508H73.9206V20.8504H73.0077Z" stroke="white" stroke-width="0.2" stroke-miterlimit="10"/>
<path d="M77.9693 20.8504H77.0564V14.9737H75.0718V14.1508H79.9539V14.9737H77.9693V20.8504Z" stroke="white" stroke-width="0.2" stroke-miterlimit="10"/>
<path d="M89.1955 19.985C88.4969 20.6617 87.629 21 86.5905 21C85.552 21 84.6841 20.6617 83.9867 19.985C83.288 19.3083 82.9399 18.4798 82.9399 17.5006C82.9399 16.5213 83.288 15.6928 83.9867 15.0161C84.6841 14.3394 85.552 14 86.5905 14C87.623 14 88.4898 14.3406 89.1908 15.0206C89.8918 15.7006 90.2423 16.5269 90.2423 17.5006C90.2423 18.4798 89.893 19.3083 89.1955 19.985ZM84.6604 19.4234C85.1862 19.9258 85.8291 20.1759 86.5905 20.1759C87.3519 20.1759 87.996 19.9247 88.5206 19.4234C89.0463 18.9209 89.3104 18.2799 89.3104 17.5006C89.3104 16.7212 89.0463 16.0802 88.5206 15.5778C87.996 15.0753 87.3519 14.8252 86.5905 14.8252C85.8291 14.8252 85.1862 15.0764 84.6604 15.5778C84.1359 16.0802 83.8718 16.7212 83.8718 17.5006C83.8718 18.2799 84.1359 18.9209 84.6604 19.4234Z" stroke="white" stroke-width="0.2" stroke-miterlimit="10"/>
<path d="M91.5235 20.8504V14.1508H92.6342L96.0871 19.3619H96.1261L96.0871 18.0712V14.1508H97V20.8504H96.0468L92.4341 15.3857H92.395L92.4341 16.6765V20.8504H91.5235Z" stroke="white" stroke-width="0.2" stroke-miterlimit="10"/>
<g filter="url(#filter0_ii_433_2110)">
<path d="M14.5445 14.7909C14.2023 15.1531 14 15.7152 14 16.4432V42.4511C14 43.1802 14.2023 43.7411 14.5445 44.1033L14.6315 44.188L29.2007 29.6188V29.4471V29.2754L14.6315 14.7051L14.5445 14.7909Z" fill="url(#paint0_linear_433_2110)"/>
<path d="M34.0568 34.4771L29.2012 29.6191V29.4474V29.2757L34.058 24.4189L34.1673 24.4813L39.9214 27.7505C41.5642 28.6842 41.5642 30.2118 39.9214 31.1467L34.1673 34.4159L34.0568 34.4771Z" fill="url(#paint1_linear_433_2110)"/>
<g filter="url(#filter1_i_433_2110)">
<path d="M34.1673 34.4146L29.1999 29.4473L14.5449 44.1035C15.0859 44.6773 15.9808 44.7479 16.9886 44.1764L34.1673 34.4146Z" fill="url(#paint2_linear_433_2110)"/>
</g>
<path d="M34.1673 24.48L16.9886 14.7194C15.9808 14.1467 15.0859 14.2185 14.5449 14.7923L29.2011 29.4485L34.1673 24.48Z" fill="url(#paint3_linear_433_2110)"/>
</g>
</g>
<defs>
<filter id="filter0_ii_433_2110" x="14" y="14.3242" width="27.1536" height="30.2471" filterUnits="userSpaceOnUse" color-interpolation-filters="sRGB">
<feFlood flood-opacity="0" result="BackgroundImageFix"/>
<feBlend mode="normal" in="SourceGraphic" in2="BackgroundImageFix" result="shape"/>
<feColorMatrix in="SourceAlpha" type="matrix" values="0 0 0 0 0 0 0 0 0 0 0 0 0 0 0 0 0 0 127 0" result="hardAlpha"/>
<feOffset dy="-0.15"/>
<feComposite in2="hardAlpha" operator="arithmetic" k2="-1" k3="1"/>
<feColorMatrix type="matrix" values="0 0 0 0 0 0 0 0 0 0 0 0 0 0 0 0 0 0 0.12 0"/>
<feBlend mode="normal" in2="shape" result="effect1_innerShadow_433_2110"/>
<feColorMatrix in="SourceAlpha" type="matrix" values="0 0 0 0 0 0 0 0 0 0 0 0 0 0 0 0 0 0 127 0" result="hardAlpha"/>
<feOffset dy="0.15"/>
<feComposite in2="hardAlpha" operator="arithmetic" k2="-1" k3="1"/>
<feColorMatrix type="matrix" values="0 0 0 0 1 0 0 0 0 1 0 0 0 0 1 0 0 0 0.25 0"/>
<feBlend mode="normal" in2="effect1_innerShadow_433_2110" result="effect2_innerShadow_433_2110"/>
</filter>
<filter id="filter1_i_433_2110" x="14.5449" y="29.4473" width="19.6223" height="15.124" filterUnits="userSpaceOnUse" color-interpolation-filters="sRGB">
<feFlood flood-opacity="0" result="BackgroundImageFix"/>
<feBlend mode="normal" in="SourceGraphic" in2="BackgroundImageFix" result="shape"/>
<feColorMatrix in="SourceAlpha" type="matrix" values="0 0 0 0 0 0 0 0 0 0 0 0 0 0 0 0 0 0 127 0" result="hardAlpha"/>
<feOffset dy="-0.15"/>
<feComposite in2="hardAlpha" operator="arithmetic" k2="-1" k3="1"/>
<feColorMatrix type="matrix" values="0 0 0 0 0 0 0 0 0 0 0 0 0 0 0 0 0 0 0.08 0"/>
<feBlend mode="normal" in2="shape" result="effect1_innerShadow_433_2110"/>
</filter>
<linearGradient id="paint0_linear_433_2110" x1="27.9092" y1="16.168" x2="8.17398" y2="35.9032" gradientUnits="userSpaceOnUse">
<stop stop-color="#00A0FF"/>
<stop offset="0.0066" stop-color="#00A1FF"/>
<stop offset="0.2601" stop-color="#00BEFF"/>
<stop offset="0.5122" stop-color="#00D2FF"/>
<stop offset="0.7604" stop-color="#00DFFF"/>
<stop offset="1" stop-color="#00E3FF"/>
</linearGradient>
<linearGradient id="paint1_linear_433_2110" x1="42.0599" y1="29.4474" x2="13.6061" y2="29.4474" gradientUnits="userSpaceOnUse">
<stop stop-color="#FFE000"/>
<stop offset="0.4087" stop-color="#FFBD00"/>
<stop offset="0.7754" stop-color="#FFA500"/>
<stop offset="1" stop-color="#FF9C00"/>
</linearGradient>
<linearGradient id="paint2_linear_433_2110" x1="31.4697" y1="32.1448" x2="4.70623" y2="58.9083" gradientUnits="userSpaceOnUse">
<stop stop-color="#FF3A44"/>
<stop offset="1" stop-color="#C31162"/>
</linearGradient>
<linearGradient id="paint3_linear_433_2110" x1="10.854" y1="6.13457" x2="22.8046" y2="18.0852" gradientUnits="userSpaceOnUse">
<stop stop-color="#32A071"/>
<stop offset="0.0685" stop-color="#2DA771"/>
<stop offset="0.4762" stop-color="#15CF74"/>
<stop offset="0.8009" stop-color="#06E775"/>
<stop offset="1" stop-color="#00F076"/>
</linearGradient>
<clipPath id="clip0_433_2110">
<rect width="164" height="59" fill="white"/>
</clipPath>
</defs>
</svg>
