<svg width="49" height="49" viewBox="0 0 49 49" fill="none" xmlns="http://www.w3.org/2000/svg">
<g filter="url(#filter0_b_78_1568)">
<circle cx="24.5" cy="24.5" r="24.5" fill="white" fill-opacity="0.63"/>
<circle cx="24.5" cy="24.5" r="24" stroke="#4F5155" stroke-opacity="0.35"/>
</g>
<path opacity="0.4" d="M31.9764 23.5883V28.255C31.9764 28.5583 31.9647 28.85 31.9297 29.13C31.6613 32.28 29.8063 33.8433 26.388 33.8433H25.9214C25.6297 33.8433 25.3497 33.9833 25.1747 34.2167L23.7747 36.0833C23.1564 36.9117 22.153 36.9117 21.5347 36.0833L20.1347 34.2167C19.983 34.0183 19.6447 33.8433 19.388 33.8433H18.9214C15.1997 33.8433 13.333 32.9217 13.333 28.255V23.5883C13.333 20.17 14.908 18.315 18.0464 18.0467C18.3264 18.0117 18.618 18 18.9214 18H26.388C30.1097 18 31.9764 19.8667 31.9764 23.5883Z" fill="#7150FF"/>
<path d="M22.6559 27.3333C22.0026 27.3333 21.4893 26.8083 21.4893 26.1667C21.4893 25.525 22.0143 25 22.6559 25C23.2976 25 23.8226 25.525 23.8226 26.1667C23.8226 26.8083 23.3093 27.3333 22.6559 27.3333Z" fill="#7150FF"/>
<path d="M26.738 27.3333C26.0846 27.3333 25.5713 26.8083 25.5713 26.1667C25.5713 25.525 26.0963 25 26.738 25C27.3796 25 27.9046 25.525 27.9046 26.1667C27.9046 26.8083 27.3796 27.3333 26.738 27.3333Z" fill="#7150FF"/>
<path d="M18.5827 27.3333C17.9293 27.3333 17.416 26.8083 17.416 26.1667C17.416 25.525 17.941 25 18.5827 25C19.2243 25 19.7493 25.525 19.7493 26.1667C19.7493 26.8083 19.2243 27.3333 18.5827 27.3333Z" fill="#7150FF"/>
<path d="M36.6435 18.9214V23.588C36.6435 27.018 35.0685 28.8614 31.9302 29.1297C31.9652 28.8497 31.9769 28.558 31.9769 28.2547V23.588C31.9769 19.8664 30.1102 17.9997 26.3885 17.9997H18.9219C18.6185 17.9997 18.3269 18.0114 18.0469 18.0464C18.3152 14.908 20.1702 13.333 23.5885 13.333H31.0552C34.7769 13.333 36.6435 15.1997 36.6435 18.9214Z" fill="#7150FF"/>
<defs>
<filter id="filter0_b_78_1568" x="-100" y="-100" width="249" height="249" filterUnits="userSpaceOnUse" color-interpolation-filters="sRGB">
<feFlood flood-opacity="0" result="BackgroundImageFix"/>
<feGaussianBlur in="BackgroundImageFix" stdDeviation="50"/>
<feComposite in2="SourceAlpha" operator="in" result="effect1_backgroundBlur_78_1568"/>
<feBlend mode="normal" in="SourceGraphic" in2="effect1_backgroundBlur_78_1568" result="shape"/>
</filter>
</defs>
</svg>
