<svg width="82" height="82" viewBox="0 0 82 82" fill="none" xmlns="http://www.w3.org/2000/svg">
<g filter="url(#filter0_d_641_3025)">
<circle cx="41" cy="37" r="33" fill="white" stroke="#6648E5" stroke-width="8"/>
<path opacity="0.4" d="M41.3003 57.3545C52.3759 57.3545 61.3545 48.3759 61.3545 37.3003C61.3545 26.2247 52.3759 17.2461 41.3003 17.2461C30.2247 17.2461 21.2461 26.2247 21.2461 37.3003C21.2461 48.3759 30.2247 57.3545 41.3003 57.3545Z" fill="#6648E5"/>
<path d="M48.3796 35.2347L42.3633 29.2184C41.7818 28.6368 40.8192 28.6368 40.2376 29.2184L34.2213 35.2347C33.6398 35.8162 33.6398 36.7788 34.2213 37.3604C34.8029 37.942 35.7655 37.942 36.3471 37.3604L39.7964 33.9111V44.3192C39.7964 45.1414 40.4782 45.8233 41.3005 45.8233C42.1227 45.8233 42.8045 45.1414 42.8045 44.3192V33.9111L46.2539 37.3604C46.5547 37.6612 46.9357 37.8016 47.3167 37.8016C47.6978 37.8016 48.0788 37.6612 48.3796 37.3604C48.9612 36.7788 48.9612 35.8162 48.3796 35.2347Z" fill="#6648E5"/>
</g>
<defs>
<filter id="filter0_d_641_3025" x="0" y="0" width="82" height="82" filterUnits="userSpaceOnUse" color-interpolation-filters="sRGB">
<feFlood flood-opacity="0" result="BackgroundImageFix"/>
<feColorMatrix in="SourceAlpha" type="matrix" values="0 0 0 0 0 0 0 0 0 0 0 0 0 0 0 0 0 0 127 0" result="hardAlpha"/>
<feOffset dy="4"/>
<feGaussianBlur stdDeviation="2"/>
<feComposite in2="hardAlpha" operator="out"/>
<feColorMatrix type="matrix" values="0 0 0 0 0 0 0 0 0 0 0 0 0 0 0 0 0 0 0.25 0"/>
<feBlend mode="normal" in2="BackgroundImageFix" result="effect1_dropShadow_641_3025"/>
<feBlend mode="normal" in="SourceGraphic" in2="effect1_dropShadow_641_3025" result="shape"/>
</filter>
</defs>
</svg>
