<svg width="50" height="50" viewBox="0 0 50 50" fill="none" xmlns="http://www.w3.org/2000/svg">
<g filter="url(#filter0_b_78_1545)">
<circle cx="25" cy="25" r="25" fill="white" fill-opacity="0.63"/>
<circle cx="25" cy="25" r="24.5" stroke="#4F5155" stroke-opacity="0.35"/>
</g>
<path d="M25.0812 21.4416C25.0346 21.4416 24.9646 21.4416 24.9062 21.4416C23.6812 21.3949 22.7129 20.4033 22.7129 19.1666C22.7129 17.9066 23.7279 16.8916 24.9879 16.8916C26.2479 16.8916 27.2629 17.9183 27.2629 19.1666C27.2746 20.4033 26.3062 21.4066 25.0812 21.4416Z" fill="#7150FF"/>
<path d="M21.7917 24.9531C20.24 25.9915 20.24 27.6831 21.7917 28.7215C23.5533 29.8998 26.4467 29.8998 28.2083 28.7215C29.76 27.6831 29.76 25.9915 28.2083 24.9531C26.4467 23.7865 23.565 23.7865 21.7917 24.9531Z" fill="#7150FF"/>
<path opacity="0.4" d="M32 13.333H18C16.0633 13.333 14.5 14.8847 14.5 16.798V29.5263C14.5 31.4397 16.0633 32.9913 18 32.9913H18.8867C19.82 32.9913 20.7067 33.353 21.36 34.0063L23.355 35.978C24.265 36.8763 25.7467 36.8763 26.6567 35.978L28.6517 34.0063C29.305 33.353 30.2033 32.9913 31.125 32.9913H32C33.9367 32.9913 35.5 31.4397 35.5 29.5263V16.798C35.5 14.8847 33.9367 13.333 32 13.333ZM25 16.8913C26.26 16.8913 27.275 17.918 27.275 19.1663C27.275 20.403 26.295 21.3947 25.0817 21.4413C25.035 21.4413 24.965 21.4413 24.9067 21.4413C23.6817 21.3947 22.7133 20.403 22.7133 19.1663C22.725 17.918 23.74 16.8913 25 16.8913ZM28.2083 28.7213C26.4467 29.8997 23.5533 29.8997 21.7917 28.7213C20.24 27.6947 20.24 25.9913 21.7917 24.953C23.565 23.7747 26.4583 23.7747 28.2083 24.953C29.76 25.9913 29.76 27.683 28.2083 28.7213Z" fill="#7150FF"/>
<defs>
<filter id="filter0_b_78_1545" x="-100" y="-100" width="250" height="250" filterUnits="userSpaceOnUse" color-interpolation-filters="sRGB">
<feFlood flood-opacity="0" result="BackgroundImageFix"/>
<feGaussianBlur in="BackgroundImageFix" stdDeviation="50"/>
<feComposite in2="SourceAlpha" operator="in" result="effect1_backgroundBlur_78_1545"/>
<feBlend mode="normal" in="SourceGraphic" in2="effect1_backgroundBlur_78_1545" result="shape"/>
</filter>
</defs>
</svg>
