<svg width="49" height="49" viewBox="0 0 49 49" fill="none" xmlns="http://www.w3.org/2000/svg">
<g filter="url(#filter0_b_78_1589)">
<circle cx="24.5" cy="24.5" r="24.5" fill="white" fill-opacity="0.63"/>
<circle cx="24.5" cy="24.5" r="24" stroke="#4F5155" stroke-opacity="0.35"/>
</g>
<path opacity="0.4" d="M21.4997 13.333C18.443 13.333 15.958 15.818 15.958 18.8747C15.958 21.873 18.303 24.2997 21.3597 24.4047C21.453 24.393 21.5463 24.393 21.6163 24.4047C21.6397 24.4047 21.6513 24.4047 21.6747 24.4047C21.6863 24.4047 21.6863 24.4047 21.698 24.4047C24.6847 24.2997 27.0297 21.873 27.0413 18.8747C27.0413 15.818 24.5563 13.333 21.4997 13.333Z" fill="#7150FF"/>
<path d="M27.4271 27.5084C24.1721 25.3384 18.8638 25.3384 15.5854 27.5084C14.1038 28.5 13.2871 29.8417 13.2871 31.2767C13.2871 32.7117 14.1038 34.0417 15.5738 35.0217C17.2071 36.1184 19.3538 36.6667 21.5004 36.6667C23.6471 36.6667 25.7938 36.1184 27.4271 35.0217C28.8971 34.03 29.7138 32.7 29.7138 31.2534C29.7021 29.8184 28.8971 28.4884 27.4271 27.5084Z" fill="#7150FF"/>
<path opacity="0.4" d="M34.3219 19.5631C34.5086 21.8265 32.8986 23.8098 30.6702 24.0781C30.6586 24.0781 30.6586 24.0781 30.6469 24.0781H30.6119C30.5419 24.0781 30.4719 24.0781 30.4136 24.1015C29.2819 24.1598 28.2436 23.7981 27.4619 23.1331C28.6636 22.0598 29.3519 20.4498 29.2119 18.6998C29.1302 17.7548 28.8036 16.8915 28.3136 16.1565C28.7569 15.9348 29.2702 15.7948 29.7952 15.7481C32.0819 15.5498 34.1236 17.2531 34.3219 19.5631Z" fill="#7150FF"/>
<path d="M36.6556 30.3551C36.5623 31.4868 35.8389 32.4668 34.6256 33.1318C33.4589 33.7735 31.9889 34.0768 30.5306 34.0418C31.3706 33.2835 31.8606 32.3385 31.9539 31.3351C32.0706 29.8885 31.3823 28.5001 30.0056 27.3918C29.2239 26.7735 28.3139 26.2835 27.3223 25.9218C29.9006 25.1751 33.1439 25.6768 35.1389 27.2868C36.2123 28.1501 36.7606 29.2351 36.6556 30.3551Z" fill="#7150FF"/>
<defs>
<filter id="filter0_b_78_1589" x="-100" y="-100" width="249" height="249" filterUnits="userSpaceOnUse" color-interpolation-filters="sRGB">
<feFlood flood-opacity="0" result="BackgroundImageFix"/>
<feGaussianBlur in="BackgroundImageFix" stdDeviation="50"/>
<feComposite in2="SourceAlpha" operator="in" result="effect1_backgroundBlur_78_1589"/>
<feBlend mode="normal" in="SourceGraphic" in2="effect1_backgroundBlur_78_1589" result="shape"/>
</filter>
</defs>
</svg>
