<svg width="49" height="49" viewBox="0 0 49 49" fill="none" xmlns="http://www.w3.org/2000/svg">
<g filter="url(#filter0_b_78_1557)">
<circle cx="24.5" cy="24.5" r="24.5" fill="white" fill-opacity="0.63"/>
<circle cx="24.5" cy="24.5" r="24" stroke="#4F5155" stroke-opacity="0.35"/>
</g>
<path opacity="0.4" d="M32.5485 30.6347L33.0035 34.3213C33.1201 35.2897 32.0818 35.9663 31.2535 35.4646L26.3651 32.5597C25.8285 32.5597 25.3035 32.5247 24.7902 32.4547C25.6535 31.4397 26.1668 30.1563 26.1668 28.768C26.1668 25.4547 23.2968 22.7714 19.7501 22.7714C18.3968 22.7714 17.1485 23.1563 16.1102 23.833C16.0752 23.5413 16.0635 23.2497 16.0635 22.9463C16.0635 17.638 20.6718 13.333 26.3651 13.333C32.0585 13.333 36.6668 17.638 36.6668 22.9463C36.6668 26.0963 35.0452 28.8847 32.5485 30.6347Z" fill="#7150FF"/>
<path d="M26.1663 28.7681C26.1663 30.1564 25.653 31.4398 24.7897 32.4548C23.6347 33.8548 21.803 34.7531 19.7497 34.7531L16.7047 36.5614C16.1913 36.8764 15.538 36.4448 15.608 35.8498L15.8997 33.5515C14.3363 32.4665 13.333 30.7281 13.333 28.7681C13.333 26.7148 14.4297 24.9065 16.1097 23.8331C17.148 23.1565 18.3963 22.7715 19.7497 22.7715C23.2963 22.7715 26.1663 25.4548 26.1663 28.7681Z" fill="#7150FF"/>
<defs>
<filter id="filter0_b_78_1557" x="-100" y="-100" width="249" height="249" filterUnits="userSpaceOnUse" color-interpolation-filters="sRGB">
<feFlood flood-opacity="0" result="BackgroundImageFix"/>
<feGaussianBlur in="BackgroundImageFix" stdDeviation="50"/>
<feComposite in2="SourceAlpha" operator="in" result="effect1_backgroundBlur_78_1557"/>
<feBlend mode="normal" in="SourceGraphic" in2="effect1_backgroundBlur_78_1557" result="shape"/>
</filter>
</defs>
</svg>
