<svg width="91" height="60" viewBox="0 0 91 60" fill="none" xmlns="http://www.w3.org/2000/svg">
<g clip-path="url(#clip0_619_2644)">
<path d="M85.3368 8.22013L83.2138 6.09712L80.5186 8.80735L82.6416 10.9304L85.3368 8.22013ZM74.1195 2.33292H71.1081V6.77468H74.1195V2.33292ZM84.6592 20.3258H89.1763V17.3145H84.6592V20.3258ZM68.0967 26.6346V33.877H77.1308V26.6346C79.826 25.0687 81.6479 22.1627 81.6479 18.8201C81.6479 13.8363 77.5976 9.78605 72.6138 9.78605C67.63 9.78605 63.5797 13.8363 63.5797 18.8201C63.5797 22.1627 65.4016 25.0687 68.0967 26.6346ZM60.5683 20.3258V17.3145H56.0513V20.3258H60.5683ZM64.724 8.7923L62.0288 6.08207L59.9058 8.20508L62.616 10.9002L64.724 8.7923Z" fill="#2DA771"/>
<path d="M76.3806 17.9579H75.7878V16.3771C75.7878 15.9424 75.4321 15.5867 74.9974 15.5867H73.4166V14.9939C73.4166 14.4485 72.9739 14.0059 72.4286 14.0059C71.8832 14.0059 71.4406 14.4485 71.4406 14.9939V15.5867H69.8597C69.425 15.5867 69.0733 15.9424 69.0733 16.3771V17.8788H69.6621C70.251 17.8788 70.7292 18.357 70.7292 18.9459C70.7292 19.5347 70.251 20.0129 69.6621 20.0129H69.0693V21.5147C69.0693 21.9494 69.425 22.3051 69.8597 22.3051H71.3615V21.7123C71.3615 21.1235 71.8397 20.6453 72.4286 20.6453C73.0174 20.6453 73.4956 21.1235 73.4956 21.7123V22.3051H74.9974C75.4321 22.3051 75.7878 21.9494 75.7878 21.5147V19.9339H76.3806C76.926 19.9339 77.3686 19.4913 77.3686 18.9459C77.3686 18.4005 76.926 17.9579 76.3806 17.9579Z" fill="white"/>
<path d="M0 59.9996H15.974V16.3633H0V59.9996ZM75.8766 40.1649H47.9221L39.5757 37.2691L40.8935 33.5401L47.9221 36.198H59.1838C61.7795 36.198 63.8961 34.0955 63.8961 31.517C63.8961 29.5732 62.6581 27.8277 60.8211 27.1137L31.8282 16.3633H23.961V52.1451L51.9156 59.9996L83.8636 48.0988C83.8237 43.7352 80.3094 40.1649 75.8766 40.1649Z" fill="#2DA771"/>
</g>
<defs>
<clipPath id="clip0_619_2644">
<rect width="90.6818" height="60" fill="white"/>
</clipPath>
</defs>
</svg>
