<svg width="55" height="55" viewBox="0 0 55 55" fill="none" xmlns="http://www.w3.org/2000/svg">
<path opacity="0.4" d="M45.9251 15.6285L32.7251 6.39313C29.1272 3.8723 23.6043 4.0098 20.1439 6.69105L8.66263 15.6515C6.37096 17.439 4.56055 21.1056 4.56055 23.9931V39.8056C4.56055 45.6494 9.3043 50.416 15.148 50.416H39.8522C45.696 50.416 50.4397 45.6723 50.4397 39.8285V24.291C50.4397 21.1973 48.446 17.3931 45.9251 15.6285Z" fill="#32A071"/>
<path d="M38.5688 25.8272C38.4084 25.4376 38.0876 25.1168 37.698 24.9564C37.4918 24.8647 37.2855 24.8418 37.0793 24.8418H32.8168C31.923 24.8418 31.2126 25.5522 31.2126 26.446C31.2126 27.3397 31.923 28.0501 32.8168 28.0501H33.2293L28.3938 32.8855L26.0563 29.4022C25.7813 29.0126 25.3688 28.7376 24.8876 28.6918C24.3834 28.646 23.948 28.8064 23.6043 29.1501L16.7751 35.9793C16.1563 36.598 16.1563 37.6064 16.7751 38.248C17.0959 38.5689 17.4855 38.7064 17.898 38.7064C18.3105 38.7064 18.723 38.546 19.0209 38.248L24.4751 32.7939L26.8126 36.2772C27.0876 36.6668 27.5001 36.9418 27.9813 36.9876C28.4855 37.0335 28.9209 36.873 29.2647 36.5293L35.498 30.296V30.7085C35.498 31.6022 36.2084 32.3126 37.1022 32.3126C37.9959 32.3126 38.7063 31.6022 38.7063 30.7085V26.446C38.6834 26.2168 38.6605 26.0105 38.5688 25.8272Z" fill="#32A071"/>
</svg>
