<svg width="44" height="43" viewBox="0 0 44 43" fill="none" xmlns="http://www.w3.org/2000/svg">
<circle cx="22.1761" cy="21.473" r="20.973" stroke="#D4D4D8"/>
<path d="M22.1773 12.9552C24.9514 12.9552 25.28 12.9656 26.3759 13.0156C27.0348 13.0236 27.6874 13.1446 28.3055 13.3733C28.7536 13.5461 29.1607 13.8109 29.5003 14.1506C29.84 14.4902 30.1048 14.8973 30.2776 15.3454C30.5063 15.9635 30.6273 16.6161 30.6353 17.275C30.6848 18.371 30.6957 18.6995 30.6957 21.4736C30.6957 24.2478 30.6853 24.5763 30.6353 25.6723C30.6273 26.3312 30.5063 26.9838 30.2776 27.6019C30.1048 28.05 29.84 28.4571 29.5003 28.7967C29.1607 29.1364 28.7536 29.4012 28.3055 29.574C27.6874 29.8027 27.0348 29.9237 26.3759 29.9317C25.2804 29.9812 24.9519 29.9921 22.1773 29.9921C19.4026 29.9921 19.0741 29.9817 17.9786 29.9317C17.3197 29.9237 16.6671 29.8027 16.049 29.574C15.6009 29.4012 15.1938 29.1364 14.8542 28.7967C14.5145 28.4571 14.2497 28.05 14.0769 27.6019C13.8482 26.9838 13.7272 26.3312 13.7192 25.6723C13.6697 24.5763 13.6588 24.2478 13.6588 21.4736C13.6588 18.6995 13.6692 18.371 13.7192 17.275C13.7272 16.6161 13.8482 15.9635 14.0769 15.3454C14.2497 14.8973 14.5145 14.4902 14.8542 14.1506C15.1938 13.8109 15.6009 13.5461 16.049 13.3733C16.6671 13.1446 17.3197 13.0236 17.9786 13.0156C19.0746 12.9661 19.4031 12.9552 22.1773 12.9552ZM22.1773 11.083C19.3571 11.083 19.0018 11.0949 17.8935 11.1453C17.0312 11.1625 16.178 11.3258 15.3702 11.6282C14.6773 11.8893 14.0497 12.2984 13.5312 12.8271C13.0021 13.3458 12.5926 13.9737 12.3314 14.6671C12.0289 15.4749 11.8656 16.3281 11.8485 17.1904C11.799 18.2977 11.7871 18.653 11.7871 21.4732C11.7871 24.2933 11.799 24.6486 11.8495 25.7569C11.8666 26.6192 12.0299 27.4724 12.3323 28.2802C12.5933 28.9735 13.0024 29.6014 13.5312 30.1202C14.05 30.649 14.6779 31.0581 15.3712 31.3191C16.179 31.6215 17.0322 31.7848 17.8945 31.8019C19.0028 31.8514 19.3566 31.8643 22.1782 31.8643C24.9999 31.8643 25.3537 31.8524 26.462 31.8019C27.3243 31.7848 28.1775 31.6215 28.9853 31.3191C29.6753 31.0516 30.3019 30.6431 30.8249 30.1196C31.348 29.5962 31.7562 28.9694 32.0232 28.2792C32.3256 27.4714 32.4889 26.6182 32.5061 25.7559C32.5555 24.6486 32.5674 24.2933 32.5674 21.4732C32.5674 18.653 32.5555 18.2977 32.5051 17.1894C32.4879 16.3271 32.3246 15.4739 32.0222 14.6661C31.7612 13.9728 31.3521 13.3449 30.8233 12.8261C30.3045 12.2973 29.6766 11.8882 28.9833 11.6273C28.1755 11.3248 27.3223 11.1615 26.46 11.1444C25.3527 11.0949 24.9974 11.083 22.1773 11.083Z" fill="#090914"/>
<path d="M22.1793 16.1396C21.1241 16.1396 20.0925 16.4526 19.215 17.0389C18.3376 17.6251 17.6537 18.4584 17.2499 19.4334C16.8461 20.4083 16.7404 21.4812 16.9463 22.5162C17.1521 23.5512 17.6603 24.5019 18.4065 25.2481C19.1527 25.9943 20.1034 26.5024 21.1384 26.7083C22.1734 26.9142 23.2462 26.8085 24.2212 26.4047C25.1961 26.0008 26.0294 25.317 26.6157 24.4395C27.202 23.5621 27.5149 22.5305 27.5149 21.4752C27.5149 20.0602 26.9528 18.703 25.9522 17.7024C24.9516 16.7018 23.5944 16.1396 22.1793 16.1396ZM22.1793 24.9386C21.4943 24.9386 20.8247 24.7355 20.2552 24.3549C19.6856 23.9744 19.2417 23.4335 18.9796 22.8006C18.7175 22.1678 18.6489 21.4714 18.7825 20.7996C18.9161 20.1277 19.246 19.5106 19.7304 19.0263C20.2147 18.5419 20.8318 18.212 21.5037 18.0784C22.1755 17.9448 22.8719 18.0134 23.5047 18.2755C24.1376 18.5376 24.6785 18.9815 25.059 19.5511C25.4396 20.1206 25.6427 20.7902 25.6427 21.4752C25.6427 22.3938 25.2778 23.2747 24.6283 23.9242C23.9788 24.5737 23.0979 24.9386 22.1793 24.9386Z" fill="#090914"/>
<path d="M27.7253 17.1743C28.4139 17.1743 28.9722 16.6161 28.9722 15.9275C28.9722 15.2389 28.4139 14.6807 27.7253 14.6807C27.0367 14.6807 26.4785 15.2389 26.4785 15.9275C26.4785 16.6161 27.0367 17.1743 27.7253 17.1743Z" fill="#090914"/>
</svg>
