<svg width="43" height="43" viewBox="0 0 43 43" fill="none" xmlns="http://www.w3.org/2000/svg">
<g clip-path="url(#clip0_1341_2718)">
<circle cx="21.473" cy="21.473" r="21.473" fill="#7150FF"/>
<path d="M29.5556 10C30.2039 10 30.8256 10.2575 31.284 10.716C31.7425 11.1744 32 11.7961 32 12.4444V29.5556C32 30.2039 31.7425 30.8256 31.284 31.284C30.8256 31.7425 30.2039 32 29.5556 32H12.4444C11.7961 32 11.1744 31.7425 10.716 31.284C10.2575 30.8256 10 30.2039 10 29.5556V12.4444C10 11.7961 10.2575 11.1744 10.716 10.716C11.1744 10.2575 11.7961 10 12.4444 10H29.5556ZM28.9444 28.9444V22.4667C28.9444 21.4099 28.5247 20.3965 27.7774 19.6492C27.0302 18.902 26.0167 18.4822 24.96 18.4822C23.9211 18.4822 22.7111 19.1178 22.1244 20.0711V18.7144H18.7144V28.9444H22.1244V22.9189C22.1244 21.9778 22.8822 21.2078 23.8233 21.2078C24.2771 21.2078 24.7124 21.3881 25.0333 21.709C25.3542 22.0298 25.5344 22.4651 25.5344 22.9189V28.9444H28.9444ZM14.7422 16.7956C15.2868 16.7956 15.8091 16.5792 16.1941 16.1941C16.5792 15.8091 16.7956 15.2868 16.7956 14.7422C16.7956 13.6056 15.8789 12.6767 14.7422 12.6767C14.1944 12.6767 13.669 12.8943 13.2817 13.2817C12.8943 13.669 12.6767 14.1944 12.6767 14.7422C12.6767 15.8789 13.6056 16.7956 14.7422 16.7956ZM16.4411 28.9444V18.7144H13.0556V28.9444H16.4411Z" fill="white"/>
</g>
<defs>
<clipPath id="clip0_1341_2718">
<rect width="42.9459" height="42.9459" fill="white"/>
</clipPath>
</defs>
</svg>
