<svg width="174" height="63" viewBox="0 0 174 63" fill="none" xmlns="http://www.w3.org/2000/svg">
<circle cx="31" cy="31" r="31" fill="#7150FF"/>
<g filter="url(#filter0_d_750_2302)">
<rect x="19.7273" y="17.6133" width="9.15909" height="37.3409" fill="white"/>
</g>
<g filter="url(#filter1_d_750_2302)">
<path d="M29.8948 42.9287C31.5538 43.0738 33.2252 42.8908 34.8136 42.39C36.4019 41.8892 37.876 41.0804 39.1518 40.0099C40.4276 38.9394 41.48 37.6281 42.249 36.1509C43.018 34.6737 43.4885 33.0595 43.6336 31.4004C43.7788 29.7413 43.5957 28.0699 43.0949 26.4816C42.5941 24.8933 41.7854 23.4192 40.7149 22.1434C39.6444 20.8676 38.3331 19.8152 36.8559 19.0462C35.3786 18.2772 33.7644 17.8067 32.1054 17.6615L31.0001 30.2951L29.8948 42.9287Z" fill="white"/>
</g>
<g filter="url(#filter2_d_750_2302)">
<circle cx="24.3068" cy="10.9204" r="4.57955" fill="white"/>
</g>
<path d="M79.4351 22.1569C82.241 22.1569 84.086 20.2543 84.086 17.5445C84.086 14.7962 82.2602 12.9512 79.4351 12.9512H73.8809V27H76.3409V22.1569H79.4351ZM78.9546 15.1422C80.5882 15.1422 81.5107 15.9878 81.5107 17.5253C81.5107 19.0627 80.6074 19.966 78.9162 19.966H76.3409V15.1422H78.9546ZM86.6153 27L87.7492 23.7521H92.9959L94.1298 27H96.7243L91.6506 12.9512H89.1329L84.0592 27H86.6153ZM90.0746 17.1409C90.2092 16.7565 90.3245 16.3337 90.3821 16.0646C90.4206 16.3529 90.5551 16.7757 90.6704 17.1409L92.2848 21.6765H88.4795L90.0746 17.1409ZM100.946 27V21.7533H103.963L106.346 27H109.037L106.366 21.2344C108.018 20.5618 108.902 19.2165 108.902 17.3331C108.902 14.5656 107.038 12.9512 103.848 12.9512H98.4859V27H100.946ZM100.946 15.1422H103.848C105.405 15.1422 106.327 15.9301 106.327 17.3331C106.327 18.7552 105.405 19.5816 103.848 19.5816H100.946V15.1422ZM120.086 27V24.7322H113.821V21.0038H119.433V18.8321H113.821V15.219H120.086V12.9512H111.361V27H120.086ZM125.175 27V17.0448L131.786 27H134.207V12.9512H131.786V22.9064L125.194 12.9512H122.753V27H125.175ZM136.087 15.219H140.2V27H142.66V15.219H146.773V12.9512H136.087V15.219Z" fill="black"/>
<path d="M76.8214 50V46.0218C76.8214 44.4651 76.8021 43.2735 76.6292 42.2165L79.6273 50H82.4716L85.4889 42.2165C85.3352 43.2735 85.3352 43.9462 85.3352 47.0211V50H88.3525V35.7783H85.2967L81.0494 46.3869L76.8214 35.7783H73.804V50H76.8214ZM93.2558 50L94.2744 47.0019H98.8676L99.8669 50H103.173L98.1181 35.7783H95.0815L90.0078 50H93.2558ZM96.1962 41.3517C96.3692 40.8328 96.5229 40.2946 96.5806 39.9679C96.6382 40.3139 96.8112 40.8712 96.9649 41.3517L97.9835 44.3882H95.1776L96.1962 41.3517ZM113.86 50V47.1172H107.941V44.1768H113.188V41.4477H107.941V38.6611H113.86V35.7783H104.828V50H113.86ZM115.62 39.9103C115.62 42.2357 116.927 43.6771 119.463 44.196L121.635 44.638C122.577 44.8302 122.942 45.2338 122.942 46.0218C122.942 46.925 122.058 47.4824 120.655 47.4824C119.271 47.4824 118.502 46.9058 118.502 45.868H115.408C115.408 48.5394 117.465 50.2498 120.636 50.2498C123.903 50.2498 126.055 48.4625 126.055 45.7143C126.055 43.4657 124.845 42.2549 122.308 41.736L120.174 41.294C119.175 41.0826 118.733 40.6598 118.733 39.795C118.733 38.8532 119.54 38.2767 120.809 38.2767C121.981 38.2767 122.731 38.8917 122.731 39.891H125.825C125.825 37.2004 123.903 35.5092 120.847 35.5092C117.791 35.5092 115.62 37.335 115.62 39.9103ZM126.836 38.6611H130.872V50H133.985V38.6611H138.021V35.7783H126.836V38.6611ZM143 50V45.0224H145.402L147.536 50H150.937L148.439 44.3497C150.015 43.5426 150.803 42.2357 150.803 40.3907C150.803 37.4503 148.842 35.7783 145.383 35.7783H139.887V50H143ZM143 38.5457H145.383C146.767 38.5457 147.516 39.1992 147.516 40.3907C147.516 41.6015 146.728 42.2934 145.364 42.2934H143V38.5457ZM166.264 42.8699C166.264 38.5265 163.419 35.5284 159.287 35.5284C155.174 35.5284 152.33 38.5457 152.33 42.8891C152.33 47.2325 155.155 50.2306 159.268 50.2306C163.4 50.2306 166.264 47.2133 166.264 42.8699ZM162.977 42.8699C162.977 45.5605 161.593 47.2325 159.306 47.2325C157 47.2325 155.616 45.599 155.616 42.8699C155.616 40.1601 157 38.5265 159.306 38.5265C161.593 38.5265 162.977 40.1601 162.977 42.8699Z" fill="#7150FF"/>
<line x1="68.2402" y1="9.20117" x2="68.2402" y2="52.9234" stroke="#7150FF" stroke-width="0.480464" stroke-linecap="round"/>
<defs>
<filter id="filter0_d_750_2302" x="15.7273" y="17.6133" width="17.1592" height="45.3408" filterUnits="userSpaceOnUse" color-interpolation-filters="sRGB">
<feFlood flood-opacity="0" result="BackgroundImageFix"/>
<feColorMatrix in="SourceAlpha" type="matrix" values="0 0 0 0 0 0 0 0 0 0 0 0 0 0 0 0 0 0 127 0" result="hardAlpha"/>
<feOffset dy="4"/>
<feGaussianBlur stdDeviation="2"/>
<feComposite in2="hardAlpha" operator="out"/>
<feColorMatrix type="matrix" values="0 0 0 0 0 0 0 0 0 0 0 0 0 0 0 0 0 0 0.25 0"/>
<feBlend mode="normal" in2="BackgroundImageFix" result="effect1_dropShadow_750_2302"/>
<feBlend mode="normal" in="SourceGraphic" in2="effect1_dropShadow_750_2302" result="shape"/>
</filter>
<filter id="filter1_d_750_2302" x="25.8948" y="17.6611" width="21.7871" height="33.3154" filterUnits="userSpaceOnUse" color-interpolation-filters="sRGB">
<feFlood flood-opacity="0" result="BackgroundImageFix"/>
<feColorMatrix in="SourceAlpha" type="matrix" values="0 0 0 0 0 0 0 0 0 0 0 0 0 0 0 0 0 0 127 0" result="hardAlpha"/>
<feOffset dy="4"/>
<feGaussianBlur stdDeviation="2"/>
<feComposite in2="hardAlpha" operator="out"/>
<feColorMatrix type="matrix" values="0 0 0 0 0 0 0 0 0 0 0 0 0 0 0 0 0 0 0.25 0"/>
<feBlend mode="normal" in2="BackgroundImageFix" result="effect1_dropShadow_750_2302"/>
<feBlend mode="normal" in="SourceGraphic" in2="effect1_dropShadow_750_2302" result="shape"/>
</filter>
<filter id="filter2_d_750_2302" x="15.7273" y="6.34082" width="17.1592" height="17.1592" filterUnits="userSpaceOnUse" color-interpolation-filters="sRGB">
<feFlood flood-opacity="0" result="BackgroundImageFix"/>
<feColorMatrix in="SourceAlpha" type="matrix" values="0 0 0 0 0 0 0 0 0 0 0 0 0 0 0 0 0 0 127 0" result="hardAlpha"/>
<feOffset dy="4"/>
<feGaussianBlur stdDeviation="2"/>
<feComposite in2="hardAlpha" operator="out"/>
<feColorMatrix type="matrix" values="0 0 0 0 0 0 0 0 0 0 0 0 0 0 0 0 0 0 0.25 0"/>
<feBlend mode="normal" in2="BackgroundImageFix" result="effect1_dropShadow_750_2302"/>
<feBlend mode="normal" in="SourceGraphic" in2="effect1_dropShadow_750_2302" result="shape"/>
</filter>
</defs>
</svg>
