<svg width="46" height="46" viewBox="0 0 46 46" fill="none" xmlns="http://www.w3.org/2000/svg">
<path d="M37.3754 14.3749L34.5195 17.2307L28.7695 11.4807L31.6254 8.62486C32.4304 7.81986 33.4654 7.43652 34.5004 7.43652C35.5354 7.43652 36.5704 7.81986 37.3754 8.62486C38.9662 10.2157 38.9662 12.784 37.3754 14.3749Z" fill="#7150FF"/>
<path d="M33.1779 18.5918L12.4588 39.2918C10.8679 40.8826 8.29958 40.8826 6.70875 39.2918C5.11792 37.701 5.11792 35.1326 6.70875 33.5418L27.4279 12.8418L33.1779 18.5918Z" fill="#7150FF"/>
<path d="M19.0711 6.708L19.857 4.04383C19.9336 3.79467 19.857 3.52633 19.6845 3.33467C19.512 3.143 19.2053 3.06633 18.9562 3.143L16.292 3.92883L13.6278 3.143C13.3787 3.06633 13.1103 3.143 12.9187 3.3155C12.727 3.50717 12.6695 3.7755 12.7462 4.02467L13.5128 6.708L12.727 9.37217C12.6503 9.62133 12.727 9.88967 12.8995 10.0813C13.0912 10.273 13.3595 10.3305 13.6087 10.2538L16.292 9.48717L18.9562 10.273C19.0328 10.2922 19.0903 10.3113 19.167 10.3113C19.3587 10.3113 19.5312 10.2347 19.6845 10.1005C19.8762 9.90883 19.9336 9.6405 19.857 9.39133L19.0711 6.708Z" fill="#7150FF"/>
<path d="M11.4042 18.208L12.19 15.5438C12.2667 15.2947 12.19 15.0263 12.0175 14.8347C11.8258 14.643 11.5575 14.5855 11.3083 14.6622L8.62499 15.4288L5.96082 14.643C5.71166 14.5663 5.44332 14.643 5.25166 14.8155C5.05999 15.0072 5.00249 15.2755 5.07916 15.5247L5.84582 18.208L5.05999 20.8722C4.98333 21.1213 5.05999 21.3897 5.23249 21.5813C5.42416 21.773 5.69249 21.8305 5.94166 21.7538L8.60582 20.968L11.27 21.7538C11.3275 21.773 11.4042 21.773 11.4808 21.773C11.6725 21.773 11.845 21.6963 11.9983 21.5622C12.19 21.3705 12.2475 21.1022 12.1708 20.853L11.4042 18.208Z" fill="#7150FF"/>
<path d="M40.1541 27.7916L40.94 25.1274C41.0166 24.8782 40.94 24.6099 40.7675 24.4182C40.5758 24.2266 40.3075 24.1691 40.0583 24.2457L37.3941 25.0316L34.73 24.2457C34.4808 24.1691 34.2125 24.2457 34.0208 24.4182C33.8291 24.6099 33.7716 24.8782 33.8483 25.1274L34.6341 27.7916L33.8483 30.4557C33.7716 30.7049 33.8483 30.9732 34.0208 31.1649C34.2125 31.3566 34.4808 31.4141 34.73 31.3374L37.3941 30.5516L40.0583 31.3374C40.1158 31.3566 40.1925 31.3566 40.2691 31.3566C40.4608 31.3566 40.6333 31.2799 40.7866 31.1457C40.9783 30.9541 41.0358 30.6857 40.9591 30.4366L40.1541 27.7916Z" fill="#7150FF"/>
</svg>
