<svg width="129" height="102" viewBox="0 0 129 102" fill="none" xmlns="http://www.w3.org/2000/svg">
<g clip-path="url(#clip0_619_2237)">
<path opacity="0.4" d="M65.4265 70.9633C85.0224 70.9633 100.908 55.0776 100.908 35.4817C100.908 15.8857 85.0224 0 65.4265 0C45.8305 0 29.9448 15.8857 29.9448 35.4817C29.9448 55.0776 45.8305 70.9633 65.4265 70.9633Z" fill="#2DA771"/>
<path opacity="0.4" d="M113.23 75.7985C121.499 75.7985 128.202 69.0951 128.202 60.826C128.202 52.5569 121.499 45.8535 113.23 45.8535C104.961 45.8535 98.2573 52.5569 98.2573 60.826C98.2573 69.0951 104.961 75.7985 113.23 75.7985Z" fill="#2DA771"/>
<path opacity="0.4" d="M14.9725 75.7985C23.2415 75.7985 29.945 69.0951 29.945 60.826C29.945 52.5569 23.2415 45.8535 14.9725 45.8535C6.70341 45.8535 0 52.5569 0 60.826C0 69.0951 6.70341 75.7985 14.9725 75.7985Z" fill="#2DA771"/>
<path d="M65.5044 83.9867C71.0972 83.9867 76.0382 85.3249 80.0526 87.0748C83.7583 88.7218 86.0915 92.4275 86.0915 96.4419V102H44.9172V96.4763C44.9172 92.4275 47.2504 88.7218 50.9561 87.1091C54.9706 85.3249 59.9115 83.9867 65.5044 83.9867ZM38.0548 84.8445C41.8292 84.8445 44.9172 81.7564 44.9172 77.9821C44.9172 74.2078 41.8292 71.1198 38.0548 71.1198C34.2805 71.1198 31.1925 74.2078 31.1925 77.9821C31.1925 81.7564 34.2805 84.8445 38.0548 84.8445ZM41.9321 88.6188C40.6626 88.413 39.393 88.2757 38.0548 88.2757C34.658 88.2757 31.4326 88.9963 28.5161 90.2658C25.9771 91.3638 24.3301 93.8342 24.3301 96.6135V102H39.7704V96.4763C39.7704 93.6284 40.5596 90.952 41.9321 88.6188ZM92.9539 84.8445C96.7282 84.8445 99.8163 81.7564 99.8163 77.9821C99.8163 74.2078 96.7282 71.1198 92.9539 71.1198C89.1796 71.1198 86.0915 74.2078 86.0915 77.9821C86.0915 81.7564 89.1796 84.8445 92.9539 84.8445ZM106.679 96.6135C106.679 93.8342 105.032 91.3638 102.493 90.2658C99.5761 88.9963 96.3508 88.2757 92.9539 88.2757C91.6158 88.2757 90.3462 88.413 89.0767 88.6188C90.4492 90.952 91.2383 93.6284 91.2383 96.4763V102H106.679V96.6135ZM65.5044 60.8262C71.2002 60.8262 75.798 65.424 75.798 71.1198C75.798 76.8155 71.2002 81.4133 65.5044 81.4133C59.8086 81.4133 55.2108 76.8155 55.2108 71.1198C55.2108 65.424 59.8086 60.8262 65.5044 60.8262Z" fill="#2DA771"/>
<path d="M65.5046 25.2662C65.5046 24.3227 64.7326 23.5506 63.789 23.5506H54.9023L56.0345 18.095L56.0689 17.7005C56.0689 17.1686 55.8458 16.6883 55.5027 16.328L54.1474 14.9727L45.6723 23.4477C45.2091 23.9109 44.9175 24.5628 44.9175 25.2662V36.4176C44.9175 37.8416 46.0669 38.991 47.4909 38.991H59.0711C60.1348 38.991 61.0441 38.3391 61.4387 37.4298L65.3159 28.3543C65.436 28.0627 65.5046 27.7367 65.5046 27.4107V25.2662ZM83.5184 32.1286H71.9381C70.8745 32.1286 69.9652 32.7805 69.5706 33.6898L65.6934 42.7653C65.5733 43.057 65.5046 43.3829 65.5046 43.7089V45.8534C65.5046 46.797 66.2767 47.569 67.2202 47.569H76.107L74.9747 53.0246L74.9404 53.4363C74.9404 53.9682 75.1634 54.4485 75.5066 54.8088L76.8619 56.147L85.3369 47.6719C85.8001 47.2087 86.0918 46.5568 86.0918 45.8534V34.702C86.0918 33.2781 84.9423 32.1286 83.5184 32.1286Z" fill="#2DA771"/>
<path d="M14.5044 65.373L19.4201 68.3123L18.1156 62.7725L22.4586 59.0451L16.7395 58.5645L14.5044 53.3398L12.2693 58.5645L6.55029 59.0451L10.8932 62.7725L9.58877 68.3123L14.5044 65.373Z" fill="#2DA771"/>
<path d="M112.762 65.373L117.677 68.3123L116.373 62.7725L120.716 59.0451L114.997 58.5645L112.762 53.3398L110.527 58.5645L104.808 59.0451L109.151 62.7725L107.846 68.3123L112.762 65.373Z" fill="#2DA771"/>
</g>
<defs>
<clipPath id="clip0_619_2237">
<rect width="128.202" height="102" fill="white"/>
</clipPath>
</defs>
</svg>
