<svg width="55" height="55" viewBox="0 0 55 55" fill="none" xmlns="http://www.w3.org/2000/svg">
<path opacity="0.4" d="M48.125 4.58398V32.3132C48.125 36.6673 45.8333 38.959 41.4792 38.959H13.5208C9.16665 38.959 6.875 36.6673 6.875 32.3132V4.58398H48.125Z" fill="#32A071"/>
<path d="M50.4168 6.30273H4.5835C3.64391 6.30273 2.86475 5.52357 2.86475 4.58398C2.86475 3.6444 3.64391 2.86523 4.5835 2.86523H50.4168C51.3564 2.86523 52.1356 3.6444 52.1356 4.58398C52.1356 5.52357 51.3564 6.30273 50.4168 6.30273Z" fill="#32A071"/>
<path d="M38.202 51.1965C37.9041 51.7923 37.2853 52.1361 36.6665 52.1361C36.4145 52.1361 36.1395 52.0674 35.9103 51.9528L27.4999 47.759L19.0894 51.9528C18.8603 52.0674 18.5853 52.1361 18.3332 52.1361C17.7145 52.1361 17.0957 51.7923 16.7978 51.1965C16.3623 50.3256 16.7062 49.2944 17.577 48.8819L25.7811 44.7798V38.959H29.2186V44.7798L37.4228 48.8819C38.2936 49.2944 38.6374 50.3256 38.202 51.1965Z" fill="#32A071"/>
<path d="M17.1873 26.927C16.706 26.927 16.2019 26.7208 15.8582 26.3083C15.2394 25.575 15.3539 24.4979 16.0873 23.8792L23.3061 17.8521C23.9707 17.3021 24.8185 17.0729 25.6206 17.2104C26.4456 17.3479 27.1561 17.852 27.5915 18.5853L29.9977 22.5958L36.7123 17.0042C37.4456 16.3854 38.5227 16.4999 39.1414 17.2333C39.7602 17.9666 39.6457 19.0437 38.9123 19.6624L31.6935 25.6895C31.0289 26.2395 30.1811 26.4687 29.379 26.3312C28.554 26.1937 27.8435 25.6896 27.4081 24.9562L25.0019 20.9458L18.2873 26.5374C17.9665 26.7895 17.5769 26.927 17.1873 26.927Z" fill="#32A071"/>
</svg>
