<svg width="167" height="167" viewBox="0 0 167 167" fill="none" xmlns="http://www.w3.org/2000/svg">
<path d="M110.708 86.0777H143.343C142.786 118.573 136.385 123.931 116.414 135.76C114.118 137.152 113.353 140.074 114.744 142.44C116.136 144.736 119.058 145.502 121.424 144.11C144.943 130.194 153.154 121.704 153.154 81.2069V43.7014C153.154 31.8027 143.482 22.2002 131.653 22.2002H110.778C98.5313 22.2002 89.2768 31.4548 89.2768 43.7014V64.5764C89.2072 76.8231 98.4618 86.0777 110.708 86.0777Z" fill="#FFC600" fill-opacity="0.38"/>
<path d="M35.4182 86.0777H68.0528C67.4962 118.573 61.0945 123.931 41.1241 135.76C38.8278 137.152 38.0624 140.074 39.4541 142.44C40.8457 144.736 43.7682 145.502 46.1341 144.11C69.6532 130.194 77.8641 121.704 77.8641 81.2069V43.7014C77.8641 31.8027 68.192 22.2002 56.3628 22.2002H35.4878C23.1716 22.2002 13.917 31.4548 13.917 43.7014V64.5764C13.917 76.8231 23.1716 86.0777 35.4182 86.0777Z" fill="#FFC600" fill-opacity="0.38"/>
</svg>
