<svg width="43" height="43" viewBox="0 0 43 43" fill="none" xmlns="http://www.w3.org/2000/svg">
<circle cx="21.473" cy="21.473" r="20.973" stroke="#D4D4D8"/>
<path d="M30.9919 16.847C30.3492 17.1326 29.6708 17.3111 28.9567 17.4182C29.6708 16.9898 30.2421 16.3114 30.492 15.4902C29.8136 15.8829 29.0638 16.1686 28.2426 16.3471C27.5999 15.6687 26.6716 15.2402 25.6719 15.2402C23.7438 15.2402 22.1728 16.8113 22.1728 18.7393C22.1728 19.025 22.2085 19.2749 22.2799 19.5248C19.3878 19.382 16.7813 17.9895 15.0318 15.8472C14.7461 16.3828 14.5676 16.9541 14.5676 17.5968C14.5676 18.8107 15.1746 19.8819 16.1386 20.5246C15.5674 20.4889 15.0318 20.346 14.5319 20.0961V20.1318C14.5319 21.8457 15.7459 23.2739 17.3526 23.5952C17.067 23.6666 16.7456 23.7023 16.4243 23.7023C16.21 23.7023 15.9601 23.6666 15.7459 23.6309C16.21 25.0234 17.4954 26.0588 19.0307 26.0588C17.8168 26.9872 16.3172 27.5585 14.6747 27.5585C14.3891 27.5585 14.1035 27.5585 13.8535 27.5227C15.4245 28.5225 17.2455 29.0938 19.245 29.0938C25.7076 29.0938 29.2424 23.738 29.2424 19.0964C29.2424 18.9536 29.2424 18.775 29.2424 18.6322C29.9208 18.168 30.5277 17.5611 30.9919 16.847Z" fill="#090914"/>
</svg>
