<svg width="91" height="91" viewBox="0 0 91 91" fill="none" xmlns="http://www.w3.org/2000/svg">
<path opacity="0.4" d="M61.3872 7.58301H29.6131C15.8114 7.58301 7.5835 15.8109 7.5835 29.6126V61.3488C7.5835 75.1884 15.8114 83.4163 29.6131 83.4163H61.3493C75.151 83.4163 83.3789 75.1884 83.3789 61.3868V29.6126C83.4168 15.8109 75.1889 7.58301 61.3872 7.58301Z" fill="#2DA771"/>
<path d="M26.0869 71.6622C24.5323 71.6622 23.2432 70.3731 23.2432 68.8185V60.9697C23.2432 59.4151 24.5323 58.126 26.0869 58.126C27.6415 58.126 28.9307 59.4151 28.9307 60.9697V68.8185C28.9307 70.411 27.6415 71.6622 26.0869 71.6622Z" fill="#2DA771"/>
<path d="M45.5 71.6622C43.9454 71.6622 42.6562 70.373 42.6562 68.8184V53.083C42.6562 51.5284 43.9454 50.2393 45.5 50.2393C47.0546 50.2393 48.3438 51.5284 48.3438 53.083V68.8184C48.3438 70.4109 47.0546 71.6622 45.5 71.6622Z" fill="#2DA771"/>
<path d="M64.9136 71.6623C63.359 71.6623 62.0698 70.3731 62.0698 68.8185V45.2344C62.0698 43.6798 63.359 42.3906 64.9136 42.3906C66.4682 42.3906 67.7573 43.6798 67.7573 45.2344V68.8185C67.7573 70.411 66.5061 71.6623 64.9136 71.6623Z" fill="#2DA771"/>
<path d="M67.7573 22.0669C67.7573 21.8773 67.6815 21.6498 67.6435 21.4602C67.6056 21.3086 67.5677 21.119 67.5298 20.9673C67.454 20.8157 67.3402 20.7019 67.2644 20.5502C67.1506 20.3986 67.0369 20.209 66.8852 20.0952C66.8473 20.0573 66.8473 20.0194 66.8094 20.0194C66.6956 19.9436 66.5819 19.9057 66.4681 19.8298C66.3165 19.7161 66.1269 19.6023 65.9373 19.5265C65.7477 19.4507 65.5581 19.4507 65.3685 19.4127C65.2169 19.3748 65.1031 19.3369 64.9515 19.3369H53.8419C52.2873 19.3369 50.9981 20.6261 50.9981 22.1807C50.9981 23.7352 52.2873 25.0244 53.8419 25.0244H58.5815C49.5573 34.5036 38.1823 41.1769 25.4044 44.3998C23.8877 44.779 22.9398 46.3336 23.319 47.8502C23.6223 49.1394 24.7977 50.0115 26.0869 50.0115C26.3144 50.0115 26.5419 49.9736 26.7694 49.9357C40.3056 46.5611 52.401 39.5465 62.0698 29.6123V33.2902C62.0698 34.8448 63.359 36.134 64.9135 36.134C66.4681 36.134 67.7573 34.8448 67.7573 33.2902V22.1807C67.7573 22.1427 67.7573 22.1048 67.7573 22.0669Z" fill="#2DA771"/>
</svg>
