<svg width="247" height="17" viewBox="0 0 247 17" fill="none" xmlns="http://www.w3.org/2000/svg">
<path d="M53.5479 3.45368C76.9153 2.95577 100.295 2.63569 123.675 2.49343C147.056 2.35117 170.219 2.39859 193.485 2.62383C206.702 2.75424 219.931 2.93206 233.147 3.16916L234.941 0.738897C204.768 1.22495 174.608 1.82955 144.448 2.5527C114.288 3.27586 84.1277 4.11756 53.9676 5.08966C37.0368 5.63499 20.1186 6.20403 3.18777 6.82049C2.19558 6.85605 0.707292 7.09315 0.147594 7.99413C-0.373942 8.83583 0.592809 9.27446 1.39419 9.25075C32.8263 8.50389 64.2839 8.43276 95.7287 9.04922C127.174 9.66567 158.593 10.9816 189.974 12.9732C207.605 14.0876 225.223 15.4272 242.815 16.9802C243.769 17.0632 245.346 16.6245 245.855 15.8065C246.415 14.9174 245.372 14.6092 244.608 14.5499C213.303 11.7877 181.922 9.70124 150.516 8.30236C119.109 6.90347 87.6513 6.20403 56.2064 6.19217C38.5378 6.19217 20.8691 6.39371 3.20049 6.82049L1.40691 9.25075C31.5543 8.14824 61.7144 7.17614 91.8745 6.31072C122.035 5.45717 152.195 4.71031 182.355 4.09385C199.286 3.75005 216.229 3.42997 233.16 3.15731C234.152 3.14545 235.653 2.87279 236.2 1.98367C236.747 1.09455 235.742 0.738897 234.954 0.727042C211.561 0.323973 188.193 0.0750194 164.813 0.0157447C141.433 -0.0435301 118.269 0.0631645 95.0037 0.359538C81.7872 0.525508 68.558 0.750752 55.3414 1.03527C54.3493 1.05898 52.8482 1.31979 52.3013 2.20891C51.7797 3.05061 52.7465 3.48925 53.5479 3.46554V3.45368Z" fill="#7150FF"/>
</svg>
