<svg width="43" height="43" viewBox="0 0 43 43" fill="none" xmlns="http://www.w3.org/2000/svg">
<g clip-path="url(#clip0_1341_2713)">
<circle cx="21.473" cy="21.473" r="21.473" fill="#7150FF"/>
<path d="M18.8 24.8571L25.8065 21L18.8 17.1429V24.8571ZM34.406 14.79C34.5815 15.3943 34.703 16.2043 34.784 17.2329C34.8785 18.2614 34.919 19.1486 34.919 19.92L35 21C35 23.8157 34.784 25.8857 34.406 27.21C34.0685 28.3671 33.2855 29.1129 32.0705 29.4343C31.436 29.6014 30.275 29.7171 28.493 29.7943C26.738 29.8843 25.1315 29.9229 23.6465 29.9229L21.5 30C15.8435 30 12.32 29.7943 10.9295 29.4343C9.7145 29.1129 8.9315 28.3671 8.594 27.21C8.4185 26.6057 8.297 25.7957 8.216 24.7671C8.1215 23.7386 8.081 22.8514 8.081 22.08L8 21C8 18.1843 8.216 16.1143 8.594 14.79C8.9315 13.6329 9.7145 12.8871 10.9295 12.5657C11.564 12.3986 12.725 12.2829 14.507 12.2057C16.262 12.1157 17.8685 12.0771 19.3535 12.0771L21.5 12C27.1565 12 30.68 12.2057 32.0705 12.5657C33.2855 12.8871 34.0685 13.6329 34.406 14.79Z" fill="white"/>
</g>
<defs>
<clipPath id="clip0_1341_2713">
<rect width="42.9459" height="42.9459" fill="white"/>
</clipPath>
</defs>
</svg>
